<svg xmlns="http://www.w3.org/2000/svg" xmlns:xlink="http://www.w3.org/1999/xlink" width="500" zoomAndPan="magnify" viewBox="0 0 375 374.999991" height="500" preserveAspectRatio="xMidYMid meet" version="1.0"><defs><clipPath id="b7cc87f822"><path d="M 37.5 37.5 L 79.546875 37.5 L 79.546875 79.546875 L 37.5 79.546875 Z M 37.5 37.5 " clip-rule="nonzero"/></clipPath><clipPath id="02f29cc173"><path d="M 58.523438 37.5 C 46.914062 37.5 37.5 46.914062 37.5 58.523438 C 37.5 70.132812 46.914062 79.546875 58.523438 79.546875 C 70.132812 79.546875 79.546875 70.132812 79.546875 58.523438 C 79.546875 46.914062 70.132812 37.5 58.523438 37.5 Z M 58.523438 37.5 " clip-rule="nonzero"/></clipPath><clipPath id="fdd6ff0044"><path d="M 0.5 0.5 L 42.546875 0.5 L 42.546875 42.546875 L 0.5 42.546875 Z M 0.5 0.5 " clip-rule="nonzero"/></clipPath><clipPath id="da0d7cbfb8"><path d="M 21.523438 0.5 C 9.914062 0.5 0.5 9.914062 0.5 21.523438 C 0.5 33.132812 9.914062 42.546875 21.523438 42.546875 C 33.132812 42.546875 42.546875 33.132812 42.546875 21.523438 C 42.546875 9.914062 33.132812 0.5 21.523438 0.5 Z M 21.523438 0.5 " clip-rule="nonzero"/></clipPath><clipPath id="f6056f87f8"><rect x="0" width="43" y="0" height="43"/></clipPath><clipPath id="c75d7dd7db"><path d="M 295.453125 37.5 L 337.5 37.5 L 337.5 79.546875 L 295.453125 79.546875 Z M 295.453125 37.5 " clip-rule="nonzero"/></clipPath><clipPath id="fdfe52f31f"><path d="M 316.476562 37.5 C 304.867188 37.5 295.453125 46.914062 295.453125 58.523438 C 295.453125 70.132812 304.867188 79.546875 316.476562 79.546875 C 328.085938 79.546875 337.5 70.132812 337.5 58.523438 C 337.5 46.914062 328.085938 37.5 316.476562 37.5 Z M 316.476562 37.5 " clip-rule="nonzero"/></clipPath><clipPath id="7396604ff1"><path d="M 0.453125 0.5 L 42.5 0.5 L 42.5 42.546875 L 0.453125 42.546875 Z M 0.453125 0.5 " clip-rule="nonzero"/></clipPath><clipPath id="68722f628d"><path d="M 21.476562 0.5 C 9.867188 0.5 0.453125 9.914062 0.453125 21.523438 C 0.453125 33.132812 9.867188 42.546875 21.476562 42.546875 C 33.085938 42.546875 42.5 33.132812 42.5 21.523438 C 42.5 9.914062 33.085938 0.5 21.476562 0.5 Z M 21.476562 0.5 " clip-rule="nonzero"/></clipPath><clipPath id="6cba1efe5e"><rect x="0" width="43" y="0" height="43"/></clipPath><clipPath id="118b6ec4f4"><path d="M 231.023438 37.5 L 273.070312 37.5 L 273.070312 79.546875 L 231.023438 79.546875 Z M 231.023438 37.5 " clip-rule="nonzero"/></clipPath><clipPath id="179e38db9d"><path d="M 252.046875 37.5 C 240.433594 37.5 231.023438 46.914062 231.023438 58.523438 C 231.023438 70.132812 240.433594 79.546875 252.046875 79.546875 C 263.65625 79.546875 273.070312 70.132812 273.070312 58.523438 C 273.070312 46.914062 263.65625 37.5 252.046875 37.5 Z M 252.046875 37.5 " clip-rule="nonzero"/></clipPath><clipPath id="b4bcb1cd19"><path d="M 0.0234375 0.5 L 42.070312 0.5 L 42.070312 42.546875 L 0.0234375 42.546875 Z M 0.0234375 0.5 " clip-rule="nonzero"/></clipPath><clipPath id="830bb03165"><path d="M 21.046875 0.5 C 9.433594 0.5 0.0234375 9.914062 0.0234375 21.523438 C 0.0234375 33.132812 9.433594 42.546875 21.046875 42.546875 C 32.65625 42.546875 42.070312 33.132812 42.070312 21.523438 C 42.070312 9.914062 32.65625 0.5 21.046875 0.5 Z M 21.046875 0.5 " clip-rule="nonzero"/></clipPath><clipPath id="c12edaf588"><rect x="0" width="43" y="0" height="43"/></clipPath><clipPath id="856607cf2e"><path d="M 166.476562 37.5 L 208.523438 37.5 L 208.523438 79.546875 L 166.476562 79.546875 Z M 166.476562 37.5 " clip-rule="nonzero"/></clipPath><clipPath id="7c5241857f"><path d="M 187.5 37.5 C 175.890625 37.5 166.476562 46.914062 166.476562 58.523438 C 166.476562 70.132812 175.890625 79.546875 187.5 79.546875 C 199.109375 79.546875 208.523438 70.132812 208.523438 58.523438 C 208.523438 46.914062 199.109375 37.5 187.5 37.5 Z M 187.5 37.5 " clip-rule="nonzero"/></clipPath><clipPath id="4b25b740ee"><path d="M 0.476562 0.5 L 42.523438 0.5 L 42.523438 42.546875 L 0.476562 42.546875 Z M 0.476562 0.5 " clip-rule="nonzero"/></clipPath><clipPath id="f55516808a"><path d="M 21.5 0.5 C 9.890625 0.5 0.476562 9.914062 0.476562 21.523438 C 0.476562 33.132812 9.890625 42.546875 21.5 42.546875 C 33.109375 42.546875 42.523438 33.132812 42.523438 21.523438 C 42.523438 9.914062 33.109375 0.5 21.5 0.5 Z M 21.5 0.5 " clip-rule="nonzero"/></clipPath><clipPath id="4a8f5d9f21"><rect x="0" width="43" y="0" height="43"/></clipPath><clipPath id="ba460a7b41"><path d="M 101.988281 37.5 L 144.035156 37.5 L 144.035156 79.546875 L 101.988281 79.546875 Z M 101.988281 37.5 " clip-rule="nonzero"/></clipPath><clipPath id="b737ef1471"><path d="M 123.011719 37.5 C 111.402344 37.5 101.988281 46.914062 101.988281 58.523438 C 101.988281 70.132812 111.402344 79.546875 123.011719 79.546875 C 134.621094 79.546875 144.035156 70.132812 144.035156 58.523438 C 144.035156 46.914062 134.621094 37.5 123.011719 37.5 Z M 123.011719 37.5 " clip-rule="nonzero"/></clipPath><clipPath id="ec543668f6"><path d="M 0.988281 0.5 L 43.035156 0.5 L 43.035156 42.546875 L 0.988281 42.546875 Z M 0.988281 0.5 " clip-rule="nonzero"/></clipPath><clipPath id="4775b580ec"><path d="M 22.011719 0.5 C 10.402344 0.5 0.988281 9.914062 0.988281 21.523438 C 0.988281 33.132812 10.402344 42.546875 22.011719 42.546875 C 33.621094 42.546875 43.035156 33.132812 43.035156 21.523438 C 43.035156 9.914062 33.621094 0.5 22.011719 0.5 Z M 22.011719 0.5 " clip-rule="nonzero"/></clipPath><clipPath id="95c10ba6c9"><rect x="0" width="44" y="0" height="43"/></clipPath><clipPath id="ed54e9bbd6"><path d="M 37.5 295.453125 L 79.546875 295.453125 L 79.546875 337.5 L 37.5 337.5 Z M 37.5 295.453125 " clip-rule="nonzero"/></clipPath><clipPath id="9eb461f416"><path d="M 58.523438 295.453125 C 46.914062 295.453125 37.5 304.867188 37.5 316.476562 C 37.5 328.085938 46.914062 337.5 58.523438 337.5 C 70.132812 337.5 79.546875 328.085938 79.546875 316.476562 C 79.546875 304.867188 70.132812 295.453125 58.523438 295.453125 Z M 58.523438 295.453125 " clip-rule="nonzero"/></clipPath><clipPath id="e988639d2c"><path d="M 0.5 0.453125 L 42.546875 0.453125 L 42.546875 42.5 L 0.5 42.5 Z M 0.5 0.453125 " clip-rule="nonzero"/></clipPath><clipPath id="8068fa6f18"><path d="M 21.523438 0.453125 C 9.914062 0.453125 0.5 9.867188 0.5 21.476562 C 0.5 33.085938 9.914062 42.5 21.523438 42.5 C 33.132812 42.5 42.546875 33.085938 42.546875 21.476562 C 42.546875 9.867188 33.132812 0.453125 21.523438 0.453125 Z M 21.523438 0.453125 " clip-rule="nonzero"/></clipPath><clipPath id="e9993367c6"><rect x="0" width="43" y="0" height="43"/></clipPath><clipPath id="5bd8928b0b"><path d="M 295.453125 295.453125 L 337.5 295.453125 L 337.5 337.5 L 295.453125 337.5 Z M 295.453125 295.453125 " clip-rule="nonzero"/></clipPath><clipPath id="c57d784dae"><path d="M 316.476562 295.453125 C 304.867188 295.453125 295.453125 304.867188 295.453125 316.476562 C 295.453125 328.085938 304.867188 337.5 316.476562 337.5 C 328.085938 337.5 337.5 328.085938 337.5 316.476562 C 337.5 304.867188 328.085938 295.453125 316.476562 295.453125 Z M 316.476562 295.453125 " clip-rule="nonzero"/></clipPath><clipPath id="91f82d8975"><path d="M 0.453125 0.453125 L 42.5 0.453125 L 42.5 42.5 L 0.453125 42.5 Z M 0.453125 0.453125 " clip-rule="nonzero"/></clipPath><clipPath id="a31ecbf1a3"><path d="M 21.476562 0.453125 C 9.867188 0.453125 0.453125 9.867188 0.453125 21.476562 C 0.453125 33.085938 9.867188 42.5 21.476562 42.5 C 33.085938 42.5 42.5 33.085938 42.5 21.476562 C 42.5 9.867188 33.085938 0.453125 21.476562 0.453125 Z M 21.476562 0.453125 " clip-rule="nonzero"/></clipPath><clipPath id="d0fc33771a"><rect x="0" width="43" y="0" height="43"/></clipPath><clipPath id="ccffa9a12c"><path d="M 231.023438 295.453125 L 273.070312 295.453125 L 273.070312 337.5 L 231.023438 337.5 Z M 231.023438 295.453125 " clip-rule="nonzero"/></clipPath><clipPath id="209bd04073"><path d="M 252.046875 295.453125 C 240.433594 295.453125 231.023438 304.867188 231.023438 316.476562 C 231.023438 328.085938 240.433594 337.5 252.046875 337.5 C 263.65625 337.5 273.070312 328.085938 273.070312 316.476562 C 273.070312 304.867188 263.65625 295.453125 252.046875 295.453125 Z M 252.046875 295.453125 " clip-rule="nonzero"/></clipPath><clipPath id="bd1d954bd2"><path d="M 0.0234375 0.453125 L 42.070312 0.453125 L 42.070312 42.5 L 0.0234375 42.5 Z M 0.0234375 0.453125 " clip-rule="nonzero"/></clipPath><clipPath id="dc07e98815"><path d="M 21.046875 0.453125 C 9.433594 0.453125 0.0234375 9.867188 0.0234375 21.476562 C 0.0234375 33.085938 9.433594 42.5 21.046875 42.5 C 32.65625 42.5 42.070312 33.085938 42.070312 21.476562 C 42.070312 9.867188 32.65625 0.453125 21.046875 0.453125 Z M 21.046875 0.453125 " clip-rule="nonzero"/></clipPath><clipPath id="2697243ef0"><rect x="0" width="43" y="0" height="43"/></clipPath><clipPath id="33dfe5d5b3"><path d="M 166.476562 295.453125 L 208.523438 295.453125 L 208.523438 337.5 L 166.476562 337.5 Z M 166.476562 295.453125 " clip-rule="nonzero"/></clipPath><clipPath id="868593ef85"><path d="M 187.5 295.453125 C 175.890625 295.453125 166.476562 304.867188 166.476562 316.476562 C 166.476562 328.085938 175.890625 337.5 187.5 337.5 C 199.109375 337.5 208.523438 328.085938 208.523438 316.476562 C 208.523438 304.867188 199.109375 295.453125 187.5 295.453125 Z M 187.5 295.453125 " clip-rule="nonzero"/></clipPath><clipPath id="5029c02cc2"><path d="M 0.476562 0.453125 L 42.523438 0.453125 L 42.523438 42.5 L 0.476562 42.5 Z M 0.476562 0.453125 " clip-rule="nonzero"/></clipPath><clipPath id="95cfa696e7"><path d="M 21.5 0.453125 C 9.890625 0.453125 0.476562 9.867188 0.476562 21.476562 C 0.476562 33.085938 9.890625 42.5 21.5 42.5 C 33.109375 42.5 42.523438 33.085938 42.523438 21.476562 C 42.523438 9.867188 33.109375 0.453125 21.5 0.453125 Z M 21.5 0.453125 " clip-rule="nonzero"/></clipPath><clipPath id="de956179e1"><rect x="0" width="43" y="0" height="43"/></clipPath><clipPath id="b2291c31e9"><path d="M 101.988281 295.453125 L 144.035156 295.453125 L 144.035156 337.5 L 101.988281 337.5 Z M 101.988281 295.453125 " clip-rule="nonzero"/></clipPath><clipPath id="14c9822f88"><path d="M 123.011719 295.453125 C 111.402344 295.453125 101.988281 304.867188 101.988281 316.476562 C 101.988281 328.085938 111.402344 337.5 123.011719 337.5 C 134.621094 337.5 144.035156 328.085938 144.035156 316.476562 C 144.035156 304.867188 134.621094 295.453125 123.011719 295.453125 Z M 123.011719 295.453125 " clip-rule="nonzero"/></clipPath><clipPath id="e971807c62"><path d="M 0.988281 0.453125 L 43.035156 0.453125 L 43.035156 42.5 L 0.988281 42.5 Z M 0.988281 0.453125 " clip-rule="nonzero"/></clipPath><clipPath id="0590943bae"><path d="M 22.011719 0.453125 C 10.402344 0.453125 0.988281 9.867188 0.988281 21.476562 C 0.988281 33.085938 10.402344 42.5 22.011719 42.5 C 33.621094 42.5 43.035156 33.085938 43.035156 21.476562 C 43.035156 9.867188 33.621094 0.453125 22.011719 0.453125 Z M 22.011719 0.453125 " clip-rule="nonzero"/></clipPath><clipPath id="23e03522a2"><rect x="0" width="44" y="0" height="43"/></clipPath><clipPath id="eceee1258b"><path d="M 37.5 166.476562 L 79.546875 166.476562 L 79.546875 208.523438 L 37.5 208.523438 Z M 37.5 166.476562 " clip-rule="nonzero"/></clipPath><clipPath id="30b3b75b47"><path d="M 58.523438 166.476562 C 46.914062 166.476562 37.5 175.890625 37.5 187.5 C 37.5 199.109375 46.914062 208.523438 58.523438 208.523438 C 70.132812 208.523438 79.546875 199.109375 79.546875 187.5 C 79.546875 175.890625 70.132812 166.476562 58.523438 166.476562 Z M 58.523438 166.476562 " clip-rule="nonzero"/></clipPath><clipPath id="5378fe4a73"><path d="M 0.5 0.476562 L 42.546875 0.476562 L 42.546875 42.523438 L 0.5 42.523438 Z M 0.5 0.476562 " clip-rule="nonzero"/></clipPath><clipPath id="c8bc619ed7"><path d="M 21.523438 0.476562 C 9.914062 0.476562 0.5 9.890625 0.5 21.5 C 0.5 33.109375 9.914062 42.523438 21.523438 42.523438 C 33.132812 42.523438 42.546875 33.109375 42.546875 21.5 C 42.546875 9.890625 33.132812 0.476562 21.523438 0.476562 Z M 21.523438 0.476562 " clip-rule="nonzero"/></clipPath><clipPath id="21b61b2e5c"><rect x="0" width="43" y="0" height="43"/></clipPath><clipPath id="1d95ecb900"><path d="M 295.453125 166.476562 L 337.5 166.476562 L 337.5 208.523438 L 295.453125 208.523438 Z M 295.453125 166.476562 " clip-rule="nonzero"/></clipPath><clipPath id="af0bd61347"><path d="M 316.476562 166.476562 C 304.867188 166.476562 295.453125 175.890625 295.453125 187.5 C 295.453125 199.109375 304.867188 208.523438 316.476562 208.523438 C 328.085938 208.523438 337.5 199.109375 337.5 187.5 C 337.5 175.890625 328.085938 166.476562 316.476562 166.476562 Z M 316.476562 166.476562 " clip-rule="nonzero"/></clipPath><clipPath id="a9f5975d07"><path d="M 0.453125 0.476562 L 42.5 0.476562 L 42.5 42.523438 L 0.453125 42.523438 Z M 0.453125 0.476562 " clip-rule="nonzero"/></clipPath><clipPath id="ce260add7e"><path d="M 21.476562 0.476562 C 9.867188 0.476562 0.453125 9.890625 0.453125 21.5 C 0.453125 33.109375 9.867188 42.523438 21.476562 42.523438 C 33.085938 42.523438 42.5 33.109375 42.5 21.5 C 42.5 9.890625 33.085938 0.476562 21.476562 0.476562 Z M 21.476562 0.476562 " clip-rule="nonzero"/></clipPath><clipPath id="e626dcbe50"><rect x="0" width="43" y="0" height="43"/></clipPath><clipPath id="379499e647"><path d="M 231.023438 166.476562 L 273.070312 166.476562 L 273.070312 208.523438 L 231.023438 208.523438 Z M 231.023438 166.476562 " clip-rule="nonzero"/></clipPath><clipPath id="6889b9fab6"><path d="M 252.046875 166.476562 C 240.433594 166.476562 231.023438 175.890625 231.023438 187.5 C 231.023438 199.109375 240.433594 208.523438 252.046875 208.523438 C 263.65625 208.523438 273.070312 199.109375 273.070312 187.5 C 273.070312 175.890625 263.65625 166.476562 252.046875 166.476562 Z M 252.046875 166.476562 " clip-rule="nonzero"/></clipPath><clipPath id="1372a84f06"><path d="M 0.0234375 0.476562 L 42.070312 0.476562 L 42.070312 42.523438 L 0.0234375 42.523438 Z M 0.0234375 0.476562 " clip-rule="nonzero"/></clipPath><clipPath id="d6b8e5fdc6"><path d="M 21.046875 0.476562 C 9.433594 0.476562 0.0234375 9.890625 0.0234375 21.5 C 0.0234375 33.109375 9.433594 42.523438 21.046875 42.523438 C 32.65625 42.523438 42.070312 33.109375 42.070312 21.5 C 42.070312 9.890625 32.65625 0.476562 21.046875 0.476562 Z M 21.046875 0.476562 " clip-rule="nonzero"/></clipPath><clipPath id="0b985d73a5"><rect x="0" width="43" y="0" height="43"/></clipPath><clipPath id="0a0284154e"><path d="M 166.476562 166.476562 L 208.523438 166.476562 L 208.523438 208.523438 L 166.476562 208.523438 Z M 166.476562 166.476562 " clip-rule="nonzero"/></clipPath><clipPath id="e93cb7ee69"><path d="M 187.5 166.476562 C 175.890625 166.476562 166.476562 175.890625 166.476562 187.5 C 166.476562 199.109375 175.890625 208.523438 187.5 208.523438 C 199.109375 208.523438 208.523438 199.109375 208.523438 187.5 C 208.523438 175.890625 199.109375 166.476562 187.5 166.476562 Z M 187.5 166.476562 " clip-rule="nonzero"/></clipPath><clipPath id="f1bafcbc24"><path d="M 0.476562 0.476562 L 42.523438 0.476562 L 42.523438 42.523438 L 0.476562 42.523438 Z M 0.476562 0.476562 " clip-rule="nonzero"/></clipPath><clipPath id="c677a18184"><path d="M 21.5 0.476562 C 9.890625 0.476562 0.476562 9.890625 0.476562 21.5 C 0.476562 33.109375 9.890625 42.523438 21.5 42.523438 C 33.109375 42.523438 42.523438 33.109375 42.523438 21.5 C 42.523438 9.890625 33.109375 0.476562 21.5 0.476562 Z M 21.5 0.476562 " clip-rule="nonzero"/></clipPath><clipPath id="b9fa4a640c"><rect x="0" width="43" y="0" height="43"/></clipPath><clipPath id="f94571012c"><path d="M 101.988281 166.476562 L 144.035156 166.476562 L 144.035156 208.523438 L 101.988281 208.523438 Z M 101.988281 166.476562 " clip-rule="nonzero"/></clipPath><clipPath id="8669f1c27a"><path d="M 123.011719 166.476562 C 111.402344 166.476562 101.988281 175.890625 101.988281 187.5 C 101.988281 199.109375 111.402344 208.523438 123.011719 208.523438 C 134.621094 208.523438 144.035156 199.109375 144.035156 187.5 C 144.035156 175.890625 134.621094 166.476562 123.011719 166.476562 Z M 123.011719 166.476562 " clip-rule="nonzero"/></clipPath><clipPath id="a9ed432343"><path d="M 0.988281 0.476562 L 43.035156 0.476562 L 43.035156 42.523438 L 0.988281 42.523438 Z M 0.988281 0.476562 " clip-rule="nonzero"/></clipPath><clipPath id="088f2f3dbe"><path d="M 22.011719 0.476562 C 10.402344 0.476562 0.988281 9.890625 0.988281 21.5 C 0.988281 33.109375 10.402344 42.523438 22.011719 42.523438 C 33.621094 42.523438 43.035156 33.109375 43.035156 21.5 C 43.035156 9.890625 33.621094 0.476562 22.011719 0.476562 Z M 22.011719 0.476562 " clip-rule="nonzero"/></clipPath><clipPath id="9336998949"><rect x="0" width="44" y="0" height="43"/></clipPath><clipPath id="c0efee5234"><path d="M 37.5 101.988281 L 79.546875 101.988281 L 79.546875 144.035156 L 37.5 144.035156 Z M 37.5 101.988281 " clip-rule="nonzero"/></clipPath><clipPath id="b6cf9d749a"><path d="M 58.523438 101.988281 C 46.914062 101.988281 37.5 111.402344 37.5 123.011719 C 37.5 134.621094 46.914062 144.035156 58.523438 144.035156 C 70.132812 144.035156 79.546875 134.621094 79.546875 123.011719 C 79.546875 111.402344 70.132812 101.988281 58.523438 101.988281 Z M 58.523438 101.988281 " clip-rule="nonzero"/></clipPath><clipPath id="60d3633d53"><path d="M 0.5 0.988281 L 42.546875 0.988281 L 42.546875 43.035156 L 0.5 43.035156 Z M 0.5 0.988281 " clip-rule="nonzero"/></clipPath><clipPath id="21f1a8322a"><path d="M 21.523438 0.988281 C 9.914062 0.988281 0.5 10.402344 0.5 22.011719 C 0.5 33.621094 9.914062 43.035156 21.523438 43.035156 C 33.132812 43.035156 42.546875 33.621094 42.546875 22.011719 C 42.546875 10.402344 33.132812 0.988281 21.523438 0.988281 Z M 21.523438 0.988281 " clip-rule="nonzero"/></clipPath><clipPath id="f93ada8187"><rect x="0" width="43" y="0" height="44"/></clipPath><clipPath id="3c3d3bcbf8"><path d="M 295.453125 101.988281 L 337.5 101.988281 L 337.5 144.035156 L 295.453125 144.035156 Z M 295.453125 101.988281 " clip-rule="nonzero"/></clipPath><clipPath id="3fba722ae5"><path d="M 316.476562 101.988281 C 304.867188 101.988281 295.453125 111.402344 295.453125 123.011719 C 295.453125 134.621094 304.867188 144.035156 316.476562 144.035156 C 328.085938 144.035156 337.5 134.621094 337.5 123.011719 C 337.5 111.402344 328.085938 101.988281 316.476562 101.988281 Z M 316.476562 101.988281 " clip-rule="nonzero"/></clipPath><clipPath id="293de16fcd"><path d="M 0.453125 0.988281 L 42.5 0.988281 L 42.5 43.035156 L 0.453125 43.035156 Z M 0.453125 0.988281 " clip-rule="nonzero"/></clipPath><clipPath id="0b7e45faa5"><path d="M 21.476562 0.988281 C 9.867188 0.988281 0.453125 10.402344 0.453125 22.011719 C 0.453125 33.621094 9.867188 43.035156 21.476562 43.035156 C 33.085938 43.035156 42.5 33.621094 42.5 22.011719 C 42.5 10.402344 33.085938 0.988281 21.476562 0.988281 Z M 21.476562 0.988281 " clip-rule="nonzero"/></clipPath><clipPath id="a8d4a1ae38"><rect x="0" width="43" y="0" height="44"/></clipPath><clipPath id="5035fed8fd"><path d="M 231.023438 101.988281 L 273.070312 101.988281 L 273.070312 144.035156 L 231.023438 144.035156 Z M 231.023438 101.988281 " clip-rule="nonzero"/></clipPath><clipPath id="8885e9b8c9"><path d="M 252.046875 101.988281 C 240.433594 101.988281 231.023438 111.402344 231.023438 123.011719 C 231.023438 134.621094 240.433594 144.035156 252.046875 144.035156 C 263.65625 144.035156 273.070312 134.621094 273.070312 123.011719 C 273.070312 111.402344 263.65625 101.988281 252.046875 101.988281 Z M 252.046875 101.988281 " clip-rule="nonzero"/></clipPath><clipPath id="2d8fdd0904"><path d="M 0.0234375 0.988281 L 42.070312 0.988281 L 42.070312 43.035156 L 0.0234375 43.035156 Z M 0.0234375 0.988281 " clip-rule="nonzero"/></clipPath><clipPath id="76932dae10"><path d="M 21.046875 0.988281 C 9.433594 0.988281 0.0234375 10.402344 0.0234375 22.011719 C 0.0234375 33.621094 9.433594 43.035156 21.046875 43.035156 C 32.65625 43.035156 42.070312 33.621094 42.070312 22.011719 C 42.070312 10.402344 32.65625 0.988281 21.046875 0.988281 Z M 21.046875 0.988281 " clip-rule="nonzero"/></clipPath><clipPath id="a05b158762"><rect x="0" width="43" y="0" height="44"/></clipPath><clipPath id="60eee6639b"><path d="M 166.476562 101.988281 L 208.523438 101.988281 L 208.523438 144.035156 L 166.476562 144.035156 Z M 166.476562 101.988281 " clip-rule="nonzero"/></clipPath><clipPath id="4ef5e6e642"><path d="M 187.5 101.988281 C 175.890625 101.988281 166.476562 111.402344 166.476562 123.011719 C 166.476562 134.621094 175.890625 144.035156 187.5 144.035156 C 199.109375 144.035156 208.523438 134.621094 208.523438 123.011719 C 208.523438 111.402344 199.109375 101.988281 187.5 101.988281 Z M 187.5 101.988281 " clip-rule="nonzero"/></clipPath><clipPath id="2bed0aef2b"><path d="M 0.476562 0.988281 L 42.523438 0.988281 L 42.523438 43.035156 L 0.476562 43.035156 Z M 0.476562 0.988281 " clip-rule="nonzero"/></clipPath><clipPath id="0ede3323c9"><path d="M 21.5 0.988281 C 9.890625 0.988281 0.476562 10.402344 0.476562 22.011719 C 0.476562 33.621094 9.890625 43.035156 21.5 43.035156 C 33.109375 43.035156 42.523438 33.621094 42.523438 22.011719 C 42.523438 10.402344 33.109375 0.988281 21.5 0.988281 Z M 21.5 0.988281 " clip-rule="nonzero"/></clipPath><clipPath id="4d3028352e"><rect x="0" width="43" y="0" height="44"/></clipPath><clipPath id="fd2232aeb9"><path d="M 101.988281 101.988281 L 144.035156 101.988281 L 144.035156 144.035156 L 101.988281 144.035156 Z M 101.988281 101.988281 " clip-rule="nonzero"/></clipPath><clipPath id="9c3bedee7a"><path d="M 123.011719 101.988281 C 111.402344 101.988281 101.988281 111.402344 101.988281 123.011719 C 101.988281 134.621094 111.402344 144.035156 123.011719 144.035156 C 134.621094 144.035156 144.035156 134.621094 144.035156 123.011719 C 144.035156 111.402344 134.621094 101.988281 123.011719 101.988281 Z M 123.011719 101.988281 " clip-rule="nonzero"/></clipPath><clipPath id="15a719ae44"><path d="M 0.988281 0.988281 L 43.035156 0.988281 L 43.035156 43.035156 L 0.988281 43.035156 Z M 0.988281 0.988281 " clip-rule="nonzero"/></clipPath><clipPath id="bb951fc523"><path d="M 22.011719 0.988281 C 10.402344 0.988281 0.988281 10.402344 0.988281 22.011719 C 0.988281 33.621094 10.402344 43.035156 22.011719 43.035156 C 33.621094 43.035156 43.035156 33.621094 43.035156 22.011719 C 43.035156 10.402344 33.621094 0.988281 22.011719 0.988281 Z M 22.011719 0.988281 " clip-rule="nonzero"/></clipPath><clipPath id="46f3071508"><rect x="0" width="44" y="0" height="44"/></clipPath><clipPath id="10968c56b4"><path d="M 37.5 231.023438 L 79.546875 231.023438 L 79.546875 273.070312 L 37.5 273.070312 Z M 37.5 231.023438 " clip-rule="nonzero"/></clipPath><clipPath id="f6e0f48265"><path d="M 58.523438 231.023438 C 46.914062 231.023438 37.5 240.433594 37.5 252.046875 C 37.5 263.65625 46.914062 273.070312 58.523438 273.070312 C 70.132812 273.070312 79.546875 263.65625 79.546875 252.046875 C 79.546875 240.433594 70.132812 231.023438 58.523438 231.023438 Z M 58.523438 231.023438 " clip-rule="nonzero"/></clipPath><clipPath id="50714ea303"><path d="M 0.5 0.0234375 L 42.546875 0.0234375 L 42.546875 42.070312 L 0.5 42.070312 Z M 0.5 0.0234375 " clip-rule="nonzero"/></clipPath><clipPath id="cc716c8c0c"><path d="M 21.523438 0.0234375 C 9.914062 0.0234375 0.5 9.433594 0.5 21.046875 C 0.5 32.65625 9.914062 42.070312 21.523438 42.070312 C 33.132812 42.070312 42.546875 32.65625 42.546875 21.046875 C 42.546875 9.433594 33.132812 0.0234375 21.523438 0.0234375 Z M 21.523438 0.0234375 " clip-rule="nonzero"/></clipPath><clipPath id="72f7e47571"><rect x="0" width="43" y="0" height="43"/></clipPath><clipPath id="b6e3fae7d1"><path d="M 295.453125 231.023438 L 337.5 231.023438 L 337.5 273.070312 L 295.453125 273.070312 Z M 295.453125 231.023438 " clip-rule="nonzero"/></clipPath><clipPath id="f626abf503"><path d="M 316.476562 231.023438 C 304.867188 231.023438 295.453125 240.433594 295.453125 252.046875 C 295.453125 263.65625 304.867188 273.070312 316.476562 273.070312 C 328.085938 273.070312 337.5 263.65625 337.5 252.046875 C 337.5 240.433594 328.085938 231.023438 316.476562 231.023438 Z M 316.476562 231.023438 " clip-rule="nonzero"/></clipPath><clipPath id="b4f3cbee93"><path d="M 0.453125 0.0234375 L 42.5 0.0234375 L 42.5 42.070312 L 0.453125 42.070312 Z M 0.453125 0.0234375 " clip-rule="nonzero"/></clipPath><clipPath id="bfdba4bf76"><path d="M 21.476562 0.0234375 C 9.867188 0.0234375 0.453125 9.433594 0.453125 21.046875 C 0.453125 32.65625 9.867188 42.070312 21.476562 42.070312 C 33.085938 42.070312 42.5 32.65625 42.5 21.046875 C 42.5 9.433594 33.085938 0.0234375 21.476562 0.0234375 Z M 21.476562 0.0234375 " clip-rule="nonzero"/></clipPath><clipPath id="e513407430"><rect x="0" width="43" y="0" height="43"/></clipPath><clipPath id="2dc899fc70"><path d="M 231.023438 231.023438 L 273.070312 231.023438 L 273.070312 273.070312 L 231.023438 273.070312 Z M 231.023438 231.023438 " clip-rule="nonzero"/></clipPath><clipPath id="5f4e17e249"><path d="M 252.046875 231.023438 C 240.433594 231.023438 231.023438 240.433594 231.023438 252.046875 C 231.023438 263.65625 240.433594 273.070312 252.046875 273.070312 C 263.65625 273.070312 273.070312 263.65625 273.070312 252.046875 C 273.070312 240.433594 263.65625 231.023438 252.046875 231.023438 Z M 252.046875 231.023438 " clip-rule="nonzero"/></clipPath><clipPath id="b458015b66"><path d="M 0.0234375 0.0234375 L 42.070312 0.0234375 L 42.070312 42.070312 L 0.0234375 42.070312 Z M 0.0234375 0.0234375 " clip-rule="nonzero"/></clipPath><clipPath id="5a79d9d069"><path d="M 21.046875 0.0234375 C 9.433594 0.0234375 0.0234375 9.433594 0.0234375 21.046875 C 0.0234375 32.65625 9.433594 42.070312 21.046875 42.070312 C 32.65625 42.070312 42.070312 32.65625 42.070312 21.046875 C 42.070312 9.433594 32.65625 0.0234375 21.046875 0.0234375 Z M 21.046875 0.0234375 " clip-rule="nonzero"/></clipPath><clipPath id="c8bd1f9fed"><rect x="0" width="43" y="0" height="43"/></clipPath><clipPath id="259c7cb53d"><path d="M 166.476562 231.023438 L 208.523438 231.023438 L 208.523438 273.070312 L 166.476562 273.070312 Z M 166.476562 231.023438 " clip-rule="nonzero"/></clipPath><clipPath id="c2c233b73b"><path d="M 187.5 231.023438 C 175.890625 231.023438 166.476562 240.433594 166.476562 252.046875 C 166.476562 263.65625 175.890625 273.070312 187.5 273.070312 C 199.109375 273.070312 208.523438 263.65625 208.523438 252.046875 C 208.523438 240.433594 199.109375 231.023438 187.5 231.023438 Z M 187.5 231.023438 " clip-rule="nonzero"/></clipPath><clipPath id="e83d10448b"><path d="M 0.476562 0.0234375 L 42.523438 0.0234375 L 42.523438 42.070312 L 0.476562 42.070312 Z M 0.476562 0.0234375 " clip-rule="nonzero"/></clipPath><clipPath id="a8197e1648"><path d="M 21.5 0.0234375 C 9.890625 0.0234375 0.476562 9.433594 0.476562 21.046875 C 0.476562 32.65625 9.890625 42.070312 21.5 42.070312 C 33.109375 42.070312 42.523438 32.65625 42.523438 21.046875 C 42.523438 9.433594 33.109375 0.0234375 21.5 0.0234375 Z M 21.5 0.0234375 " clip-rule="nonzero"/></clipPath><clipPath id="f3873034eb"><rect x="0" width="43" y="0" height="43"/></clipPath><clipPath id="1fe539aef9"><path d="M 101.988281 231.023438 L 144.035156 231.023438 L 144.035156 273.070312 L 101.988281 273.070312 Z M 101.988281 231.023438 " clip-rule="nonzero"/></clipPath><clipPath id="65955cf629"><path d="M 123.011719 231.023438 C 111.402344 231.023438 101.988281 240.433594 101.988281 252.046875 C 101.988281 263.65625 111.402344 273.070312 123.011719 273.070312 C 134.621094 273.070312 144.035156 263.65625 144.035156 252.046875 C 144.035156 240.433594 134.621094 231.023438 123.011719 231.023438 Z M 123.011719 231.023438 " clip-rule="nonzero"/></clipPath><clipPath id="f619ba187a"><path d="M 0.988281 0.0234375 L 43.035156 0.0234375 L 43.035156 42.070312 L 0.988281 42.070312 Z M 0.988281 0.0234375 " clip-rule="nonzero"/></clipPath><clipPath id="034f20ec25"><path d="M 22.011719 0.0234375 C 10.402344 0.0234375 0.988281 9.433594 0.988281 21.046875 C 0.988281 32.65625 10.402344 42.070312 22.011719 42.070312 C 33.621094 42.070312 43.035156 32.65625 43.035156 21.046875 C 43.035156 9.433594 33.621094 0.0234375 22.011719 0.0234375 Z M 22.011719 0.0234375 " clip-rule="nonzero"/></clipPath><clipPath id="feeae07c26"><rect x="0" width="44" y="0" height="43"/></clipPath></defs><g clip-path="url(#b7cc87f822)"><g clip-path="url(#02f29cc173)"><g transform="matrix(1, 0, 0, 1, 37, 37)"><g clip-path="url(#f6056f87f8)"><g clip-path="url(#fdd6ff0044)"><g clip-path="url(#da0d7cbfb8)"><path fill="#8a05ff" d="M 0.5 0.5 L 42.546875 0.5 L 42.546875 42.546875 L 0.5 42.546875 Z M 0.5 0.5 " fill-opacity="1" fill-rule="nonzero"/></g></g></g></g></g></g><g clip-path="url(#c75d7dd7db)"><g clip-path="url(#fdfe52f31f)"><g transform="matrix(1, 0, 0, 1, 295, 37)"><g clip-path="url(#6cba1efe5e)"><g clip-path="url(#7396604ff1)"><g clip-path="url(#68722f628d)"><path fill="#8a05ff" d="M 0.453125 0.5 L 42.5 0.5 L 42.5 42.546875 L 0.453125 42.546875 Z M 0.453125 0.5 " fill-opacity="1" fill-rule="nonzero"/></g></g></g></g></g></g><g clip-path="url(#118b6ec4f4)"><g clip-path="url(#179e38db9d)"><g transform="matrix(1, 0, 0, 1, 231, 37)"><g clip-path="url(#c12edaf588)"><g clip-path="url(#b4bcb1cd19)"><g clip-path="url(#830bb03165)"><path fill="#000000" d="M 0.0234375 0.5 L 42.070312 0.5 L 42.070312 42.546875 L 0.0234375 42.546875 Z M 0.0234375 0.5 " fill-opacity="1" fill-rule="nonzero"/></g></g></g></g></g></g><g clip-path="url(#856607cf2e)"><g clip-path="url(#7c5241857f)"><g transform="matrix(1, 0, 0, 1, 166, 37)"><g clip-path="url(#4a8f5d9f21)"><g clip-path="url(#4b25b740ee)"><g clip-path="url(#f55516808a)"><path fill="#8a05ff" d="M 0.476562 0.5 L 42.523438 0.5 L 42.523438 42.546875 L 0.476562 42.546875 Z M 0.476562 0.5 " fill-opacity="1" fill-rule="nonzero"/></g></g></g></g></g></g><g clip-path="url(#ba460a7b41)"><g clip-path="url(#b737ef1471)"><g transform="matrix(1, 0, 0, 1, 101, 37)"><g clip-path="url(#95c10ba6c9)"><g clip-path="url(#ec543668f6)"><g clip-path="url(#4775b580ec)"><path fill="#8a05ff" d="M 0.988281 0.5 L 43.035156 0.5 L 43.035156 42.546875 L 0.988281 42.546875 Z M 0.988281 0.5 " fill-opacity="1" fill-rule="nonzero"/></g></g></g></g></g></g><g clip-path="url(#ed54e9bbd6)"><g clip-path="url(#9eb461f416)"><g transform="matrix(1, 0, 0, 1, 37, 295)"><g clip-path="url(#e9993367c6)"><g clip-path="url(#e988639d2c)"><g clip-path="url(#8068fa6f18)"><path fill="#8a05ff" d="M 0.5 0.453125 L 42.546875 0.453125 L 42.546875 42.5 L 0.5 42.5 Z M 0.5 0.453125 " fill-opacity="1" fill-rule="nonzero"/></g></g></g></g></g></g><g clip-path="url(#5bd8928b0b)"><g clip-path="url(#c57d784dae)"><g transform="matrix(1, 0, 0, 1, 295, 295)"><g clip-path="url(#d0fc33771a)"><g clip-path="url(#91f82d8975)"><g clip-path="url(#a31ecbf1a3)"><path fill="#8a05ff" d="M 0.453125 0.453125 L 42.5 0.453125 L 42.5 42.5 L 0.453125 42.5 Z M 0.453125 0.453125 " fill-opacity="1" fill-rule="nonzero"/></g></g></g></g></g></g><g clip-path="url(#ccffa9a12c)"><g clip-path="url(#209bd04073)"><g transform="matrix(1, 0, 0, 1, 231, 295)"><g clip-path="url(#2697243ef0)"><g clip-path="url(#bd1d954bd2)"><g clip-path="url(#dc07e98815)"><path fill="#8a05ff" d="M 0.0234375 0.453125 L 42.070312 0.453125 L 42.070312 42.5 L 0.0234375 42.5 Z M 0.0234375 0.453125 " fill-opacity="1" fill-rule="nonzero"/></g></g></g></g></g></g><g clip-path="url(#33dfe5d5b3)"><g clip-path="url(#868593ef85)"><g transform="matrix(1, 0, 0, 1, 166, 295)"><g clip-path="url(#de956179e1)"><g clip-path="url(#5029c02cc2)"><g clip-path="url(#95cfa696e7)"><path fill="#000000" d="M 0.476562 0.453125 L 42.523438 0.453125 L 42.523438 42.5 L 0.476562 42.5 Z M 0.476562 0.453125 " fill-opacity="1" fill-rule="nonzero"/></g></g></g></g></g></g><g clip-path="url(#b2291c31e9)"><g clip-path="url(#14c9822f88)"><g transform="matrix(1, 0, 0, 1, 101, 295)"><g clip-path="url(#23e03522a2)"><g clip-path="url(#e971807c62)"><g clip-path="url(#0590943bae)"><path fill="#8a05ff" d="M 0.988281 0.453125 L 43.035156 0.453125 L 43.035156 42.5 L 0.988281 42.5 Z M 0.988281 0.453125 " fill-opacity="1" fill-rule="nonzero"/></g></g></g></g></g></g><g clip-path="url(#eceee1258b)"><g clip-path="url(#30b3b75b47)"><g transform="matrix(1, 0, 0, 1, 37, 166)"><g clip-path="url(#21b61b2e5c)"><g clip-path="url(#5378fe4a73)"><g clip-path="url(#c8bc619ed7)"><path fill="#8a05ff" d="M 0.5 0.476562 L 42.546875 0.476562 L 42.546875 42.523438 L 0.5 42.523438 Z M 0.5 0.476562 " fill-opacity="1" fill-rule="nonzero"/></g></g></g></g></g></g><g clip-path="url(#1d95ecb900)"><g clip-path="url(#af0bd61347)"><g transform="matrix(1, 0, 0, 1, 295, 166)"><g clip-path="url(#e626dcbe50)"><g clip-path="url(#a9f5975d07)"><g clip-path="url(#ce260add7e)"><path fill="#8a05ff" d="M 0.453125 0.476562 L 42.5 0.476562 L 42.5 42.523438 L 0.453125 42.523438 Z M 0.453125 0.476562 " fill-opacity="1" fill-rule="nonzero"/></g></g></g></g></g></g><g clip-path="url(#379499e647)"><g clip-path="url(#6889b9fab6)"><g transform="matrix(1, 0, 0, 1, 231, 166)"><g clip-path="url(#0b985d73a5)"><g clip-path="url(#1372a84f06)"><g clip-path="url(#d6b8e5fdc6)"><path fill="#8a05ff" d="M 0.0234375 0.476562 L 42.070312 0.476562 L 42.070312 42.523438 L 0.0234375 42.523438 Z M 0.0234375 0.476562 " fill-opacity="1" fill-rule="nonzero"/></g></g></g></g></g></g><g clip-path="url(#0a0284154e)"><g clip-path="url(#e93cb7ee69)"><g transform="matrix(1, 0, 0, 1, 166, 166)"><g clip-path="url(#b9fa4a640c)"><g clip-path="url(#f1bafcbc24)"><g clip-path="url(#c677a18184)"><path fill="#8a05ff" d="M 0.476562 0.476562 L 42.523438 0.476562 L 42.523438 42.523438 L 0.476562 42.523438 Z M 0.476562 0.476562 " fill-opacity="1" fill-rule="nonzero"/></g></g></g></g></g></g><g clip-path="url(#f94571012c)"><g clip-path="url(#8669f1c27a)"><g transform="matrix(1, 0, 0, 1, 101, 166)"><g clip-path="url(#9336998949)"><g clip-path="url(#a9ed432343)"><g clip-path="url(#088f2f3dbe)"><path fill="#8a05ff" d="M 0.988281 0.476562 L 43.035156 0.476562 L 43.035156 42.523438 L 0.988281 42.523438 Z M 0.988281 0.476562 " fill-opacity="1" fill-rule="nonzero"/></g></g></g></g></g></g><g clip-path="url(#c0efee5234)"><g clip-path="url(#b6cf9d749a)"><g transform="matrix(1, 0, 0, 1, 37, 101)"><g clip-path="url(#f93ada8187)"><g clip-path="url(#60d3633d53)"><g clip-path="url(#21f1a8322a)"><path fill="#000000" d="M 0.5 0.988281 L 42.546875 0.988281 L 42.546875 43.035156 L 0.5 43.035156 Z M 0.5 0.988281 " fill-opacity="1" fill-rule="nonzero"/></g></g></g></g></g></g><g clip-path="url(#3c3d3bcbf8)"><g clip-path="url(#3fba722ae5)"><g transform="matrix(1, 0, 0, 1, 295, 101)"><g clip-path="url(#a8d4a1ae38)"><g clip-path="url(#293de16fcd)"><g clip-path="url(#0b7e45faa5)"><path fill="#000000" d="M 0.453125 0.988281 L 42.5 0.988281 L 42.5 43.035156 L 0.453125 43.035156 Z M 0.453125 0.988281 " fill-opacity="1" fill-rule="nonzero"/></g></g></g></g></g></g><g clip-path="url(#5035fed8fd)"><g clip-path="url(#8885e9b8c9)"><g transform="matrix(1, 0, 0, 1, 231, 101)"><g clip-path="url(#a05b158762)"><g clip-path="url(#2d8fdd0904)"><g clip-path="url(#76932dae10)"><path fill="#000000" d="M 0.0234375 0.988281 L 42.070312 0.988281 L 42.070312 43.035156 L 0.0234375 43.035156 Z M 0.0234375 0.988281 " fill-opacity="1" fill-rule="nonzero"/></g></g></g></g></g></g><g clip-path="url(#60eee6639b)"><g clip-path="url(#4ef5e6e642)"><g transform="matrix(1, 0, 0, 1, 166, 101)"><g clip-path="url(#4d3028352e)"><g clip-path="url(#2bed0aef2b)"><g clip-path="url(#0ede3323c9)"><path fill="#000000" d="M 0.476562 0.988281 L 42.523438 0.988281 L 42.523438 43.035156 L 0.476562 43.035156 Z M 0.476562 0.988281 " fill-opacity="1" fill-rule="nonzero"/></g></g></g></g></g></g><g clip-path="url(#fd2232aeb9)"><g clip-path="url(#9c3bedee7a)"><g transform="matrix(1, 0, 0, 1, 101, 101)"><g clip-path="url(#46f3071508)"><g clip-path="url(#15a719ae44)"><g clip-path="url(#bb951fc523)"><path fill="#000000" d="M 0.988281 0.988281 L 43.035156 0.988281 L 43.035156 43.035156 L 0.988281 43.035156 Z M 0.988281 0.988281 " fill-opacity="1" fill-rule="nonzero"/></g></g></g></g></g></g><g clip-path="url(#10968c56b4)"><g clip-path="url(#f6e0f48265)"><g transform="matrix(1, 0, 0, 1, 37, 231)"><g clip-path="url(#72f7e47571)"><g clip-path="url(#50714ea303)"><g clip-path="url(#cc716c8c0c)"><path fill="#000000" d="M 0.5 0.0234375 L 42.546875 0.0234375 L 42.546875 42.070312 L 0.5 42.070312 Z M 0.5 0.0234375 " fill-opacity="1" fill-rule="nonzero"/></g></g></g></g></g></g><g clip-path="url(#b6e3fae7d1)"><g clip-path="url(#f626abf503)"><g transform="matrix(1, 0, 0, 1, 295, 231)"><g clip-path="url(#e513407430)"><g clip-path="url(#b4f3cbee93)"><g clip-path="url(#bfdba4bf76)"><path fill="#000000" d="M 0.453125 0.0234375 L 42.5 0.0234375 L 42.5 42.070312 L 0.453125 42.070312 Z M 0.453125 0.0234375 " fill-opacity="1" fill-rule="nonzero"/></g></g></g></g></g></g><g clip-path="url(#2dc899fc70)"><g clip-path="url(#5f4e17e249)"><g transform="matrix(1, 0, 0, 1, 231, 231)"><g clip-path="url(#c8bd1f9fed)"><g clip-path="url(#b458015b66)"><g clip-path="url(#5a79d9d069)"><path fill="#000000" d="M 0.0234375 0.0234375 L 42.070312 0.0234375 L 42.070312 42.070312 L 0.0234375 42.070312 Z M 0.0234375 0.0234375 " fill-opacity="1" fill-rule="nonzero"/></g></g></g></g></g></g><g clip-path="url(#259c7cb53d)"><g clip-path="url(#c2c233b73b)"><g transform="matrix(1, 0, 0, 1, 166, 231)"><g clip-path="url(#f3873034eb)"><g clip-path="url(#e83d10448b)"><g clip-path="url(#a8197e1648)"><path fill="#000000" d="M 0.476562 0.0234375 L 42.523438 0.0234375 L 42.523438 42.070312 L 0.476562 42.070312 Z M 0.476562 0.0234375 " fill-opacity="1" fill-rule="nonzero"/></g></g></g></g></g></g><g clip-path="url(#1fe539aef9)"><g clip-path="url(#65955cf629)"><g transform="matrix(1, 0, 0, 1, 101, 231)"><g clip-path="url(#feeae07c26)"><g clip-path="url(#f619ba187a)"><g clip-path="url(#034f20ec25)"><path fill="#000000" d="M 0.988281 0.0234375 L 43.035156 0.0234375 L 43.035156 42.070312 L 0.988281 42.070312 Z M 0.988281 0.0234375 " fill-opacity="1" fill-rule="nonzero"/></g></g></g></g></g></g></svg>