<svg xmlns="http://www.w3.org/2000/svg" xmlns:xlink="http://www.w3.org/1999/xlink" width="500" zoomAndPan="magnify" viewBox="0 0 375 374.999991" height="500" preserveAspectRatio="xMidYMid meet" version="1.0"><defs><clipPath id="3b0390c568"><path d="M 37.5 37.5 L 79.546875 37.5 L 79.546875 79.546875 L 37.5 79.546875 Z M 37.5 37.5 " clip-rule="nonzero"/></clipPath><clipPath id="c3233e48ac"><path d="M 58.523438 37.5 C 46.914062 37.5 37.5 46.914062 37.5 58.523438 C 37.5 70.132812 46.914062 79.546875 58.523438 79.546875 C 70.132812 79.546875 79.546875 70.132812 79.546875 58.523438 C 79.546875 46.914062 70.132812 37.5 58.523438 37.5 Z M 58.523438 37.5 " clip-rule="nonzero"/></clipPath><clipPath id="21256cf3ad"><path d="M 0.5 0.5 L 42.546875 0.5 L 42.546875 42.546875 L 0.5 42.546875 Z M 0.5 0.5 " clip-rule="nonzero"/></clipPath><clipPath id="59e4454ad4"><path d="M 21.523438 0.5 C 9.914062 0.5 0.5 9.914062 0.5 21.523438 C 0.5 33.132812 9.914062 42.546875 21.523438 42.546875 C 33.132812 42.546875 42.546875 33.132812 42.546875 21.523438 C 42.546875 9.914062 33.132812 0.5 21.523438 0.5 Z M 21.523438 0.5 " clip-rule="nonzero"/></clipPath><clipPath id="2586109bd4"><rect x="0" width="43" y="0" height="43"/></clipPath><clipPath id="b66da7f05c"><path d="M 295.453125 37.5 L 337.5 37.5 L 337.5 79.546875 L 295.453125 79.546875 Z M 295.453125 37.5 " clip-rule="nonzero"/></clipPath><clipPath id="35646a2aea"><path d="M 316.476562 37.5 C 304.867188 37.5 295.453125 46.914062 295.453125 58.523438 C 295.453125 70.132812 304.867188 79.546875 316.476562 79.546875 C 328.085938 79.546875 337.5 70.132812 337.5 58.523438 C 337.5 46.914062 328.085938 37.5 316.476562 37.5 Z M 316.476562 37.5 " clip-rule="nonzero"/></clipPath><clipPath id="79af10859d"><path d="M 0.453125 0.5 L 42.5 0.5 L 42.5 42.546875 L 0.453125 42.546875 Z M 0.453125 0.5 " clip-rule="nonzero"/></clipPath><clipPath id="98b2615138"><path d="M 21.476562 0.5 C 9.867188 0.5 0.453125 9.914062 0.453125 21.523438 C 0.453125 33.132812 9.867188 42.546875 21.476562 42.546875 C 33.085938 42.546875 42.5 33.132812 42.5 21.523438 C 42.5 9.914062 33.085938 0.5 21.476562 0.5 Z M 21.476562 0.5 " clip-rule="nonzero"/></clipPath><clipPath id="0e48af8548"><rect x="0" width="43" y="0" height="43"/></clipPath><clipPath id="ee942a89da"><path d="M 231.023438 37.5 L 273.070312 37.5 L 273.070312 79.546875 L 231.023438 79.546875 Z M 231.023438 37.5 " clip-rule="nonzero"/></clipPath><clipPath id="58432e2f48"><path d="M 252.046875 37.5 C 240.433594 37.5 231.023438 46.914062 231.023438 58.523438 C 231.023438 70.132812 240.433594 79.546875 252.046875 79.546875 C 263.65625 79.546875 273.070312 70.132812 273.070312 58.523438 C 273.070312 46.914062 263.65625 37.5 252.046875 37.5 Z M 252.046875 37.5 " clip-rule="nonzero"/></clipPath><clipPath id="016d85b9a5"><path d="M 0.0234375 0.5 L 42.070312 0.5 L 42.070312 42.546875 L 0.0234375 42.546875 Z M 0.0234375 0.5 " clip-rule="nonzero"/></clipPath><clipPath id="c6ef9adaf4"><path d="M 21.046875 0.5 C 9.433594 0.5 0.0234375 9.914062 0.0234375 21.523438 C 0.0234375 33.132812 9.433594 42.546875 21.046875 42.546875 C 32.65625 42.546875 42.070312 33.132812 42.070312 21.523438 C 42.070312 9.914062 32.65625 0.5 21.046875 0.5 Z M 21.046875 0.5 " clip-rule="nonzero"/></clipPath><clipPath id="9a8d2cd2ef"><rect x="0" width="43" y="0" height="43"/></clipPath><clipPath id="30ca840f4a"><path d="M 166.476562 37.5 L 208.523438 37.5 L 208.523438 79.546875 L 166.476562 79.546875 Z M 166.476562 37.5 " clip-rule="nonzero"/></clipPath><clipPath id="0d910f3d7e"><path d="M 187.5 37.5 C 175.890625 37.5 166.476562 46.914062 166.476562 58.523438 C 166.476562 70.132812 175.890625 79.546875 187.5 79.546875 C 199.109375 79.546875 208.523438 70.132812 208.523438 58.523438 C 208.523438 46.914062 199.109375 37.5 187.5 37.5 Z M 187.5 37.5 " clip-rule="nonzero"/></clipPath><clipPath id="f9193f0aaf"><path d="M 0.476562 0.5 L 42.523438 0.5 L 42.523438 42.546875 L 0.476562 42.546875 Z M 0.476562 0.5 " clip-rule="nonzero"/></clipPath><clipPath id="ca442c0e69"><path d="M 21.5 0.5 C 9.890625 0.5 0.476562 9.914062 0.476562 21.523438 C 0.476562 33.132812 9.890625 42.546875 21.5 42.546875 C 33.109375 42.546875 42.523438 33.132812 42.523438 21.523438 C 42.523438 9.914062 33.109375 0.5 21.5 0.5 Z M 21.5 0.5 " clip-rule="nonzero"/></clipPath><clipPath id="14aa26e81f"><rect x="0" width="43" y="0" height="43"/></clipPath><clipPath id="b2d0cb6947"><path d="M 101.988281 37.5 L 144.035156 37.5 L 144.035156 79.546875 L 101.988281 79.546875 Z M 101.988281 37.5 " clip-rule="nonzero"/></clipPath><clipPath id="7d9a5a00c0"><path d="M 123.011719 37.5 C 111.402344 37.5 101.988281 46.914062 101.988281 58.523438 C 101.988281 70.132812 111.402344 79.546875 123.011719 79.546875 C 134.621094 79.546875 144.035156 70.132812 144.035156 58.523438 C 144.035156 46.914062 134.621094 37.5 123.011719 37.5 Z M 123.011719 37.5 " clip-rule="nonzero"/></clipPath><clipPath id="bdb4a64020"><path d="M 0.988281 0.5 L 43.035156 0.5 L 43.035156 42.546875 L 0.988281 42.546875 Z M 0.988281 0.5 " clip-rule="nonzero"/></clipPath><clipPath id="163343d0df"><path d="M 22.011719 0.5 C 10.402344 0.5 0.988281 9.914062 0.988281 21.523438 C 0.988281 33.132812 10.402344 42.546875 22.011719 42.546875 C 33.621094 42.546875 43.035156 33.132812 43.035156 21.523438 C 43.035156 9.914062 33.621094 0.5 22.011719 0.5 Z M 22.011719 0.5 " clip-rule="nonzero"/></clipPath><clipPath id="e224d4d96a"><rect x="0" width="44" y="0" height="43"/></clipPath><clipPath id="b3336ad867"><path d="M 37.5 295.453125 L 79.546875 295.453125 L 79.546875 337.5 L 37.5 337.5 Z M 37.5 295.453125 " clip-rule="nonzero"/></clipPath><clipPath id="a0e01bb86c"><path d="M 58.523438 295.453125 C 46.914062 295.453125 37.5 304.867188 37.5 316.476562 C 37.5 328.085938 46.914062 337.5 58.523438 337.5 C 70.132812 337.5 79.546875 328.085938 79.546875 316.476562 C 79.546875 304.867188 70.132812 295.453125 58.523438 295.453125 Z M 58.523438 295.453125 " clip-rule="nonzero"/></clipPath><clipPath id="ec52e10f8f"><path d="M 0.5 0.453125 L 42.546875 0.453125 L 42.546875 42.5 L 0.5 42.5 Z M 0.5 0.453125 " clip-rule="nonzero"/></clipPath><clipPath id="b16e47bd81"><path d="M 21.523438 0.453125 C 9.914062 0.453125 0.5 9.867188 0.5 21.476562 C 0.5 33.085938 9.914062 42.5 21.523438 42.5 C 33.132812 42.5 42.546875 33.085938 42.546875 21.476562 C 42.546875 9.867188 33.132812 0.453125 21.523438 0.453125 Z M 21.523438 0.453125 " clip-rule="nonzero"/></clipPath><clipPath id="1ea9496761"><rect x="0" width="43" y="0" height="43"/></clipPath><clipPath id="82745931a3"><path d="M 295.453125 295.453125 L 337.5 295.453125 L 337.5 337.5 L 295.453125 337.5 Z M 295.453125 295.453125 " clip-rule="nonzero"/></clipPath><clipPath id="c5f416702e"><path d="M 316.476562 295.453125 C 304.867188 295.453125 295.453125 304.867188 295.453125 316.476562 C 295.453125 328.085938 304.867188 337.5 316.476562 337.5 C 328.085938 337.5 337.5 328.085938 337.5 316.476562 C 337.5 304.867188 328.085938 295.453125 316.476562 295.453125 Z M 316.476562 295.453125 " clip-rule="nonzero"/></clipPath><clipPath id="3d9cea533c"><path d="M 0.453125 0.453125 L 42.5 0.453125 L 42.5 42.5 L 0.453125 42.5 Z M 0.453125 0.453125 " clip-rule="nonzero"/></clipPath><clipPath id="8075882d4f"><path d="M 21.476562 0.453125 C 9.867188 0.453125 0.453125 9.867188 0.453125 21.476562 C 0.453125 33.085938 9.867188 42.5 21.476562 42.5 C 33.085938 42.5 42.5 33.085938 42.5 21.476562 C 42.5 9.867188 33.085938 0.453125 21.476562 0.453125 Z M 21.476562 0.453125 " clip-rule="nonzero"/></clipPath><clipPath id="5f83fd8eda"><rect x="0" width="43" y="0" height="43"/></clipPath><clipPath id="88140c0584"><path d="M 231.023438 295.453125 L 273.070312 295.453125 L 273.070312 337.5 L 231.023438 337.5 Z M 231.023438 295.453125 " clip-rule="nonzero"/></clipPath><clipPath id="e70b2abaa2"><path d="M 252.046875 295.453125 C 240.433594 295.453125 231.023438 304.867188 231.023438 316.476562 C 231.023438 328.085938 240.433594 337.5 252.046875 337.5 C 263.65625 337.5 273.070312 328.085938 273.070312 316.476562 C 273.070312 304.867188 263.65625 295.453125 252.046875 295.453125 Z M 252.046875 295.453125 " clip-rule="nonzero"/></clipPath><clipPath id="14750dbd85"><path d="M 0.0234375 0.453125 L 42.070312 0.453125 L 42.070312 42.5 L 0.0234375 42.5 Z M 0.0234375 0.453125 " clip-rule="nonzero"/></clipPath><clipPath id="b4deccdbbd"><path d="M 21.046875 0.453125 C 9.433594 0.453125 0.0234375 9.867188 0.0234375 21.476562 C 0.0234375 33.085938 9.433594 42.5 21.046875 42.5 C 32.65625 42.5 42.070312 33.085938 42.070312 21.476562 C 42.070312 9.867188 32.65625 0.453125 21.046875 0.453125 Z M 21.046875 0.453125 " clip-rule="nonzero"/></clipPath><clipPath id="0a06939df9"><rect x="0" width="43" y="0" height="43"/></clipPath><clipPath id="8ddcf9a364"><path d="M 166.476562 295.453125 L 208.523438 295.453125 L 208.523438 337.5 L 166.476562 337.5 Z M 166.476562 295.453125 " clip-rule="nonzero"/></clipPath><clipPath id="8e5a3a2ef6"><path d="M 187.5 295.453125 C 175.890625 295.453125 166.476562 304.867188 166.476562 316.476562 C 166.476562 328.085938 175.890625 337.5 187.5 337.5 C 199.109375 337.5 208.523438 328.085938 208.523438 316.476562 C 208.523438 304.867188 199.109375 295.453125 187.5 295.453125 Z M 187.5 295.453125 " clip-rule="nonzero"/></clipPath><clipPath id="be6539bdcf"><path d="M 0.476562 0.453125 L 42.523438 0.453125 L 42.523438 42.5 L 0.476562 42.5 Z M 0.476562 0.453125 " clip-rule="nonzero"/></clipPath><clipPath id="f38e0825c1"><path d="M 21.5 0.453125 C 9.890625 0.453125 0.476562 9.867188 0.476562 21.476562 C 0.476562 33.085938 9.890625 42.5 21.5 42.5 C 33.109375 42.5 42.523438 33.085938 42.523438 21.476562 C 42.523438 9.867188 33.109375 0.453125 21.5 0.453125 Z M 21.5 0.453125 " clip-rule="nonzero"/></clipPath><clipPath id="70e643d898"><rect x="0" width="43" y="0" height="43"/></clipPath><clipPath id="c2799861d1"><path d="M 101.988281 295.453125 L 144.035156 295.453125 L 144.035156 337.5 L 101.988281 337.5 Z M 101.988281 295.453125 " clip-rule="nonzero"/></clipPath><clipPath id="ef66cf176c"><path d="M 123.011719 295.453125 C 111.402344 295.453125 101.988281 304.867188 101.988281 316.476562 C 101.988281 328.085938 111.402344 337.5 123.011719 337.5 C 134.621094 337.5 144.035156 328.085938 144.035156 316.476562 C 144.035156 304.867188 134.621094 295.453125 123.011719 295.453125 Z M 123.011719 295.453125 " clip-rule="nonzero"/></clipPath><clipPath id="7a6e1915b8"><path d="M 0.988281 0.453125 L 43.035156 0.453125 L 43.035156 42.5 L 0.988281 42.5 Z M 0.988281 0.453125 " clip-rule="nonzero"/></clipPath><clipPath id="4b6e5d5453"><path d="M 22.011719 0.453125 C 10.402344 0.453125 0.988281 9.867188 0.988281 21.476562 C 0.988281 33.085938 10.402344 42.5 22.011719 42.5 C 33.621094 42.5 43.035156 33.085938 43.035156 21.476562 C 43.035156 9.867188 33.621094 0.453125 22.011719 0.453125 Z M 22.011719 0.453125 " clip-rule="nonzero"/></clipPath><clipPath id="d51015c42c"><rect x="0" width="44" y="0" height="43"/></clipPath><clipPath id="88531867c7"><path d="M 37.5 166.476562 L 79.546875 166.476562 L 79.546875 208.523438 L 37.5 208.523438 Z M 37.5 166.476562 " clip-rule="nonzero"/></clipPath><clipPath id="b8053c8654"><path d="M 58.523438 166.476562 C 46.914062 166.476562 37.5 175.890625 37.5 187.5 C 37.5 199.109375 46.914062 208.523438 58.523438 208.523438 C 70.132812 208.523438 79.546875 199.109375 79.546875 187.5 C 79.546875 175.890625 70.132812 166.476562 58.523438 166.476562 Z M 58.523438 166.476562 " clip-rule="nonzero"/></clipPath><clipPath id="98c6a86ab7"><path d="M 0.5 0.476562 L 42.546875 0.476562 L 42.546875 42.523438 L 0.5 42.523438 Z M 0.5 0.476562 " clip-rule="nonzero"/></clipPath><clipPath id="79015b0e28"><path d="M 21.523438 0.476562 C 9.914062 0.476562 0.5 9.890625 0.5 21.5 C 0.5 33.109375 9.914062 42.523438 21.523438 42.523438 C 33.132812 42.523438 42.546875 33.109375 42.546875 21.5 C 42.546875 9.890625 33.132812 0.476562 21.523438 0.476562 Z M 21.523438 0.476562 " clip-rule="nonzero"/></clipPath><clipPath id="fb47c452d7"><rect x="0" width="43" y="0" height="43"/></clipPath><clipPath id="657ad1744b"><path d="M 295.453125 166.476562 L 337.5 166.476562 L 337.5 208.523438 L 295.453125 208.523438 Z M 295.453125 166.476562 " clip-rule="nonzero"/></clipPath><clipPath id="5ab16f2dfa"><path d="M 316.476562 166.476562 C 304.867188 166.476562 295.453125 175.890625 295.453125 187.5 C 295.453125 199.109375 304.867188 208.523438 316.476562 208.523438 C 328.085938 208.523438 337.5 199.109375 337.5 187.5 C 337.5 175.890625 328.085938 166.476562 316.476562 166.476562 Z M 316.476562 166.476562 " clip-rule="nonzero"/></clipPath><clipPath id="bfe224e9ea"><path d="M 0.453125 0.476562 L 42.5 0.476562 L 42.5 42.523438 L 0.453125 42.523438 Z M 0.453125 0.476562 " clip-rule="nonzero"/></clipPath><clipPath id="c7c6dbc2a1"><path d="M 21.476562 0.476562 C 9.867188 0.476562 0.453125 9.890625 0.453125 21.5 C 0.453125 33.109375 9.867188 42.523438 21.476562 42.523438 C 33.085938 42.523438 42.5 33.109375 42.5 21.5 C 42.5 9.890625 33.085938 0.476562 21.476562 0.476562 Z M 21.476562 0.476562 " clip-rule="nonzero"/></clipPath><clipPath id="fdeb39f7d6"><rect x="0" width="43" y="0" height="43"/></clipPath><clipPath id="a969904d2a"><path d="M 231.023438 166.476562 L 273.070312 166.476562 L 273.070312 208.523438 L 231.023438 208.523438 Z M 231.023438 166.476562 " clip-rule="nonzero"/></clipPath><clipPath id="3205243ec5"><path d="M 252.046875 166.476562 C 240.433594 166.476562 231.023438 175.890625 231.023438 187.5 C 231.023438 199.109375 240.433594 208.523438 252.046875 208.523438 C 263.65625 208.523438 273.070312 199.109375 273.070312 187.5 C 273.070312 175.890625 263.65625 166.476562 252.046875 166.476562 Z M 252.046875 166.476562 " clip-rule="nonzero"/></clipPath><clipPath id="321da83f9f"><path d="M 0.0234375 0.476562 L 42.070312 0.476562 L 42.070312 42.523438 L 0.0234375 42.523438 Z M 0.0234375 0.476562 " clip-rule="nonzero"/></clipPath><clipPath id="b5d691f616"><path d="M 21.046875 0.476562 C 9.433594 0.476562 0.0234375 9.890625 0.0234375 21.5 C 0.0234375 33.109375 9.433594 42.523438 21.046875 42.523438 C 32.65625 42.523438 42.070312 33.109375 42.070312 21.5 C 42.070312 9.890625 32.65625 0.476562 21.046875 0.476562 Z M 21.046875 0.476562 " clip-rule="nonzero"/></clipPath><clipPath id="3edabc01ac"><rect x="0" width="43" y="0" height="43"/></clipPath><clipPath id="814641903c"><path d="M 166.476562 166.476562 L 208.523438 166.476562 L 208.523438 208.523438 L 166.476562 208.523438 Z M 166.476562 166.476562 " clip-rule="nonzero"/></clipPath><clipPath id="389b5179ba"><path d="M 187.5 166.476562 C 175.890625 166.476562 166.476562 175.890625 166.476562 187.5 C 166.476562 199.109375 175.890625 208.523438 187.5 208.523438 C 199.109375 208.523438 208.523438 199.109375 208.523438 187.5 C 208.523438 175.890625 199.109375 166.476562 187.5 166.476562 Z M 187.5 166.476562 " clip-rule="nonzero"/></clipPath><clipPath id="145fc811fb"><path d="M 0.476562 0.476562 L 42.523438 0.476562 L 42.523438 42.523438 L 0.476562 42.523438 Z M 0.476562 0.476562 " clip-rule="nonzero"/></clipPath><clipPath id="caec055628"><path d="M 21.5 0.476562 C 9.890625 0.476562 0.476562 9.890625 0.476562 21.5 C 0.476562 33.109375 9.890625 42.523438 21.5 42.523438 C 33.109375 42.523438 42.523438 33.109375 42.523438 21.5 C 42.523438 9.890625 33.109375 0.476562 21.5 0.476562 Z M 21.5 0.476562 " clip-rule="nonzero"/></clipPath><clipPath id="0e345b378e"><rect x="0" width="43" y="0" height="43"/></clipPath><clipPath id="a6dad00b24"><path d="M 101.988281 166.476562 L 144.035156 166.476562 L 144.035156 208.523438 L 101.988281 208.523438 Z M 101.988281 166.476562 " clip-rule="nonzero"/></clipPath><clipPath id="920dc5f15e"><path d="M 123.011719 166.476562 C 111.402344 166.476562 101.988281 175.890625 101.988281 187.5 C 101.988281 199.109375 111.402344 208.523438 123.011719 208.523438 C 134.621094 208.523438 144.035156 199.109375 144.035156 187.5 C 144.035156 175.890625 134.621094 166.476562 123.011719 166.476562 Z M 123.011719 166.476562 " clip-rule="nonzero"/></clipPath><clipPath id="6c0c9357fd"><path d="M 0.988281 0.476562 L 43.035156 0.476562 L 43.035156 42.523438 L 0.988281 42.523438 Z M 0.988281 0.476562 " clip-rule="nonzero"/></clipPath><clipPath id="f0188678c3"><path d="M 22.011719 0.476562 C 10.402344 0.476562 0.988281 9.890625 0.988281 21.5 C 0.988281 33.109375 10.402344 42.523438 22.011719 42.523438 C 33.621094 42.523438 43.035156 33.109375 43.035156 21.5 C 43.035156 9.890625 33.621094 0.476562 22.011719 0.476562 Z M 22.011719 0.476562 " clip-rule="nonzero"/></clipPath><clipPath id="7576d5bb79"><rect x="0" width="44" y="0" height="43"/></clipPath><clipPath id="c50214824c"><path d="M 37.5 101.988281 L 79.546875 101.988281 L 79.546875 144.035156 L 37.5 144.035156 Z M 37.5 101.988281 " clip-rule="nonzero"/></clipPath><clipPath id="f6d6f2a879"><path d="M 58.523438 101.988281 C 46.914062 101.988281 37.5 111.402344 37.5 123.011719 C 37.5 134.621094 46.914062 144.035156 58.523438 144.035156 C 70.132812 144.035156 79.546875 134.621094 79.546875 123.011719 C 79.546875 111.402344 70.132812 101.988281 58.523438 101.988281 Z M 58.523438 101.988281 " clip-rule="nonzero"/></clipPath><clipPath id="087b11c71a"><path d="M 0.5 0.988281 L 42.546875 0.988281 L 42.546875 43.035156 L 0.5 43.035156 Z M 0.5 0.988281 " clip-rule="nonzero"/></clipPath><clipPath id="18c13d5ed0"><path d="M 21.523438 0.988281 C 9.914062 0.988281 0.5 10.402344 0.5 22.011719 C 0.5 33.621094 9.914062 43.035156 21.523438 43.035156 C 33.132812 43.035156 42.546875 33.621094 42.546875 22.011719 C 42.546875 10.402344 33.132812 0.988281 21.523438 0.988281 Z M 21.523438 0.988281 " clip-rule="nonzero"/></clipPath><clipPath id="a36dda0e04"><rect x="0" width="43" y="0" height="44"/></clipPath><clipPath id="ccbb93f041"><path d="M 295.453125 101.988281 L 337.5 101.988281 L 337.5 144.035156 L 295.453125 144.035156 Z M 295.453125 101.988281 " clip-rule="nonzero"/></clipPath><clipPath id="8edb202839"><path d="M 316.476562 101.988281 C 304.867188 101.988281 295.453125 111.402344 295.453125 123.011719 C 295.453125 134.621094 304.867188 144.035156 316.476562 144.035156 C 328.085938 144.035156 337.5 134.621094 337.5 123.011719 C 337.5 111.402344 328.085938 101.988281 316.476562 101.988281 Z M 316.476562 101.988281 " clip-rule="nonzero"/></clipPath><clipPath id="cbe3aa4384"><path d="M 0.453125 0.988281 L 42.5 0.988281 L 42.5 43.035156 L 0.453125 43.035156 Z M 0.453125 0.988281 " clip-rule="nonzero"/></clipPath><clipPath id="f6e5dd46e7"><path d="M 21.476562 0.988281 C 9.867188 0.988281 0.453125 10.402344 0.453125 22.011719 C 0.453125 33.621094 9.867188 43.035156 21.476562 43.035156 C 33.085938 43.035156 42.5 33.621094 42.5 22.011719 C 42.5 10.402344 33.085938 0.988281 21.476562 0.988281 Z M 21.476562 0.988281 " clip-rule="nonzero"/></clipPath><clipPath id="49aca8d900"><rect x="0" width="43" y="0" height="44"/></clipPath><clipPath id="8c1a659560"><path d="M 231.023438 101.988281 L 273.070312 101.988281 L 273.070312 144.035156 L 231.023438 144.035156 Z M 231.023438 101.988281 " clip-rule="nonzero"/></clipPath><clipPath id="4fc42a15cc"><path d="M 252.046875 101.988281 C 240.433594 101.988281 231.023438 111.402344 231.023438 123.011719 C 231.023438 134.621094 240.433594 144.035156 252.046875 144.035156 C 263.65625 144.035156 273.070312 134.621094 273.070312 123.011719 C 273.070312 111.402344 263.65625 101.988281 252.046875 101.988281 Z M 252.046875 101.988281 " clip-rule="nonzero"/></clipPath><clipPath id="cfb4dd6493"><path d="M 0.0234375 0.988281 L 42.070312 0.988281 L 42.070312 43.035156 L 0.0234375 43.035156 Z M 0.0234375 0.988281 " clip-rule="nonzero"/></clipPath><clipPath id="7d9fe41112"><path d="M 21.046875 0.988281 C 9.433594 0.988281 0.0234375 10.402344 0.0234375 22.011719 C 0.0234375 33.621094 9.433594 43.035156 21.046875 43.035156 C 32.65625 43.035156 42.070312 33.621094 42.070312 22.011719 C 42.070312 10.402344 32.65625 0.988281 21.046875 0.988281 Z M 21.046875 0.988281 " clip-rule="nonzero"/></clipPath><clipPath id="b094056fc2"><rect x="0" width="43" y="0" height="44"/></clipPath><clipPath id="22eb5e7906"><path d="M 166.476562 101.988281 L 208.523438 101.988281 L 208.523438 144.035156 L 166.476562 144.035156 Z M 166.476562 101.988281 " clip-rule="nonzero"/></clipPath><clipPath id="a55d87b2ba"><path d="M 187.5 101.988281 C 175.890625 101.988281 166.476562 111.402344 166.476562 123.011719 C 166.476562 134.621094 175.890625 144.035156 187.5 144.035156 C 199.109375 144.035156 208.523438 134.621094 208.523438 123.011719 C 208.523438 111.402344 199.109375 101.988281 187.5 101.988281 Z M 187.5 101.988281 " clip-rule="nonzero"/></clipPath><clipPath id="34ffc12654"><path d="M 0.476562 0.988281 L 42.523438 0.988281 L 42.523438 43.035156 L 0.476562 43.035156 Z M 0.476562 0.988281 " clip-rule="nonzero"/></clipPath><clipPath id="bd320d613e"><path d="M 21.5 0.988281 C 9.890625 0.988281 0.476562 10.402344 0.476562 22.011719 C 0.476562 33.621094 9.890625 43.035156 21.5 43.035156 C 33.109375 43.035156 42.523438 33.621094 42.523438 22.011719 C 42.523438 10.402344 33.109375 0.988281 21.5 0.988281 Z M 21.5 0.988281 " clip-rule="nonzero"/></clipPath><clipPath id="463d029322"><rect x="0" width="43" y="0" height="44"/></clipPath><clipPath id="ced24e6469"><path d="M 101.988281 101.988281 L 144.035156 101.988281 L 144.035156 144.035156 L 101.988281 144.035156 Z M 101.988281 101.988281 " clip-rule="nonzero"/></clipPath><clipPath id="3e3353261b"><path d="M 123.011719 101.988281 C 111.402344 101.988281 101.988281 111.402344 101.988281 123.011719 C 101.988281 134.621094 111.402344 144.035156 123.011719 144.035156 C 134.621094 144.035156 144.035156 134.621094 144.035156 123.011719 C 144.035156 111.402344 134.621094 101.988281 123.011719 101.988281 Z M 123.011719 101.988281 " clip-rule="nonzero"/></clipPath><clipPath id="980cc1bb3c"><path d="M 0.988281 0.988281 L 43.035156 0.988281 L 43.035156 43.035156 L 0.988281 43.035156 Z M 0.988281 0.988281 " clip-rule="nonzero"/></clipPath><clipPath id="eb6af4b6ec"><path d="M 22.011719 0.988281 C 10.402344 0.988281 0.988281 10.402344 0.988281 22.011719 C 0.988281 33.621094 10.402344 43.035156 22.011719 43.035156 C 33.621094 43.035156 43.035156 33.621094 43.035156 22.011719 C 43.035156 10.402344 33.621094 0.988281 22.011719 0.988281 Z M 22.011719 0.988281 " clip-rule="nonzero"/></clipPath><clipPath id="ea45afe12c"><rect x="0" width="44" y="0" height="44"/></clipPath><clipPath id="cd00d9efbc"><path d="M 37.5 231.023438 L 79.546875 231.023438 L 79.546875 273.070312 L 37.5 273.070312 Z M 37.5 231.023438 " clip-rule="nonzero"/></clipPath><clipPath id="30e50d2992"><path d="M 58.523438 231.023438 C 46.914062 231.023438 37.5 240.433594 37.5 252.046875 C 37.5 263.65625 46.914062 273.070312 58.523438 273.070312 C 70.132812 273.070312 79.546875 263.65625 79.546875 252.046875 C 79.546875 240.433594 70.132812 231.023438 58.523438 231.023438 Z M 58.523438 231.023438 " clip-rule="nonzero"/></clipPath><clipPath id="1a5b856a67"><path d="M 0.5 0.0234375 L 42.546875 0.0234375 L 42.546875 42.070312 L 0.5 42.070312 Z M 0.5 0.0234375 " clip-rule="nonzero"/></clipPath><clipPath id="de0d571f9d"><path d="M 21.523438 0.0234375 C 9.914062 0.0234375 0.5 9.433594 0.5 21.046875 C 0.5 32.65625 9.914062 42.070312 21.523438 42.070312 C 33.132812 42.070312 42.546875 32.65625 42.546875 21.046875 C 42.546875 9.433594 33.132812 0.0234375 21.523438 0.0234375 Z M 21.523438 0.0234375 " clip-rule="nonzero"/></clipPath><clipPath id="f0675978ce"><rect x="0" width="43" y="0" height="43"/></clipPath><clipPath id="0d663df01c"><path d="M 295.453125 231.023438 L 337.5 231.023438 L 337.5 273.070312 L 295.453125 273.070312 Z M 295.453125 231.023438 " clip-rule="nonzero"/></clipPath><clipPath id="3473b0d5fe"><path d="M 316.476562 231.023438 C 304.867188 231.023438 295.453125 240.433594 295.453125 252.046875 C 295.453125 263.65625 304.867188 273.070312 316.476562 273.070312 C 328.085938 273.070312 337.5 263.65625 337.5 252.046875 C 337.5 240.433594 328.085938 231.023438 316.476562 231.023438 Z M 316.476562 231.023438 " clip-rule="nonzero"/></clipPath><clipPath id="b2d4ff358b"><path d="M 0.453125 0.0234375 L 42.5 0.0234375 L 42.5 42.070312 L 0.453125 42.070312 Z M 0.453125 0.0234375 " clip-rule="nonzero"/></clipPath><clipPath id="73ba7f9ee4"><path d="M 21.476562 0.0234375 C 9.867188 0.0234375 0.453125 9.433594 0.453125 21.046875 C 0.453125 32.65625 9.867188 42.070312 21.476562 42.070312 C 33.085938 42.070312 42.5 32.65625 42.5 21.046875 C 42.5 9.433594 33.085938 0.0234375 21.476562 0.0234375 Z M 21.476562 0.0234375 " clip-rule="nonzero"/></clipPath><clipPath id="1217098a83"><rect x="0" width="43" y="0" height="43"/></clipPath><clipPath id="321c468201"><path d="M 231.023438 231.023438 L 273.070312 231.023438 L 273.070312 273.070312 L 231.023438 273.070312 Z M 231.023438 231.023438 " clip-rule="nonzero"/></clipPath><clipPath id="e4f714f749"><path d="M 252.046875 231.023438 C 240.433594 231.023438 231.023438 240.433594 231.023438 252.046875 C 231.023438 263.65625 240.433594 273.070312 252.046875 273.070312 C 263.65625 273.070312 273.070312 263.65625 273.070312 252.046875 C 273.070312 240.433594 263.65625 231.023438 252.046875 231.023438 Z M 252.046875 231.023438 " clip-rule="nonzero"/></clipPath><clipPath id="e274151bd1"><path d="M 0.0234375 0.0234375 L 42.070312 0.0234375 L 42.070312 42.070312 L 0.0234375 42.070312 Z M 0.0234375 0.0234375 " clip-rule="nonzero"/></clipPath><clipPath id="26cc21eb51"><path d="M 21.046875 0.0234375 C 9.433594 0.0234375 0.0234375 9.433594 0.0234375 21.046875 C 0.0234375 32.65625 9.433594 42.070312 21.046875 42.070312 C 32.65625 42.070312 42.070312 32.65625 42.070312 21.046875 C 42.070312 9.433594 32.65625 0.0234375 21.046875 0.0234375 Z M 21.046875 0.0234375 " clip-rule="nonzero"/></clipPath><clipPath id="50a2b332c3"><rect x="0" width="43" y="0" height="43"/></clipPath><clipPath id="fef2de8a0e"><path d="M 166.476562 231.023438 L 208.523438 231.023438 L 208.523438 273.070312 L 166.476562 273.070312 Z M 166.476562 231.023438 " clip-rule="nonzero"/></clipPath><clipPath id="255c1c9347"><path d="M 187.5 231.023438 C 175.890625 231.023438 166.476562 240.433594 166.476562 252.046875 C 166.476562 263.65625 175.890625 273.070312 187.5 273.070312 C 199.109375 273.070312 208.523438 263.65625 208.523438 252.046875 C 208.523438 240.433594 199.109375 231.023438 187.5 231.023438 Z M 187.5 231.023438 " clip-rule="nonzero"/></clipPath><clipPath id="4758560371"><path d="M 0.476562 0.0234375 L 42.523438 0.0234375 L 42.523438 42.070312 L 0.476562 42.070312 Z M 0.476562 0.0234375 " clip-rule="nonzero"/></clipPath><clipPath id="2577c1aeed"><path d="M 21.5 0.0234375 C 9.890625 0.0234375 0.476562 9.433594 0.476562 21.046875 C 0.476562 32.65625 9.890625 42.070312 21.5 42.070312 C 33.109375 42.070312 42.523438 32.65625 42.523438 21.046875 C 42.523438 9.433594 33.109375 0.0234375 21.5 0.0234375 Z M 21.5 0.0234375 " clip-rule="nonzero"/></clipPath><clipPath id="09884fb420"><rect x="0" width="43" y="0" height="43"/></clipPath><clipPath id="355cc30697"><path d="M 101.988281 231.023438 L 144.035156 231.023438 L 144.035156 273.070312 L 101.988281 273.070312 Z M 101.988281 231.023438 " clip-rule="nonzero"/></clipPath><clipPath id="b32c45630c"><path d="M 123.011719 231.023438 C 111.402344 231.023438 101.988281 240.433594 101.988281 252.046875 C 101.988281 263.65625 111.402344 273.070312 123.011719 273.070312 C 134.621094 273.070312 144.035156 263.65625 144.035156 252.046875 C 144.035156 240.433594 134.621094 231.023438 123.011719 231.023438 Z M 123.011719 231.023438 " clip-rule="nonzero"/></clipPath><clipPath id="51bcafbf72"><path d="M 0.988281 0.0234375 L 43.035156 0.0234375 L 43.035156 42.070312 L 0.988281 42.070312 Z M 0.988281 0.0234375 " clip-rule="nonzero"/></clipPath><clipPath id="9da34022f4"><path d="M 22.011719 0.0234375 C 10.402344 0.0234375 0.988281 9.433594 0.988281 21.046875 C 0.988281 32.65625 10.402344 42.070312 22.011719 42.070312 C 33.621094 42.070312 43.035156 32.65625 43.035156 21.046875 C 43.035156 9.433594 33.621094 0.0234375 22.011719 0.0234375 Z M 22.011719 0.0234375 " clip-rule="nonzero"/></clipPath><clipPath id="3fb06f9c14"><rect x="0" width="44" y="0" height="43"/></clipPath></defs><g clip-path="url(#3b0390c568)"><g clip-path="url(#c3233e48ac)"><g transform="matrix(1, 0, 0, 1, 37, 37)"><g clip-path="url(#2586109bd4)"><g clip-path="url(#21256cf3ad)"><g clip-path="url(#59e4454ad4)"><path fill="#8a05ff" d="M 0.5 0.5 L 42.546875 0.5 L 42.546875 42.546875 L 0.5 42.546875 Z M 0.5 0.5 " fill-opacity="1" fill-rule="nonzero"/></g></g></g></g></g></g><g clip-path="url(#b66da7f05c)"><g clip-path="url(#35646a2aea)"><g transform="matrix(1, 0, 0, 1, 295, 37)"><g clip-path="url(#0e48af8548)"><g clip-path="url(#79af10859d)"><g clip-path="url(#98b2615138)"><path fill="#8a05ff" d="M 0.453125 0.5 L 42.5 0.5 L 42.5 42.546875 L 0.453125 42.546875 Z M 0.453125 0.5 " fill-opacity="1" fill-rule="nonzero"/></g></g></g></g></g></g><g clip-path="url(#ee942a89da)"><g clip-path="url(#58432e2f48)"><g transform="matrix(1, 0, 0, 1, 231, 37)"><g clip-path="url(#9a8d2cd2ef)"><g clip-path="url(#016d85b9a5)"><g clip-path="url(#c6ef9adaf4)"><path fill="#ffffff" d="M 0.0234375 0.5 L 42.070312 0.5 L 42.070312 42.546875 L 0.0234375 42.546875 Z M 0.0234375 0.5 " fill-opacity="1" fill-rule="nonzero"/></g></g></g></g></g></g><g clip-path="url(#30ca840f4a)"><g clip-path="url(#0d910f3d7e)"><g transform="matrix(1, 0, 0, 1, 166, 37)"><g clip-path="url(#14aa26e81f)"><g clip-path="url(#f9193f0aaf)"><g clip-path="url(#ca442c0e69)"><path fill="#8a05ff" d="M 0.476562 0.5 L 42.523438 0.5 L 42.523438 42.546875 L 0.476562 42.546875 Z M 0.476562 0.5 " fill-opacity="1" fill-rule="nonzero"/></g></g></g></g></g></g><g clip-path="url(#b2d0cb6947)"><g clip-path="url(#7d9a5a00c0)"><g transform="matrix(1, 0, 0, 1, 101, 37)"><g clip-path="url(#e224d4d96a)"><g clip-path="url(#bdb4a64020)"><g clip-path="url(#163343d0df)"><path fill="#8a05ff" d="M 0.988281 0.5 L 43.035156 0.5 L 43.035156 42.546875 L 0.988281 42.546875 Z M 0.988281 0.5 " fill-opacity="1" fill-rule="nonzero"/></g></g></g></g></g></g><g clip-path="url(#b3336ad867)"><g clip-path="url(#a0e01bb86c)"><g transform="matrix(1, 0, 0, 1, 37, 295)"><g clip-path="url(#1ea9496761)"><g clip-path="url(#ec52e10f8f)"><g clip-path="url(#b16e47bd81)"><path fill="#8a05ff" d="M 0.5 0.453125 L 42.546875 0.453125 L 42.546875 42.5 L 0.5 42.5 Z M 0.5 0.453125 " fill-opacity="1" fill-rule="nonzero"/></g></g></g></g></g></g><g clip-path="url(#82745931a3)"><g clip-path="url(#c5f416702e)"><g transform="matrix(1, 0, 0, 1, 295, 295)"><g clip-path="url(#5f83fd8eda)"><g clip-path="url(#3d9cea533c)"><g clip-path="url(#8075882d4f)"><path fill="#8a05ff" d="M 0.453125 0.453125 L 42.5 0.453125 L 42.5 42.5 L 0.453125 42.5 Z M 0.453125 0.453125 " fill-opacity="1" fill-rule="nonzero"/></g></g></g></g></g></g><g clip-path="url(#88140c0584)"><g clip-path="url(#e70b2abaa2)"><g transform="matrix(1, 0, 0, 1, 231, 295)"><g clip-path="url(#0a06939df9)"><g clip-path="url(#14750dbd85)"><g clip-path="url(#b4deccdbbd)"><path fill="#8a05ff" d="M 0.0234375 0.453125 L 42.070312 0.453125 L 42.070312 42.5 L 0.0234375 42.5 Z M 0.0234375 0.453125 " fill-opacity="1" fill-rule="nonzero"/></g></g></g></g></g></g><g clip-path="url(#8ddcf9a364)"><g clip-path="url(#8e5a3a2ef6)"><g transform="matrix(1, 0, 0, 1, 166, 295)"><g clip-path="url(#70e643d898)"><g clip-path="url(#be6539bdcf)"><g clip-path="url(#f38e0825c1)"><path fill="#ffffff" d="M 0.476562 0.453125 L 42.523438 0.453125 L 42.523438 42.5 L 0.476562 42.5 Z M 0.476562 0.453125 " fill-opacity="1" fill-rule="nonzero"/></g></g></g></g></g></g><g clip-path="url(#c2799861d1)"><g clip-path="url(#ef66cf176c)"><g transform="matrix(1, 0, 0, 1, 101, 295)"><g clip-path="url(#d51015c42c)"><g clip-path="url(#7a6e1915b8)"><g clip-path="url(#4b6e5d5453)"><path fill="#8a05ff" d="M 0.988281 0.453125 L 43.035156 0.453125 L 43.035156 42.5 L 0.988281 42.5 Z M 0.988281 0.453125 " fill-opacity="1" fill-rule="nonzero"/></g></g></g></g></g></g><g clip-path="url(#88531867c7)"><g clip-path="url(#b8053c8654)"><g transform="matrix(1, 0, 0, 1, 37, 166)"><g clip-path="url(#fb47c452d7)"><g clip-path="url(#98c6a86ab7)"><g clip-path="url(#79015b0e28)"><path fill="#8a05ff" d="M 0.5 0.476562 L 42.546875 0.476562 L 42.546875 42.523438 L 0.5 42.523438 Z M 0.5 0.476562 " fill-opacity="1" fill-rule="nonzero"/></g></g></g></g></g></g><g clip-path="url(#657ad1744b)"><g clip-path="url(#5ab16f2dfa)"><g transform="matrix(1, 0, 0, 1, 295, 166)"><g clip-path="url(#fdeb39f7d6)"><g clip-path="url(#bfe224e9ea)"><g clip-path="url(#c7c6dbc2a1)"><path fill="#8a05ff" d="M 0.453125 0.476562 L 42.5 0.476562 L 42.5 42.523438 L 0.453125 42.523438 Z M 0.453125 0.476562 " fill-opacity="1" fill-rule="nonzero"/></g></g></g></g></g></g><g clip-path="url(#a969904d2a)"><g clip-path="url(#3205243ec5)"><g transform="matrix(1, 0, 0, 1, 231, 166)"><g clip-path="url(#3edabc01ac)"><g clip-path="url(#321da83f9f)"><g clip-path="url(#b5d691f616)"><path fill="#8a05ff" d="M 0.0234375 0.476562 L 42.070312 0.476562 L 42.070312 42.523438 L 0.0234375 42.523438 Z M 0.0234375 0.476562 " fill-opacity="1" fill-rule="nonzero"/></g></g></g></g></g></g><g clip-path="url(#814641903c)"><g clip-path="url(#389b5179ba)"><g transform="matrix(1, 0, 0, 1, 166, 166)"><g clip-path="url(#0e345b378e)"><g clip-path="url(#145fc811fb)"><g clip-path="url(#caec055628)"><path fill="#8a05ff" d="M 0.476562 0.476562 L 42.523438 0.476562 L 42.523438 42.523438 L 0.476562 42.523438 Z M 0.476562 0.476562 " fill-opacity="1" fill-rule="nonzero"/></g></g></g></g></g></g><g clip-path="url(#a6dad00b24)"><g clip-path="url(#920dc5f15e)"><g transform="matrix(1, 0, 0, 1, 101, 166)"><g clip-path="url(#7576d5bb79)"><g clip-path="url(#6c0c9357fd)"><g clip-path="url(#f0188678c3)"><path fill="#8a05ff" d="M 0.988281 0.476562 L 43.035156 0.476562 L 43.035156 42.523438 L 0.988281 42.523438 Z M 0.988281 0.476562 " fill-opacity="1" fill-rule="nonzero"/></g></g></g></g></g></g><g clip-path="url(#c50214824c)"><g clip-path="url(#f6d6f2a879)"><g transform="matrix(1, 0, 0, 1, 37, 101)"><g clip-path="url(#a36dda0e04)"><g clip-path="url(#087b11c71a)"><g clip-path="url(#18c13d5ed0)"><path fill="#ffffff" d="M 0.5 0.988281 L 42.546875 0.988281 L 42.546875 43.035156 L 0.5 43.035156 Z M 0.5 0.988281 " fill-opacity="1" fill-rule="nonzero"/></g></g></g></g></g></g><g clip-path="url(#ccbb93f041)"><g clip-path="url(#8edb202839)"><g transform="matrix(1, 0, 0, 1, 295, 101)"><g clip-path="url(#49aca8d900)"><g clip-path="url(#cbe3aa4384)"><g clip-path="url(#f6e5dd46e7)"><path fill="#ffffff" d="M 0.453125 0.988281 L 42.5 0.988281 L 42.5 43.035156 L 0.453125 43.035156 Z M 0.453125 0.988281 " fill-opacity="1" fill-rule="nonzero"/></g></g></g></g></g></g><g clip-path="url(#8c1a659560)"><g clip-path="url(#4fc42a15cc)"><g transform="matrix(1, 0, 0, 1, 231, 101)"><g clip-path="url(#b094056fc2)"><g clip-path="url(#cfb4dd6493)"><g clip-path="url(#7d9fe41112)"><path fill="#ffffff" d="M 0.0234375 0.988281 L 42.070312 0.988281 L 42.070312 43.035156 L 0.0234375 43.035156 Z M 0.0234375 0.988281 " fill-opacity="1" fill-rule="nonzero"/></g></g></g></g></g></g><g clip-path="url(#22eb5e7906)"><g clip-path="url(#a55d87b2ba)"><g transform="matrix(1, 0, 0, 1, 166, 101)"><g clip-path="url(#463d029322)"><g clip-path="url(#34ffc12654)"><g clip-path="url(#bd320d613e)"><path fill="#ffffff" d="M 0.476562 0.988281 L 42.523438 0.988281 L 42.523438 43.035156 L 0.476562 43.035156 Z M 0.476562 0.988281 " fill-opacity="1" fill-rule="nonzero"/></g></g></g></g></g></g><g clip-path="url(#ced24e6469)"><g clip-path="url(#3e3353261b)"><g transform="matrix(1, 0, 0, 1, 101, 101)"><g clip-path="url(#ea45afe12c)"><g clip-path="url(#980cc1bb3c)"><g clip-path="url(#eb6af4b6ec)"><path fill="#ffffff" d="M 0.988281 0.988281 L 43.035156 0.988281 L 43.035156 43.035156 L 0.988281 43.035156 Z M 0.988281 0.988281 " fill-opacity="1" fill-rule="nonzero"/></g></g></g></g></g></g><g clip-path="url(#cd00d9efbc)"><g clip-path="url(#30e50d2992)"><g transform="matrix(1, 0, 0, 1, 37, 231)"><g clip-path="url(#f0675978ce)"><g clip-path="url(#1a5b856a67)"><g clip-path="url(#de0d571f9d)"><path fill="#ffffff" d="M 0.5 0.0234375 L 42.546875 0.0234375 L 42.546875 42.070312 L 0.5 42.070312 Z M 0.5 0.0234375 " fill-opacity="1" fill-rule="nonzero"/></g></g></g></g></g></g><g clip-path="url(#0d663df01c)"><g clip-path="url(#3473b0d5fe)"><g transform="matrix(1, 0, 0, 1, 295, 231)"><g clip-path="url(#1217098a83)"><g clip-path="url(#b2d4ff358b)"><g clip-path="url(#73ba7f9ee4)"><path fill="#ffffff" d="M 0.453125 0.0234375 L 42.5 0.0234375 L 42.5 42.070312 L 0.453125 42.070312 Z M 0.453125 0.0234375 " fill-opacity="1" fill-rule="nonzero"/></g></g></g></g></g></g><g clip-path="url(#321c468201)"><g clip-path="url(#e4f714f749)"><g transform="matrix(1, 0, 0, 1, 231, 231)"><g clip-path="url(#50a2b332c3)"><g clip-path="url(#e274151bd1)"><g clip-path="url(#26cc21eb51)"><path fill="#ffffff" d="M 0.0234375 0.0234375 L 42.070312 0.0234375 L 42.070312 42.070312 L 0.0234375 42.070312 Z M 0.0234375 0.0234375 " fill-opacity="1" fill-rule="nonzero"/></g></g></g></g></g></g><g clip-path="url(#fef2de8a0e)"><g clip-path="url(#255c1c9347)"><g transform="matrix(1, 0, 0, 1, 166, 231)"><g clip-path="url(#09884fb420)"><g clip-path="url(#4758560371)"><g clip-path="url(#2577c1aeed)"><path fill="#ffffff" d="M 0.476562 0.0234375 L 42.523438 0.0234375 L 42.523438 42.070312 L 0.476562 42.070312 Z M 0.476562 0.0234375 " fill-opacity="1" fill-rule="nonzero"/></g></g></g></g></g></g><g clip-path="url(#355cc30697)"><g clip-path="url(#b32c45630c)"><g transform="matrix(1, 0, 0, 1, 101, 231)"><g clip-path="url(#3fb06f9c14)"><g clip-path="url(#51bcafbf72)"><g clip-path="url(#9da34022f4)"><path fill="#ffffff" d="M 0.988281 0.0234375 L 43.035156 0.0234375 L 43.035156 42.070312 L 0.988281 42.070312 Z M 0.988281 0.0234375 " fill-opacity="1" fill-rule="nonzero"/></g></g></g></g></g></g></svg>