<svg xmlns="http://www.w3.org/2000/svg" xmlns:xlink="http://www.w3.org/1999/xlink" width="500" zoomAndPan="magnify" viewBox="0 0 375 374.999991" height="500" preserveAspectRatio="xMidYMid meet" version="1.0"><defs><clipPath id="739958a9dc"><path d="M 37.5 37.5 L 79.546875 37.5 L 79.546875 79.546875 L 37.5 79.546875 Z M 37.5 37.5 " clip-rule="nonzero"/></clipPath><clipPath id="7a71546ec8"><path d="M 58.523438 37.5 C 46.914062 37.5 37.5 46.914062 37.5 58.523438 C 37.5 70.132812 46.914062 79.546875 58.523438 79.546875 C 70.132812 79.546875 79.546875 70.132812 79.546875 58.523438 C 79.546875 46.914062 70.132812 37.5 58.523438 37.5 Z M 58.523438 37.5 " clip-rule="nonzero"/></clipPath><clipPath id="d81b21c766"><path d="M 0.5 0.5 L 42.546875 0.5 L 42.546875 42.546875 L 0.5 42.546875 Z M 0.5 0.5 " clip-rule="nonzero"/></clipPath><clipPath id="c8cd7ab2b1"><path d="M 21.523438 0.5 C 9.914062 0.5 0.5 9.914062 0.5 21.523438 C 0.5 33.132812 9.914062 42.546875 21.523438 42.546875 C 33.132812 42.546875 42.546875 33.132812 42.546875 21.523438 C 42.546875 9.914062 33.132812 0.5 21.523438 0.5 Z M 21.523438 0.5 " clip-rule="nonzero"/></clipPath><clipPath id="7578aea983"><rect x="0" width="43" y="0" height="43"/></clipPath><clipPath id="df44eb1175"><path d="M 295.453125 37.5 L 337.5 37.5 L 337.5 79.546875 L 295.453125 79.546875 Z M 295.453125 37.5 " clip-rule="nonzero"/></clipPath><clipPath id="83d9daf43f"><path d="M 316.476562 37.5 C 304.867188 37.5 295.453125 46.914062 295.453125 58.523438 C 295.453125 70.132812 304.867188 79.546875 316.476562 79.546875 C 328.085938 79.546875 337.5 70.132812 337.5 58.523438 C 337.5 46.914062 328.085938 37.5 316.476562 37.5 Z M 316.476562 37.5 " clip-rule="nonzero"/></clipPath><clipPath id="a0f477bc5d"><path d="M 0.453125 0.5 L 42.5 0.5 L 42.5 42.546875 L 0.453125 42.546875 Z M 0.453125 0.5 " clip-rule="nonzero"/></clipPath><clipPath id="559278a157"><path d="M 21.476562 0.5 C 9.867188 0.5 0.453125 9.914062 0.453125 21.523438 C 0.453125 33.132812 9.867188 42.546875 21.476562 42.546875 C 33.085938 42.546875 42.5 33.132812 42.5 21.523438 C 42.5 9.914062 33.085938 0.5 21.476562 0.5 Z M 21.476562 0.5 " clip-rule="nonzero"/></clipPath><clipPath id="04ebe32389"><rect x="0" width="43" y="0" height="43"/></clipPath><clipPath id="cc0b5b129b"><path d="M 231.023438 37.5 L 273.070312 37.5 L 273.070312 79.546875 L 231.023438 79.546875 Z M 231.023438 37.5 " clip-rule="nonzero"/></clipPath><clipPath id="69caa2f480"><path d="M 252.046875 37.5 C 240.433594 37.5 231.023438 46.914062 231.023438 58.523438 C 231.023438 70.132812 240.433594 79.546875 252.046875 79.546875 C 263.65625 79.546875 273.070312 70.132812 273.070312 58.523438 C 273.070312 46.914062 263.65625 37.5 252.046875 37.5 Z M 252.046875 37.5 " clip-rule="nonzero"/></clipPath><clipPath id="a7f5a7f383"><path d="M 0.0234375 0.5 L 42.070312 0.5 L 42.070312 42.546875 L 0.0234375 42.546875 Z M 0.0234375 0.5 " clip-rule="nonzero"/></clipPath><clipPath id="aa51d6bcaf"><path d="M 21.046875 0.5 C 9.433594 0.5 0.0234375 9.914062 0.0234375 21.523438 C 0.0234375 33.132812 9.433594 42.546875 21.046875 42.546875 C 32.65625 42.546875 42.070312 33.132812 42.070312 21.523438 C 42.070312 9.914062 32.65625 0.5 21.046875 0.5 Z M 21.046875 0.5 " clip-rule="nonzero"/></clipPath><clipPath id="5d8c92cd16"><rect x="0" width="43" y="0" height="43"/></clipPath><clipPath id="5d7cae0b63"><path d="M 166.476562 37.5 L 208.523438 37.5 L 208.523438 79.546875 L 166.476562 79.546875 Z M 166.476562 37.5 " clip-rule="nonzero"/></clipPath><clipPath id="25ab1beafa"><path d="M 187.5 37.5 C 175.890625 37.5 166.476562 46.914062 166.476562 58.523438 C 166.476562 70.132812 175.890625 79.546875 187.5 79.546875 C 199.109375 79.546875 208.523438 70.132812 208.523438 58.523438 C 208.523438 46.914062 199.109375 37.5 187.5 37.5 Z M 187.5 37.5 " clip-rule="nonzero"/></clipPath><clipPath id="78922b5356"><path d="M 0.476562 0.5 L 42.523438 0.5 L 42.523438 42.546875 L 0.476562 42.546875 Z M 0.476562 0.5 " clip-rule="nonzero"/></clipPath><clipPath id="92fb377144"><path d="M 21.5 0.5 C 9.890625 0.5 0.476562 9.914062 0.476562 21.523438 C 0.476562 33.132812 9.890625 42.546875 21.5 42.546875 C 33.109375 42.546875 42.523438 33.132812 42.523438 21.523438 C 42.523438 9.914062 33.109375 0.5 21.5 0.5 Z M 21.5 0.5 " clip-rule="nonzero"/></clipPath><clipPath id="3d8daf0cf0"><rect x="0" width="43" y="0" height="43"/></clipPath><clipPath id="414f62ea1b"><path d="M 101.988281 37.5 L 144.035156 37.5 L 144.035156 79.546875 L 101.988281 79.546875 Z M 101.988281 37.5 " clip-rule="nonzero"/></clipPath><clipPath id="19f1abbb66"><path d="M 123.011719 37.5 C 111.402344 37.5 101.988281 46.914062 101.988281 58.523438 C 101.988281 70.132812 111.402344 79.546875 123.011719 79.546875 C 134.621094 79.546875 144.035156 70.132812 144.035156 58.523438 C 144.035156 46.914062 134.621094 37.5 123.011719 37.5 Z M 123.011719 37.5 " clip-rule="nonzero"/></clipPath><clipPath id="7aa5f4061a"><path d="M 0.988281 0.5 L 43.035156 0.5 L 43.035156 42.546875 L 0.988281 42.546875 Z M 0.988281 0.5 " clip-rule="nonzero"/></clipPath><clipPath id="82337b23e7"><path d="M 22.011719 0.5 C 10.402344 0.5 0.988281 9.914062 0.988281 21.523438 C 0.988281 33.132812 10.402344 42.546875 22.011719 42.546875 C 33.621094 42.546875 43.035156 33.132812 43.035156 21.523438 C 43.035156 9.914062 33.621094 0.5 22.011719 0.5 Z M 22.011719 0.5 " clip-rule="nonzero"/></clipPath><clipPath id="234ad2c14b"><rect x="0" width="44" y="0" height="43"/></clipPath><clipPath id="9163479660"><path d="M 37.5 295.453125 L 79.546875 295.453125 L 79.546875 337.5 L 37.5 337.5 Z M 37.5 295.453125 " clip-rule="nonzero"/></clipPath><clipPath id="50fd4d65f0"><path d="M 58.523438 295.453125 C 46.914062 295.453125 37.5 304.867188 37.5 316.476562 C 37.5 328.085938 46.914062 337.5 58.523438 337.5 C 70.132812 337.5 79.546875 328.085938 79.546875 316.476562 C 79.546875 304.867188 70.132812 295.453125 58.523438 295.453125 Z M 58.523438 295.453125 " clip-rule="nonzero"/></clipPath><clipPath id="c605094ea0"><path d="M 0.5 0.453125 L 42.546875 0.453125 L 42.546875 42.5 L 0.5 42.5 Z M 0.5 0.453125 " clip-rule="nonzero"/></clipPath><clipPath id="1d56b1f435"><path d="M 21.523438 0.453125 C 9.914062 0.453125 0.5 9.867188 0.5 21.476562 C 0.5 33.085938 9.914062 42.5 21.523438 42.5 C 33.132812 42.5 42.546875 33.085938 42.546875 21.476562 C 42.546875 9.867188 33.132812 0.453125 21.523438 0.453125 Z M 21.523438 0.453125 " clip-rule="nonzero"/></clipPath><clipPath id="81a05da041"><rect x="0" width="43" y="0" height="43"/></clipPath><clipPath id="5407408d98"><path d="M 295.453125 295.453125 L 337.5 295.453125 L 337.5 337.5 L 295.453125 337.5 Z M 295.453125 295.453125 " clip-rule="nonzero"/></clipPath><clipPath id="933c354cad"><path d="M 316.476562 295.453125 C 304.867188 295.453125 295.453125 304.867188 295.453125 316.476562 C 295.453125 328.085938 304.867188 337.5 316.476562 337.5 C 328.085938 337.5 337.5 328.085938 337.5 316.476562 C 337.5 304.867188 328.085938 295.453125 316.476562 295.453125 Z M 316.476562 295.453125 " clip-rule="nonzero"/></clipPath><clipPath id="be3d4df7c9"><path d="M 0.453125 0.453125 L 42.5 0.453125 L 42.5 42.5 L 0.453125 42.5 Z M 0.453125 0.453125 " clip-rule="nonzero"/></clipPath><clipPath id="b1b2be30f5"><path d="M 21.476562 0.453125 C 9.867188 0.453125 0.453125 9.867188 0.453125 21.476562 C 0.453125 33.085938 9.867188 42.5 21.476562 42.5 C 33.085938 42.5 42.5 33.085938 42.5 21.476562 C 42.5 9.867188 33.085938 0.453125 21.476562 0.453125 Z M 21.476562 0.453125 " clip-rule="nonzero"/></clipPath><clipPath id="c247e653a3"><rect x="0" width="43" y="0" height="43"/></clipPath><clipPath id="b462b7280e"><path d="M 231.023438 295.453125 L 273.070312 295.453125 L 273.070312 337.5 L 231.023438 337.5 Z M 231.023438 295.453125 " clip-rule="nonzero"/></clipPath><clipPath id="f5d7da0c28"><path d="M 252.046875 295.453125 C 240.433594 295.453125 231.023438 304.867188 231.023438 316.476562 C 231.023438 328.085938 240.433594 337.5 252.046875 337.5 C 263.65625 337.5 273.070312 328.085938 273.070312 316.476562 C 273.070312 304.867188 263.65625 295.453125 252.046875 295.453125 Z M 252.046875 295.453125 " clip-rule="nonzero"/></clipPath><clipPath id="c49a478958"><path d="M 0.0234375 0.453125 L 42.070312 0.453125 L 42.070312 42.5 L 0.0234375 42.5 Z M 0.0234375 0.453125 " clip-rule="nonzero"/></clipPath><clipPath id="148f2341e3"><path d="M 21.046875 0.453125 C 9.433594 0.453125 0.0234375 9.867188 0.0234375 21.476562 C 0.0234375 33.085938 9.433594 42.5 21.046875 42.5 C 32.65625 42.5 42.070312 33.085938 42.070312 21.476562 C 42.070312 9.867188 32.65625 0.453125 21.046875 0.453125 Z M 21.046875 0.453125 " clip-rule="nonzero"/></clipPath><clipPath id="993b1d398b"><rect x="0" width="43" y="0" height="43"/></clipPath><clipPath id="9fbb7809bf"><path d="M 166.476562 295.453125 L 208.523438 295.453125 L 208.523438 337.5 L 166.476562 337.5 Z M 166.476562 295.453125 " clip-rule="nonzero"/></clipPath><clipPath id="cf06e4aa3c"><path d="M 187.5 295.453125 C 175.890625 295.453125 166.476562 304.867188 166.476562 316.476562 C 166.476562 328.085938 175.890625 337.5 187.5 337.5 C 199.109375 337.5 208.523438 328.085938 208.523438 316.476562 C 208.523438 304.867188 199.109375 295.453125 187.5 295.453125 Z M 187.5 295.453125 " clip-rule="nonzero"/></clipPath><clipPath id="176d7a229a"><path d="M 0.476562 0.453125 L 42.523438 0.453125 L 42.523438 42.5 L 0.476562 42.5 Z M 0.476562 0.453125 " clip-rule="nonzero"/></clipPath><clipPath id="fafa83404c"><path d="M 21.5 0.453125 C 9.890625 0.453125 0.476562 9.867188 0.476562 21.476562 C 0.476562 33.085938 9.890625 42.5 21.5 42.5 C 33.109375 42.5 42.523438 33.085938 42.523438 21.476562 C 42.523438 9.867188 33.109375 0.453125 21.5 0.453125 Z M 21.5 0.453125 " clip-rule="nonzero"/></clipPath><clipPath id="56d5e9882f"><rect x="0" width="43" y="0" height="43"/></clipPath><clipPath id="444c189f36"><path d="M 101.988281 295.453125 L 144.035156 295.453125 L 144.035156 337.5 L 101.988281 337.5 Z M 101.988281 295.453125 " clip-rule="nonzero"/></clipPath><clipPath id="b9a2f9204f"><path d="M 123.011719 295.453125 C 111.402344 295.453125 101.988281 304.867188 101.988281 316.476562 C 101.988281 328.085938 111.402344 337.5 123.011719 337.5 C 134.621094 337.5 144.035156 328.085938 144.035156 316.476562 C 144.035156 304.867188 134.621094 295.453125 123.011719 295.453125 Z M 123.011719 295.453125 " clip-rule="nonzero"/></clipPath><clipPath id="7604b0d6da"><path d="M 0.988281 0.453125 L 43.035156 0.453125 L 43.035156 42.5 L 0.988281 42.5 Z M 0.988281 0.453125 " clip-rule="nonzero"/></clipPath><clipPath id="bcee076aec"><path d="M 22.011719 0.453125 C 10.402344 0.453125 0.988281 9.867188 0.988281 21.476562 C 0.988281 33.085938 10.402344 42.5 22.011719 42.5 C 33.621094 42.5 43.035156 33.085938 43.035156 21.476562 C 43.035156 9.867188 33.621094 0.453125 22.011719 0.453125 Z M 22.011719 0.453125 " clip-rule="nonzero"/></clipPath><clipPath id="643d715223"><rect x="0" width="44" y="0" height="43"/></clipPath><clipPath id="8791af32c9"><path d="M 37.5 166.476562 L 79.546875 166.476562 L 79.546875 208.523438 L 37.5 208.523438 Z M 37.5 166.476562 " clip-rule="nonzero"/></clipPath><clipPath id="e1ba00fa6c"><path d="M 58.523438 166.476562 C 46.914062 166.476562 37.5 175.890625 37.5 187.5 C 37.5 199.109375 46.914062 208.523438 58.523438 208.523438 C 70.132812 208.523438 79.546875 199.109375 79.546875 187.5 C 79.546875 175.890625 70.132812 166.476562 58.523438 166.476562 Z M 58.523438 166.476562 " clip-rule="nonzero"/></clipPath><clipPath id="12ef4c6d1c"><path d="M 0.5 0.476562 L 42.546875 0.476562 L 42.546875 42.523438 L 0.5 42.523438 Z M 0.5 0.476562 " clip-rule="nonzero"/></clipPath><clipPath id="b658274bb1"><path d="M 21.523438 0.476562 C 9.914062 0.476562 0.5 9.890625 0.5 21.5 C 0.5 33.109375 9.914062 42.523438 21.523438 42.523438 C 33.132812 42.523438 42.546875 33.109375 42.546875 21.5 C 42.546875 9.890625 33.132812 0.476562 21.523438 0.476562 Z M 21.523438 0.476562 " clip-rule="nonzero"/></clipPath><clipPath id="226cf1f3ad"><rect x="0" width="43" y="0" height="43"/></clipPath><clipPath id="600dfb0a96"><path d="M 295.453125 166.476562 L 337.5 166.476562 L 337.5 208.523438 L 295.453125 208.523438 Z M 295.453125 166.476562 " clip-rule="nonzero"/></clipPath><clipPath id="16e33ac1df"><path d="M 316.476562 166.476562 C 304.867188 166.476562 295.453125 175.890625 295.453125 187.5 C 295.453125 199.109375 304.867188 208.523438 316.476562 208.523438 C 328.085938 208.523438 337.5 199.109375 337.5 187.5 C 337.5 175.890625 328.085938 166.476562 316.476562 166.476562 Z M 316.476562 166.476562 " clip-rule="nonzero"/></clipPath><clipPath id="ecfce65456"><path d="M 0.453125 0.476562 L 42.5 0.476562 L 42.5 42.523438 L 0.453125 42.523438 Z M 0.453125 0.476562 " clip-rule="nonzero"/></clipPath><clipPath id="beee12e23d"><path d="M 21.476562 0.476562 C 9.867188 0.476562 0.453125 9.890625 0.453125 21.5 C 0.453125 33.109375 9.867188 42.523438 21.476562 42.523438 C 33.085938 42.523438 42.5 33.109375 42.5 21.5 C 42.5 9.890625 33.085938 0.476562 21.476562 0.476562 Z M 21.476562 0.476562 " clip-rule="nonzero"/></clipPath><clipPath id="c43f6a9ab5"><rect x="0" width="43" y="0" height="43"/></clipPath><clipPath id="8b4d71d5da"><path d="M 231.023438 166.476562 L 273.070312 166.476562 L 273.070312 208.523438 L 231.023438 208.523438 Z M 231.023438 166.476562 " clip-rule="nonzero"/></clipPath><clipPath id="02aad33790"><path d="M 252.046875 166.476562 C 240.433594 166.476562 231.023438 175.890625 231.023438 187.5 C 231.023438 199.109375 240.433594 208.523438 252.046875 208.523438 C 263.65625 208.523438 273.070312 199.109375 273.070312 187.5 C 273.070312 175.890625 263.65625 166.476562 252.046875 166.476562 Z M 252.046875 166.476562 " clip-rule="nonzero"/></clipPath><clipPath id="76ccdeb73c"><path d="M 0.0234375 0.476562 L 42.070312 0.476562 L 42.070312 42.523438 L 0.0234375 42.523438 Z M 0.0234375 0.476562 " clip-rule="nonzero"/></clipPath><clipPath id="d1c713b762"><path d="M 21.046875 0.476562 C 9.433594 0.476562 0.0234375 9.890625 0.0234375 21.5 C 0.0234375 33.109375 9.433594 42.523438 21.046875 42.523438 C 32.65625 42.523438 42.070312 33.109375 42.070312 21.5 C 42.070312 9.890625 32.65625 0.476562 21.046875 0.476562 Z M 21.046875 0.476562 " clip-rule="nonzero"/></clipPath><clipPath id="de3e99985b"><rect x="0" width="43" y="0" height="43"/></clipPath><clipPath id="e1149bf15d"><path d="M 166.476562 166.476562 L 208.523438 166.476562 L 208.523438 208.523438 L 166.476562 208.523438 Z M 166.476562 166.476562 " clip-rule="nonzero"/></clipPath><clipPath id="624c204090"><path d="M 187.5 166.476562 C 175.890625 166.476562 166.476562 175.890625 166.476562 187.5 C 166.476562 199.109375 175.890625 208.523438 187.5 208.523438 C 199.109375 208.523438 208.523438 199.109375 208.523438 187.5 C 208.523438 175.890625 199.109375 166.476562 187.5 166.476562 Z M 187.5 166.476562 " clip-rule="nonzero"/></clipPath><clipPath id="97ba13d8cc"><path d="M 0.476562 0.476562 L 42.523438 0.476562 L 42.523438 42.523438 L 0.476562 42.523438 Z M 0.476562 0.476562 " clip-rule="nonzero"/></clipPath><clipPath id="108d68ccd0"><path d="M 21.5 0.476562 C 9.890625 0.476562 0.476562 9.890625 0.476562 21.5 C 0.476562 33.109375 9.890625 42.523438 21.5 42.523438 C 33.109375 42.523438 42.523438 33.109375 42.523438 21.5 C 42.523438 9.890625 33.109375 0.476562 21.5 0.476562 Z M 21.5 0.476562 " clip-rule="nonzero"/></clipPath><clipPath id="1b2fecf48b"><rect x="0" width="43" y="0" height="43"/></clipPath><clipPath id="43fe22e6c6"><path d="M 101.988281 166.476562 L 144.035156 166.476562 L 144.035156 208.523438 L 101.988281 208.523438 Z M 101.988281 166.476562 " clip-rule="nonzero"/></clipPath><clipPath id="d50a30b849"><path d="M 123.011719 166.476562 C 111.402344 166.476562 101.988281 175.890625 101.988281 187.5 C 101.988281 199.109375 111.402344 208.523438 123.011719 208.523438 C 134.621094 208.523438 144.035156 199.109375 144.035156 187.5 C 144.035156 175.890625 134.621094 166.476562 123.011719 166.476562 Z M 123.011719 166.476562 " clip-rule="nonzero"/></clipPath><clipPath id="bd5b209570"><path d="M 0.988281 0.476562 L 43.035156 0.476562 L 43.035156 42.523438 L 0.988281 42.523438 Z M 0.988281 0.476562 " clip-rule="nonzero"/></clipPath><clipPath id="4289da153c"><path d="M 22.011719 0.476562 C 10.402344 0.476562 0.988281 9.890625 0.988281 21.5 C 0.988281 33.109375 10.402344 42.523438 22.011719 42.523438 C 33.621094 42.523438 43.035156 33.109375 43.035156 21.5 C 43.035156 9.890625 33.621094 0.476562 22.011719 0.476562 Z M 22.011719 0.476562 " clip-rule="nonzero"/></clipPath><clipPath id="4cf27f14bb"><rect x="0" width="44" y="0" height="43"/></clipPath><clipPath id="acf1241c1c"><path d="M 37.5 101.988281 L 79.546875 101.988281 L 79.546875 144.035156 L 37.5 144.035156 Z M 37.5 101.988281 " clip-rule="nonzero"/></clipPath><clipPath id="4e7ea33d51"><path d="M 58.523438 101.988281 C 46.914062 101.988281 37.5 111.402344 37.5 123.011719 C 37.5 134.621094 46.914062 144.035156 58.523438 144.035156 C 70.132812 144.035156 79.546875 134.621094 79.546875 123.011719 C 79.546875 111.402344 70.132812 101.988281 58.523438 101.988281 Z M 58.523438 101.988281 " clip-rule="nonzero"/></clipPath><clipPath id="143b84d1fe"><path d="M 0.5 0.988281 L 42.546875 0.988281 L 42.546875 43.035156 L 0.5 43.035156 Z M 0.5 0.988281 " clip-rule="nonzero"/></clipPath><clipPath id="3dbba46bb6"><path d="M 21.523438 0.988281 C 9.914062 0.988281 0.5 10.402344 0.5 22.011719 C 0.5 33.621094 9.914062 43.035156 21.523438 43.035156 C 33.132812 43.035156 42.546875 33.621094 42.546875 22.011719 C 42.546875 10.402344 33.132812 0.988281 21.523438 0.988281 Z M 21.523438 0.988281 " clip-rule="nonzero"/></clipPath><clipPath id="f164e1cf9d"><rect x="0" width="43" y="0" height="44"/></clipPath><clipPath id="7fc645f8e1"><path d="M 295.453125 101.988281 L 337.5 101.988281 L 337.5 144.035156 L 295.453125 144.035156 Z M 295.453125 101.988281 " clip-rule="nonzero"/></clipPath><clipPath id="3a0ddc0789"><path d="M 316.476562 101.988281 C 304.867188 101.988281 295.453125 111.402344 295.453125 123.011719 C 295.453125 134.621094 304.867188 144.035156 316.476562 144.035156 C 328.085938 144.035156 337.5 134.621094 337.5 123.011719 C 337.5 111.402344 328.085938 101.988281 316.476562 101.988281 Z M 316.476562 101.988281 " clip-rule="nonzero"/></clipPath><clipPath id="14017254d8"><path d="M 0.453125 0.988281 L 42.5 0.988281 L 42.5 43.035156 L 0.453125 43.035156 Z M 0.453125 0.988281 " clip-rule="nonzero"/></clipPath><clipPath id="45e37d09e4"><path d="M 21.476562 0.988281 C 9.867188 0.988281 0.453125 10.402344 0.453125 22.011719 C 0.453125 33.621094 9.867188 43.035156 21.476562 43.035156 C 33.085938 43.035156 42.5 33.621094 42.5 22.011719 C 42.5 10.402344 33.085938 0.988281 21.476562 0.988281 Z M 21.476562 0.988281 " clip-rule="nonzero"/></clipPath><clipPath id="9bb44a1d5d"><rect x="0" width="43" y="0" height="44"/></clipPath><clipPath id="c318ffd73a"><path d="M 231.023438 101.988281 L 273.070312 101.988281 L 273.070312 144.035156 L 231.023438 144.035156 Z M 231.023438 101.988281 " clip-rule="nonzero"/></clipPath><clipPath id="3e09c13417"><path d="M 252.046875 101.988281 C 240.433594 101.988281 231.023438 111.402344 231.023438 123.011719 C 231.023438 134.621094 240.433594 144.035156 252.046875 144.035156 C 263.65625 144.035156 273.070312 134.621094 273.070312 123.011719 C 273.070312 111.402344 263.65625 101.988281 252.046875 101.988281 Z M 252.046875 101.988281 " clip-rule="nonzero"/></clipPath><clipPath id="a9b84bddf8"><path d="M 0.0234375 0.988281 L 42.070312 0.988281 L 42.070312 43.035156 L 0.0234375 43.035156 Z M 0.0234375 0.988281 " clip-rule="nonzero"/></clipPath><clipPath id="8f1d664b8b"><path d="M 21.046875 0.988281 C 9.433594 0.988281 0.0234375 10.402344 0.0234375 22.011719 C 0.0234375 33.621094 9.433594 43.035156 21.046875 43.035156 C 32.65625 43.035156 42.070312 33.621094 42.070312 22.011719 C 42.070312 10.402344 32.65625 0.988281 21.046875 0.988281 Z M 21.046875 0.988281 " clip-rule="nonzero"/></clipPath><clipPath id="ff95962674"><rect x="0" width="43" y="0" height="44"/></clipPath><clipPath id="a8b3f590af"><path d="M 166.476562 101.988281 L 208.523438 101.988281 L 208.523438 144.035156 L 166.476562 144.035156 Z M 166.476562 101.988281 " clip-rule="nonzero"/></clipPath><clipPath id="ea3a356b9b"><path d="M 187.5 101.988281 C 175.890625 101.988281 166.476562 111.402344 166.476562 123.011719 C 166.476562 134.621094 175.890625 144.035156 187.5 144.035156 C 199.109375 144.035156 208.523438 134.621094 208.523438 123.011719 C 208.523438 111.402344 199.109375 101.988281 187.5 101.988281 Z M 187.5 101.988281 " clip-rule="nonzero"/></clipPath><clipPath id="02632b6113"><path d="M 0.476562 0.988281 L 42.523438 0.988281 L 42.523438 43.035156 L 0.476562 43.035156 Z M 0.476562 0.988281 " clip-rule="nonzero"/></clipPath><clipPath id="c2f3260527"><path d="M 21.5 0.988281 C 9.890625 0.988281 0.476562 10.402344 0.476562 22.011719 C 0.476562 33.621094 9.890625 43.035156 21.5 43.035156 C 33.109375 43.035156 42.523438 33.621094 42.523438 22.011719 C 42.523438 10.402344 33.109375 0.988281 21.5 0.988281 Z M 21.5 0.988281 " clip-rule="nonzero"/></clipPath><clipPath id="3ac2bce0a8"><rect x="0" width="43" y="0" height="44"/></clipPath><clipPath id="b3bea01c66"><path d="M 101.988281 101.988281 L 144.035156 101.988281 L 144.035156 144.035156 L 101.988281 144.035156 Z M 101.988281 101.988281 " clip-rule="nonzero"/></clipPath><clipPath id="0e89372234"><path d="M 123.011719 101.988281 C 111.402344 101.988281 101.988281 111.402344 101.988281 123.011719 C 101.988281 134.621094 111.402344 144.035156 123.011719 144.035156 C 134.621094 144.035156 144.035156 134.621094 144.035156 123.011719 C 144.035156 111.402344 134.621094 101.988281 123.011719 101.988281 Z M 123.011719 101.988281 " clip-rule="nonzero"/></clipPath><clipPath id="d3c59afbd2"><path d="M 0.988281 0.988281 L 43.035156 0.988281 L 43.035156 43.035156 L 0.988281 43.035156 Z M 0.988281 0.988281 " clip-rule="nonzero"/></clipPath><clipPath id="b5cee17a0b"><path d="M 22.011719 0.988281 C 10.402344 0.988281 0.988281 10.402344 0.988281 22.011719 C 0.988281 33.621094 10.402344 43.035156 22.011719 43.035156 C 33.621094 43.035156 43.035156 33.621094 43.035156 22.011719 C 43.035156 10.402344 33.621094 0.988281 22.011719 0.988281 Z M 22.011719 0.988281 " clip-rule="nonzero"/></clipPath><clipPath id="1d52bbf8b4"><rect x="0" width="44" y="0" height="44"/></clipPath><clipPath id="1d0b6aeb08"><path d="M 37.5 231.023438 L 79.546875 231.023438 L 79.546875 273.070312 L 37.5 273.070312 Z M 37.5 231.023438 " clip-rule="nonzero"/></clipPath><clipPath id="96eb591082"><path d="M 58.523438 231.023438 C 46.914062 231.023438 37.5 240.433594 37.5 252.046875 C 37.5 263.65625 46.914062 273.070312 58.523438 273.070312 C 70.132812 273.070312 79.546875 263.65625 79.546875 252.046875 C 79.546875 240.433594 70.132812 231.023438 58.523438 231.023438 Z M 58.523438 231.023438 " clip-rule="nonzero"/></clipPath><clipPath id="46642d7e03"><path d="M 0.5 0.0234375 L 42.546875 0.0234375 L 42.546875 42.070312 L 0.5 42.070312 Z M 0.5 0.0234375 " clip-rule="nonzero"/></clipPath><clipPath id="6e6aafb077"><path d="M 21.523438 0.0234375 C 9.914062 0.0234375 0.5 9.433594 0.5 21.046875 C 0.5 32.65625 9.914062 42.070312 21.523438 42.070312 C 33.132812 42.070312 42.546875 32.65625 42.546875 21.046875 C 42.546875 9.433594 33.132812 0.0234375 21.523438 0.0234375 Z M 21.523438 0.0234375 " clip-rule="nonzero"/></clipPath><clipPath id="3c73e132c8"><rect x="0" width="43" y="0" height="43"/></clipPath><clipPath id="9c6fea9850"><path d="M 295.453125 231.023438 L 337.5 231.023438 L 337.5 273.070312 L 295.453125 273.070312 Z M 295.453125 231.023438 " clip-rule="nonzero"/></clipPath><clipPath id="f2e592782d"><path d="M 316.476562 231.023438 C 304.867188 231.023438 295.453125 240.433594 295.453125 252.046875 C 295.453125 263.65625 304.867188 273.070312 316.476562 273.070312 C 328.085938 273.070312 337.5 263.65625 337.5 252.046875 C 337.5 240.433594 328.085938 231.023438 316.476562 231.023438 Z M 316.476562 231.023438 " clip-rule="nonzero"/></clipPath><clipPath id="d1a34ebbda"><path d="M 0.453125 0.0234375 L 42.5 0.0234375 L 42.5 42.070312 L 0.453125 42.070312 Z M 0.453125 0.0234375 " clip-rule="nonzero"/></clipPath><clipPath id="ad5b866f16"><path d="M 21.476562 0.0234375 C 9.867188 0.0234375 0.453125 9.433594 0.453125 21.046875 C 0.453125 32.65625 9.867188 42.070312 21.476562 42.070312 C 33.085938 42.070312 42.5 32.65625 42.5 21.046875 C 42.5 9.433594 33.085938 0.0234375 21.476562 0.0234375 Z M 21.476562 0.0234375 " clip-rule="nonzero"/></clipPath><clipPath id="1f9f741955"><rect x="0" width="43" y="0" height="43"/></clipPath><clipPath id="8e970388f6"><path d="M 231.023438 231.023438 L 273.070312 231.023438 L 273.070312 273.070312 L 231.023438 273.070312 Z M 231.023438 231.023438 " clip-rule="nonzero"/></clipPath><clipPath id="0570ba3b3c"><path d="M 252.046875 231.023438 C 240.433594 231.023438 231.023438 240.433594 231.023438 252.046875 C 231.023438 263.65625 240.433594 273.070312 252.046875 273.070312 C 263.65625 273.070312 273.070312 263.65625 273.070312 252.046875 C 273.070312 240.433594 263.65625 231.023438 252.046875 231.023438 Z M 252.046875 231.023438 " clip-rule="nonzero"/></clipPath><clipPath id="42ca8d20ab"><path d="M 0.0234375 0.0234375 L 42.070312 0.0234375 L 42.070312 42.070312 L 0.0234375 42.070312 Z M 0.0234375 0.0234375 " clip-rule="nonzero"/></clipPath><clipPath id="d8e244e7a3"><path d="M 21.046875 0.0234375 C 9.433594 0.0234375 0.0234375 9.433594 0.0234375 21.046875 C 0.0234375 32.65625 9.433594 42.070312 21.046875 42.070312 C 32.65625 42.070312 42.070312 32.65625 42.070312 21.046875 C 42.070312 9.433594 32.65625 0.0234375 21.046875 0.0234375 Z M 21.046875 0.0234375 " clip-rule="nonzero"/></clipPath><clipPath id="d9400b2db8"><rect x="0" width="43" y="0" height="43"/></clipPath><clipPath id="682f447585"><path d="M 166.476562 231.023438 L 208.523438 231.023438 L 208.523438 273.070312 L 166.476562 273.070312 Z M 166.476562 231.023438 " clip-rule="nonzero"/></clipPath><clipPath id="81b37157e3"><path d="M 187.5 231.023438 C 175.890625 231.023438 166.476562 240.433594 166.476562 252.046875 C 166.476562 263.65625 175.890625 273.070312 187.5 273.070312 C 199.109375 273.070312 208.523438 263.65625 208.523438 252.046875 C 208.523438 240.433594 199.109375 231.023438 187.5 231.023438 Z M 187.5 231.023438 " clip-rule="nonzero"/></clipPath><clipPath id="1cfea94eef"><path d="M 0.476562 0.0234375 L 42.523438 0.0234375 L 42.523438 42.070312 L 0.476562 42.070312 Z M 0.476562 0.0234375 " clip-rule="nonzero"/></clipPath><clipPath id="f37eb227d2"><path d="M 21.5 0.0234375 C 9.890625 0.0234375 0.476562 9.433594 0.476562 21.046875 C 0.476562 32.65625 9.890625 42.070312 21.5 42.070312 C 33.109375 42.070312 42.523438 32.65625 42.523438 21.046875 C 42.523438 9.433594 33.109375 0.0234375 21.5 0.0234375 Z M 21.5 0.0234375 " clip-rule="nonzero"/></clipPath><clipPath id="b2a757c36b"><rect x="0" width="43" y="0" height="43"/></clipPath><clipPath id="a9e34e4c87"><path d="M 101.988281 231.023438 L 144.035156 231.023438 L 144.035156 273.070312 L 101.988281 273.070312 Z M 101.988281 231.023438 " clip-rule="nonzero"/></clipPath><clipPath id="92904586f0"><path d="M 123.011719 231.023438 C 111.402344 231.023438 101.988281 240.433594 101.988281 252.046875 C 101.988281 263.65625 111.402344 273.070312 123.011719 273.070312 C 134.621094 273.070312 144.035156 263.65625 144.035156 252.046875 C 144.035156 240.433594 134.621094 231.023438 123.011719 231.023438 Z M 123.011719 231.023438 " clip-rule="nonzero"/></clipPath><clipPath id="4032523ab5"><path d="M 0.988281 0.0234375 L 43.035156 0.0234375 L 43.035156 42.070312 L 0.988281 42.070312 Z M 0.988281 0.0234375 " clip-rule="nonzero"/></clipPath><clipPath id="e57b0a7776"><path d="M 22.011719 0.0234375 C 10.402344 0.0234375 0.988281 9.433594 0.988281 21.046875 C 0.988281 32.65625 10.402344 42.070312 22.011719 42.070312 C 33.621094 42.070312 43.035156 32.65625 43.035156 21.046875 C 43.035156 9.433594 33.621094 0.0234375 22.011719 0.0234375 Z M 22.011719 0.0234375 " clip-rule="nonzero"/></clipPath><clipPath id="a5d13a5d21"><rect x="0" width="44" y="0" height="43"/></clipPath></defs><g clip-path="url(#739958a9dc)"><g clip-path="url(#7a71546ec8)"><g transform="matrix(1, 0, 0, 1, 37, 37)"><g clip-path="url(#7578aea983)"><g clip-path="url(#d81b21c766)"><g clip-path="url(#c8cd7ab2b1)"><path fill="#ffffff" d="M 0.5 0.5 L 42.546875 0.5 L 42.546875 42.546875 L 0.5 42.546875 Z M 0.5 0.5 " fill-opacity="1" fill-rule="nonzero"/></g></g></g></g></g></g><g clip-path="url(#df44eb1175)"><g clip-path="url(#83d9daf43f)"><g transform="matrix(1, 0, 0, 1, 295, 37)"><g clip-path="url(#04ebe32389)"><g clip-path="url(#a0f477bc5d)"><g clip-path="url(#559278a157)"><path fill="#ffffff" d="M 0.453125 0.5 L 42.5 0.5 L 42.5 42.546875 L 0.453125 42.546875 Z M 0.453125 0.5 " fill-opacity="1" fill-rule="nonzero"/></g></g></g></g></g></g><g clip-path="url(#cc0b5b129b)"><g clip-path="url(#69caa2f480)"><g transform="matrix(1, 0, 0, 1, 231, 37)"><g clip-path="url(#5d8c92cd16)"><g clip-path="url(#a7f5a7f383)"><g clip-path="url(#aa51d6bcaf)"><path fill="#000000" d="M 0.0234375 0.5 L 42.070312 0.5 L 42.070312 42.546875 L 0.0234375 42.546875 Z M 0.0234375 0.5 " fill-opacity="1" fill-rule="nonzero"/></g></g></g></g></g></g><g clip-path="url(#5d7cae0b63)"><g clip-path="url(#25ab1beafa)"><g transform="matrix(1, 0, 0, 1, 166, 37)"><g clip-path="url(#3d8daf0cf0)"><g clip-path="url(#78922b5356)"><g clip-path="url(#92fb377144)"><path fill="#ffffff" d="M 0.476562 0.5 L 42.523438 0.5 L 42.523438 42.546875 L 0.476562 42.546875 Z M 0.476562 0.5 " fill-opacity="1" fill-rule="nonzero"/></g></g></g></g></g></g><g clip-path="url(#414f62ea1b)"><g clip-path="url(#19f1abbb66)"><g transform="matrix(1, 0, 0, 1, 101, 37)"><g clip-path="url(#234ad2c14b)"><g clip-path="url(#7aa5f4061a)"><g clip-path="url(#82337b23e7)"><path fill="#ffffff" d="M 0.988281 0.5 L 43.035156 0.5 L 43.035156 42.546875 L 0.988281 42.546875 Z M 0.988281 0.5 " fill-opacity="1" fill-rule="nonzero"/></g></g></g></g></g></g><g clip-path="url(#9163479660)"><g clip-path="url(#50fd4d65f0)"><g transform="matrix(1, 0, 0, 1, 37, 295)"><g clip-path="url(#81a05da041)"><g clip-path="url(#c605094ea0)"><g clip-path="url(#1d56b1f435)"><path fill="#ffffff" d="M 0.5 0.453125 L 42.546875 0.453125 L 42.546875 42.5 L 0.5 42.5 Z M 0.5 0.453125 " fill-opacity="1" fill-rule="nonzero"/></g></g></g></g></g></g><g clip-path="url(#5407408d98)"><g clip-path="url(#933c354cad)"><g transform="matrix(1, 0, 0, 1, 295, 295)"><g clip-path="url(#c247e653a3)"><g clip-path="url(#be3d4df7c9)"><g clip-path="url(#b1b2be30f5)"><path fill="#ffffff" d="M 0.453125 0.453125 L 42.5 0.453125 L 42.5 42.5 L 0.453125 42.5 Z M 0.453125 0.453125 " fill-opacity="1" fill-rule="nonzero"/></g></g></g></g></g></g><g clip-path="url(#b462b7280e)"><g clip-path="url(#f5d7da0c28)"><g transform="matrix(1, 0, 0, 1, 231, 295)"><g clip-path="url(#993b1d398b)"><g clip-path="url(#c49a478958)"><g clip-path="url(#148f2341e3)"><path fill="#ffffff" d="M 0.0234375 0.453125 L 42.070312 0.453125 L 42.070312 42.5 L 0.0234375 42.5 Z M 0.0234375 0.453125 " fill-opacity="1" fill-rule="nonzero"/></g></g></g></g></g></g><g clip-path="url(#9fbb7809bf)"><g clip-path="url(#cf06e4aa3c)"><g transform="matrix(1, 0, 0, 1, 166, 295)"><g clip-path="url(#56d5e9882f)"><g clip-path="url(#176d7a229a)"><g clip-path="url(#fafa83404c)"><path fill="#000000" d="M 0.476562 0.453125 L 42.523438 0.453125 L 42.523438 42.5 L 0.476562 42.5 Z M 0.476562 0.453125 " fill-opacity="1" fill-rule="nonzero"/></g></g></g></g></g></g><g clip-path="url(#444c189f36)"><g clip-path="url(#b9a2f9204f)"><g transform="matrix(1, 0, 0, 1, 101, 295)"><g clip-path="url(#643d715223)"><g clip-path="url(#7604b0d6da)"><g clip-path="url(#bcee076aec)"><path fill="#ffffff" d="M 0.988281 0.453125 L 43.035156 0.453125 L 43.035156 42.5 L 0.988281 42.5 Z M 0.988281 0.453125 " fill-opacity="1" fill-rule="nonzero"/></g></g></g></g></g></g><g clip-path="url(#8791af32c9)"><g clip-path="url(#e1ba00fa6c)"><g transform="matrix(1, 0, 0, 1, 37, 166)"><g clip-path="url(#226cf1f3ad)"><g clip-path="url(#12ef4c6d1c)"><g clip-path="url(#b658274bb1)"><path fill="#ffffff" d="M 0.5 0.476562 L 42.546875 0.476562 L 42.546875 42.523438 L 0.5 42.523438 Z M 0.5 0.476562 " fill-opacity="1" fill-rule="nonzero"/></g></g></g></g></g></g><g clip-path="url(#600dfb0a96)"><g clip-path="url(#16e33ac1df)"><g transform="matrix(1, 0, 0, 1, 295, 166)"><g clip-path="url(#c43f6a9ab5)"><g clip-path="url(#ecfce65456)"><g clip-path="url(#beee12e23d)"><path fill="#ffffff" d="M 0.453125 0.476562 L 42.5 0.476562 L 42.5 42.523438 L 0.453125 42.523438 Z M 0.453125 0.476562 " fill-opacity="1" fill-rule="nonzero"/></g></g></g></g></g></g><g clip-path="url(#8b4d71d5da)"><g clip-path="url(#02aad33790)"><g transform="matrix(1, 0, 0, 1, 231, 166)"><g clip-path="url(#de3e99985b)"><g clip-path="url(#76ccdeb73c)"><g clip-path="url(#d1c713b762)"><path fill="#ffffff" d="M 0.0234375 0.476562 L 42.070312 0.476562 L 42.070312 42.523438 L 0.0234375 42.523438 Z M 0.0234375 0.476562 " fill-opacity="1" fill-rule="nonzero"/></g></g></g></g></g></g><g clip-path="url(#e1149bf15d)"><g clip-path="url(#624c204090)"><g transform="matrix(1, 0, 0, 1, 166, 166)"><g clip-path="url(#1b2fecf48b)"><g clip-path="url(#97ba13d8cc)"><g clip-path="url(#108d68ccd0)"><path fill="#ffffff" d="M 0.476562 0.476562 L 42.523438 0.476562 L 42.523438 42.523438 L 0.476562 42.523438 Z M 0.476562 0.476562 " fill-opacity="1" fill-rule="nonzero"/></g></g></g></g></g></g><g clip-path="url(#43fe22e6c6)"><g clip-path="url(#d50a30b849)"><g transform="matrix(1, 0, 0, 1, 101, 166)"><g clip-path="url(#4cf27f14bb)"><g clip-path="url(#bd5b209570)"><g clip-path="url(#4289da153c)"><path fill="#ffffff" d="M 0.988281 0.476562 L 43.035156 0.476562 L 43.035156 42.523438 L 0.988281 42.523438 Z M 0.988281 0.476562 " fill-opacity="1" fill-rule="nonzero"/></g></g></g></g></g></g><g clip-path="url(#acf1241c1c)"><g clip-path="url(#4e7ea33d51)"><g transform="matrix(1, 0, 0, 1, 37, 101)"><g clip-path="url(#f164e1cf9d)"><g clip-path="url(#143b84d1fe)"><g clip-path="url(#3dbba46bb6)"><path fill="#000000" d="M 0.5 0.988281 L 42.546875 0.988281 L 42.546875 43.035156 L 0.5 43.035156 Z M 0.5 0.988281 " fill-opacity="1" fill-rule="nonzero"/></g></g></g></g></g></g><g clip-path="url(#7fc645f8e1)"><g clip-path="url(#3a0ddc0789)"><g transform="matrix(1, 0, 0, 1, 295, 101)"><g clip-path="url(#9bb44a1d5d)"><g clip-path="url(#14017254d8)"><g clip-path="url(#45e37d09e4)"><path fill="#000000" d="M 0.453125 0.988281 L 42.5 0.988281 L 42.5 43.035156 L 0.453125 43.035156 Z M 0.453125 0.988281 " fill-opacity="1" fill-rule="nonzero"/></g></g></g></g></g></g><g clip-path="url(#c318ffd73a)"><g clip-path="url(#3e09c13417)"><g transform="matrix(1, 0, 0, 1, 231, 101)"><g clip-path="url(#ff95962674)"><g clip-path="url(#a9b84bddf8)"><g clip-path="url(#8f1d664b8b)"><path fill="#000000" d="M 0.0234375 0.988281 L 42.070312 0.988281 L 42.070312 43.035156 L 0.0234375 43.035156 Z M 0.0234375 0.988281 " fill-opacity="1" fill-rule="nonzero"/></g></g></g></g></g></g><g clip-path="url(#a8b3f590af)"><g clip-path="url(#ea3a356b9b)"><g transform="matrix(1, 0, 0, 1, 166, 101)"><g clip-path="url(#3ac2bce0a8)"><g clip-path="url(#02632b6113)"><g clip-path="url(#c2f3260527)"><path fill="#000000" d="M 0.476562 0.988281 L 42.523438 0.988281 L 42.523438 43.035156 L 0.476562 43.035156 Z M 0.476562 0.988281 " fill-opacity="1" fill-rule="nonzero"/></g></g></g></g></g></g><g clip-path="url(#b3bea01c66)"><g clip-path="url(#0e89372234)"><g transform="matrix(1, 0, 0, 1, 101, 101)"><g clip-path="url(#1d52bbf8b4)"><g clip-path="url(#d3c59afbd2)"><g clip-path="url(#b5cee17a0b)"><path fill="#000000" d="M 0.988281 0.988281 L 43.035156 0.988281 L 43.035156 43.035156 L 0.988281 43.035156 Z M 0.988281 0.988281 " fill-opacity="1" fill-rule="nonzero"/></g></g></g></g></g></g><g clip-path="url(#1d0b6aeb08)"><g clip-path="url(#96eb591082)"><g transform="matrix(1, 0, 0, 1, 37, 231)"><g clip-path="url(#3c73e132c8)"><g clip-path="url(#46642d7e03)"><g clip-path="url(#6e6aafb077)"><path fill="#000000" d="M 0.5 0.0234375 L 42.546875 0.0234375 L 42.546875 42.070312 L 0.5 42.070312 Z M 0.5 0.0234375 " fill-opacity="1" fill-rule="nonzero"/></g></g></g></g></g></g><g clip-path="url(#9c6fea9850)"><g clip-path="url(#f2e592782d)"><g transform="matrix(1, 0, 0, 1, 295, 231)"><g clip-path="url(#1f9f741955)"><g clip-path="url(#d1a34ebbda)"><g clip-path="url(#ad5b866f16)"><path fill="#000000" d="M 0.453125 0.0234375 L 42.5 0.0234375 L 42.5 42.070312 L 0.453125 42.070312 Z M 0.453125 0.0234375 " fill-opacity="1" fill-rule="nonzero"/></g></g></g></g></g></g><g clip-path="url(#8e970388f6)"><g clip-path="url(#0570ba3b3c)"><g transform="matrix(1, 0, 0, 1, 231, 231)"><g clip-path="url(#d9400b2db8)"><g clip-path="url(#42ca8d20ab)"><g clip-path="url(#d8e244e7a3)"><path fill="#000000" d="M 0.0234375 0.0234375 L 42.070312 0.0234375 L 42.070312 42.070312 L 0.0234375 42.070312 Z M 0.0234375 0.0234375 " fill-opacity="1" fill-rule="nonzero"/></g></g></g></g></g></g><g clip-path="url(#682f447585)"><g clip-path="url(#81b37157e3)"><g transform="matrix(1, 0, 0, 1, 166, 231)"><g clip-path="url(#b2a757c36b)"><g clip-path="url(#1cfea94eef)"><g clip-path="url(#f37eb227d2)"><path fill="#000000" d="M 0.476562 0.0234375 L 42.523438 0.0234375 L 42.523438 42.070312 L 0.476562 42.070312 Z M 0.476562 0.0234375 " fill-opacity="1" fill-rule="nonzero"/></g></g></g></g></g></g><g clip-path="url(#a9e34e4c87)"><g clip-path="url(#92904586f0)"><g transform="matrix(1, 0, 0, 1, 101, 231)"><g clip-path="url(#a5d13a5d21)"><g clip-path="url(#4032523ab5)"><g clip-path="url(#e57b0a7776)"><path fill="#000000" d="M 0.988281 0.0234375 L 43.035156 0.0234375 L 43.035156 42.070312 L 0.988281 42.070312 Z M 0.988281 0.0234375 " fill-opacity="1" fill-rule="nonzero"/></g></g></g></g></g></g></svg>