<svg xmlns="http://www.w3.org/2000/svg" xmlns:xlink="http://www.w3.org/1999/xlink" width="500" zoomAndPan="magnify" viewBox="0 0 375 374.999991" height="500" preserveAspectRatio="xMidYMid meet" version="1.0"><defs><clipPath id="d267d43e5e"><path d="M 37.5 37.5 L 79.546875 37.5 L 79.546875 79.546875 L 37.5 79.546875 Z M 37.5 37.5 " clip-rule="nonzero"/></clipPath><clipPath id="b82821b4b8"><path d="M 58.523438 37.5 C 46.914062 37.5 37.5 46.914062 37.5 58.523438 C 37.5 70.132812 46.914062 79.546875 58.523438 79.546875 C 70.132812 79.546875 79.546875 70.132812 79.546875 58.523438 C 79.546875 46.914062 70.132812 37.5 58.523438 37.5 Z M 58.523438 37.5 " clip-rule="nonzero"/></clipPath><clipPath id="8735d9a2a9"><path d="M 0.5 0.5 L 42.546875 0.5 L 42.546875 42.546875 L 0.5 42.546875 Z M 0.5 0.5 " clip-rule="nonzero"/></clipPath><clipPath id="5fdfa59481"><path d="M 21.523438 0.5 C 9.914062 0.5 0.5 9.914062 0.5 21.523438 C 0.5 33.132812 9.914062 42.546875 21.523438 42.546875 C 33.132812 42.546875 42.546875 33.132812 42.546875 21.523438 C 42.546875 9.914062 33.132812 0.5 21.523438 0.5 Z M 21.523438 0.5 " clip-rule="nonzero"/></clipPath><clipPath id="2bacbe59d0"><rect x="0" width="43" y="0" height="43"/></clipPath><clipPath id="4830f5b9b3"><path d="M 295.453125 37.5 L 337.5 37.5 L 337.5 79.546875 L 295.453125 79.546875 Z M 295.453125 37.5 " clip-rule="nonzero"/></clipPath><clipPath id="7fba63919c"><path d="M 316.476562 37.5 C 304.867188 37.5 295.453125 46.914062 295.453125 58.523438 C 295.453125 70.132812 304.867188 79.546875 316.476562 79.546875 C 328.085938 79.546875 337.5 70.132812 337.5 58.523438 C 337.5 46.914062 328.085938 37.5 316.476562 37.5 Z M 316.476562 37.5 " clip-rule="nonzero"/></clipPath><clipPath id="c5cfc0b20b"><path d="M 0.453125 0.5 L 42.5 0.5 L 42.5 42.546875 L 0.453125 42.546875 Z M 0.453125 0.5 " clip-rule="nonzero"/></clipPath><clipPath id="11484a1caa"><path d="M 21.476562 0.5 C 9.867188 0.5 0.453125 9.914062 0.453125 21.523438 C 0.453125 33.132812 9.867188 42.546875 21.476562 42.546875 C 33.085938 42.546875 42.5 33.132812 42.5 21.523438 C 42.5 9.914062 33.085938 0.5 21.476562 0.5 Z M 21.476562 0.5 " clip-rule="nonzero"/></clipPath><clipPath id="615277d2a0"><rect x="0" width="43" y="0" height="43"/></clipPath><clipPath id="fd7dfea0f2"><path d="M 231.023438 37.5 L 273.070312 37.5 L 273.070312 79.546875 L 231.023438 79.546875 Z M 231.023438 37.5 " clip-rule="nonzero"/></clipPath><clipPath id="ecc5548925"><path d="M 252.046875 37.5 C 240.433594 37.5 231.023438 46.914062 231.023438 58.523438 C 231.023438 70.132812 240.433594 79.546875 252.046875 79.546875 C 263.65625 79.546875 273.070312 70.132812 273.070312 58.523438 C 273.070312 46.914062 263.65625 37.5 252.046875 37.5 Z M 252.046875 37.5 " clip-rule="nonzero"/></clipPath><clipPath id="f5e189bdc9"><path d="M 0.0234375 0.5 L 42.070312 0.5 L 42.070312 42.546875 L 0.0234375 42.546875 Z M 0.0234375 0.5 " clip-rule="nonzero"/></clipPath><clipPath id="6c0fcd8bad"><path d="M 21.046875 0.5 C 9.433594 0.5 0.0234375 9.914062 0.0234375 21.523438 C 0.0234375 33.132812 9.433594 42.546875 21.046875 42.546875 C 32.65625 42.546875 42.070312 33.132812 42.070312 21.523438 C 42.070312 9.914062 32.65625 0.5 21.046875 0.5 Z M 21.046875 0.5 " clip-rule="nonzero"/></clipPath><clipPath id="cc432fc3a3"><rect x="0" width="43" y="0" height="43"/></clipPath><clipPath id="a7fbfab939"><path d="M 166.476562 37.5 L 208.523438 37.5 L 208.523438 79.546875 L 166.476562 79.546875 Z M 166.476562 37.5 " clip-rule="nonzero"/></clipPath><clipPath id="1adffa4a16"><path d="M 187.5 37.5 C 175.890625 37.5 166.476562 46.914062 166.476562 58.523438 C 166.476562 70.132812 175.890625 79.546875 187.5 79.546875 C 199.109375 79.546875 208.523438 70.132812 208.523438 58.523438 C 208.523438 46.914062 199.109375 37.5 187.5 37.5 Z M 187.5 37.5 " clip-rule="nonzero"/></clipPath><clipPath id="304d2978ad"><path d="M 0.476562 0.5 L 42.523438 0.5 L 42.523438 42.546875 L 0.476562 42.546875 Z M 0.476562 0.5 " clip-rule="nonzero"/></clipPath><clipPath id="df98c76bbf"><path d="M 21.5 0.5 C 9.890625 0.5 0.476562 9.914062 0.476562 21.523438 C 0.476562 33.132812 9.890625 42.546875 21.5 42.546875 C 33.109375 42.546875 42.523438 33.132812 42.523438 21.523438 C 42.523438 9.914062 33.109375 0.5 21.5 0.5 Z M 21.5 0.5 " clip-rule="nonzero"/></clipPath><clipPath id="061baaef4b"><rect x="0" width="43" y="0" height="43"/></clipPath><clipPath id="1cbe56d640"><path d="M 101.988281 37.5 L 144.035156 37.5 L 144.035156 79.546875 L 101.988281 79.546875 Z M 101.988281 37.5 " clip-rule="nonzero"/></clipPath><clipPath id="6aa9c610e4"><path d="M 123.011719 37.5 C 111.402344 37.5 101.988281 46.914062 101.988281 58.523438 C 101.988281 70.132812 111.402344 79.546875 123.011719 79.546875 C 134.621094 79.546875 144.035156 70.132812 144.035156 58.523438 C 144.035156 46.914062 134.621094 37.5 123.011719 37.5 Z M 123.011719 37.5 " clip-rule="nonzero"/></clipPath><clipPath id="7829163f52"><path d="M 0.988281 0.5 L 43.035156 0.5 L 43.035156 42.546875 L 0.988281 42.546875 Z M 0.988281 0.5 " clip-rule="nonzero"/></clipPath><clipPath id="f6b847b939"><path d="M 22.011719 0.5 C 10.402344 0.5 0.988281 9.914062 0.988281 21.523438 C 0.988281 33.132812 10.402344 42.546875 22.011719 42.546875 C 33.621094 42.546875 43.035156 33.132812 43.035156 21.523438 C 43.035156 9.914062 33.621094 0.5 22.011719 0.5 Z M 22.011719 0.5 " clip-rule="nonzero"/></clipPath><clipPath id="a0f5f0ebf9"><rect x="0" width="44" y="0" height="43"/></clipPath><clipPath id="63264ebebc"><path d="M 37.5 295.453125 L 79.546875 295.453125 L 79.546875 337.5 L 37.5 337.5 Z M 37.5 295.453125 " clip-rule="nonzero"/></clipPath><clipPath id="6df2dd1406"><path d="M 58.523438 295.453125 C 46.914062 295.453125 37.5 304.867188 37.5 316.476562 C 37.5 328.085938 46.914062 337.5 58.523438 337.5 C 70.132812 337.5 79.546875 328.085938 79.546875 316.476562 C 79.546875 304.867188 70.132812 295.453125 58.523438 295.453125 Z M 58.523438 295.453125 " clip-rule="nonzero"/></clipPath><clipPath id="bb48ec2529"><path d="M 0.5 0.453125 L 42.546875 0.453125 L 42.546875 42.5 L 0.5 42.5 Z M 0.5 0.453125 " clip-rule="nonzero"/></clipPath><clipPath id="d68219b995"><path d="M 21.523438 0.453125 C 9.914062 0.453125 0.5 9.867188 0.5 21.476562 C 0.5 33.085938 9.914062 42.5 21.523438 42.5 C 33.132812 42.5 42.546875 33.085938 42.546875 21.476562 C 42.546875 9.867188 33.132812 0.453125 21.523438 0.453125 Z M 21.523438 0.453125 " clip-rule="nonzero"/></clipPath><clipPath id="1dde74f260"><rect x="0" width="43" y="0" height="43"/></clipPath><clipPath id="368729ac97"><path d="M 295.453125 295.453125 L 337.5 295.453125 L 337.5 337.5 L 295.453125 337.5 Z M 295.453125 295.453125 " clip-rule="nonzero"/></clipPath><clipPath id="bfdbfa352b"><path d="M 316.476562 295.453125 C 304.867188 295.453125 295.453125 304.867188 295.453125 316.476562 C 295.453125 328.085938 304.867188 337.5 316.476562 337.5 C 328.085938 337.5 337.5 328.085938 337.5 316.476562 C 337.5 304.867188 328.085938 295.453125 316.476562 295.453125 Z M 316.476562 295.453125 " clip-rule="nonzero"/></clipPath><clipPath id="81ad65ff31"><path d="M 0.453125 0.453125 L 42.5 0.453125 L 42.5 42.5 L 0.453125 42.5 Z M 0.453125 0.453125 " clip-rule="nonzero"/></clipPath><clipPath id="e1778a4bab"><path d="M 21.476562 0.453125 C 9.867188 0.453125 0.453125 9.867188 0.453125 21.476562 C 0.453125 33.085938 9.867188 42.5 21.476562 42.5 C 33.085938 42.5 42.5 33.085938 42.5 21.476562 C 42.5 9.867188 33.085938 0.453125 21.476562 0.453125 Z M 21.476562 0.453125 " clip-rule="nonzero"/></clipPath><clipPath id="e062499472"><rect x="0" width="43" y="0" height="43"/></clipPath><clipPath id="f28692b692"><path d="M 231.023438 295.570312 L 273.070312 295.570312 L 273.070312 337.613281 L 231.023438 337.613281 Z M 231.023438 295.570312 " clip-rule="nonzero"/></clipPath><clipPath id="34cb9129be"><path d="M 252.046875 295.570312 C 240.433594 295.570312 231.023438 304.980469 231.023438 316.59375 C 231.023438 328.203125 240.433594 337.613281 252.046875 337.613281 C 263.65625 337.613281 273.070312 328.203125 273.070312 316.59375 C 273.070312 304.980469 263.65625 295.570312 252.046875 295.570312 Z M 252.046875 295.570312 " clip-rule="nonzero"/></clipPath><clipPath id="5c3baf535b"><path d="M 0.0234375 0.570312 L 42.070312 0.570312 L 42.070312 42.613281 L 0.0234375 42.613281 Z M 0.0234375 0.570312 " clip-rule="nonzero"/></clipPath><clipPath id="f8b36974c9"><path d="M 21.046875 0.570312 C 9.433594 0.570312 0.0234375 9.980469 0.0234375 21.59375 C 0.0234375 33.203125 9.433594 42.613281 21.046875 42.613281 C 32.65625 42.613281 42.070312 33.203125 42.070312 21.59375 C 42.070312 9.980469 32.65625 0.570312 21.046875 0.570312 Z M 21.046875 0.570312 " clip-rule="nonzero"/></clipPath><clipPath id="1f5dba33b9"><rect x="0" width="43" y="0" height="43"/></clipPath><clipPath id="f4ebff432e"><path d="M 166.476562 295.453125 L 208.523438 295.453125 L 208.523438 337.5 L 166.476562 337.5 Z M 166.476562 295.453125 " clip-rule="nonzero"/></clipPath><clipPath id="1e941779ad"><path d="M 187.5 295.453125 C 175.890625 295.453125 166.476562 304.867188 166.476562 316.476562 C 166.476562 328.085938 175.890625 337.5 187.5 337.5 C 199.109375 337.5 208.523438 328.085938 208.523438 316.476562 C 208.523438 304.867188 199.109375 295.453125 187.5 295.453125 Z M 187.5 295.453125 " clip-rule="nonzero"/></clipPath><clipPath id="deee5388d8"><path d="M 0.476562 0.453125 L 42.523438 0.453125 L 42.523438 42.5 L 0.476562 42.5 Z M 0.476562 0.453125 " clip-rule="nonzero"/></clipPath><clipPath id="b1b61a0976"><path d="M 21.5 0.453125 C 9.890625 0.453125 0.476562 9.867188 0.476562 21.476562 C 0.476562 33.085938 9.890625 42.5 21.5 42.5 C 33.109375 42.5 42.523438 33.085938 42.523438 21.476562 C 42.523438 9.867188 33.109375 0.453125 21.5 0.453125 Z M 21.5 0.453125 " clip-rule="nonzero"/></clipPath><clipPath id="91b398a938"><rect x="0" width="43" y="0" height="43"/></clipPath><clipPath id="213e62418f"><path d="M 101.988281 295.453125 L 144.035156 295.453125 L 144.035156 337.5 L 101.988281 337.5 Z M 101.988281 295.453125 " clip-rule="nonzero"/></clipPath><clipPath id="3572f70a9c"><path d="M 123.011719 295.453125 C 111.402344 295.453125 101.988281 304.867188 101.988281 316.476562 C 101.988281 328.085938 111.402344 337.5 123.011719 337.5 C 134.621094 337.5 144.035156 328.085938 144.035156 316.476562 C 144.035156 304.867188 134.621094 295.453125 123.011719 295.453125 Z M 123.011719 295.453125 " clip-rule="nonzero"/></clipPath><clipPath id="81f2ee81f4"><path d="M 0.988281 0.453125 L 43.035156 0.453125 L 43.035156 42.5 L 0.988281 42.5 Z M 0.988281 0.453125 " clip-rule="nonzero"/></clipPath><clipPath id="c3c6c8bfcd"><path d="M 22.011719 0.453125 C 10.402344 0.453125 0.988281 9.867188 0.988281 21.476562 C 0.988281 33.085938 10.402344 42.5 22.011719 42.5 C 33.621094 42.5 43.035156 33.085938 43.035156 21.476562 C 43.035156 9.867188 33.621094 0.453125 22.011719 0.453125 Z M 22.011719 0.453125 " clip-rule="nonzero"/></clipPath><clipPath id="2b8aa94811"><rect x="0" width="44" y="0" height="43"/></clipPath><clipPath id="d5f3571629"><path d="M 37.5 166.476562 L 79.546875 166.476562 L 79.546875 208.523438 L 37.5 208.523438 Z M 37.5 166.476562 " clip-rule="nonzero"/></clipPath><clipPath id="870823b65d"><path d="M 58.523438 166.476562 C 46.914062 166.476562 37.5 175.890625 37.5 187.5 C 37.5 199.109375 46.914062 208.523438 58.523438 208.523438 C 70.132812 208.523438 79.546875 199.109375 79.546875 187.5 C 79.546875 175.890625 70.132812 166.476562 58.523438 166.476562 Z M 58.523438 166.476562 " clip-rule="nonzero"/></clipPath><clipPath id="b6a7cf3d44"><path d="M 0.5 0.476562 L 42.546875 0.476562 L 42.546875 42.523438 L 0.5 42.523438 Z M 0.5 0.476562 " clip-rule="nonzero"/></clipPath><clipPath id="02f228fad1"><path d="M 21.523438 0.476562 C 9.914062 0.476562 0.5 9.890625 0.5 21.5 C 0.5 33.109375 9.914062 42.523438 21.523438 42.523438 C 33.132812 42.523438 42.546875 33.109375 42.546875 21.5 C 42.546875 9.890625 33.132812 0.476562 21.523438 0.476562 Z M 21.523438 0.476562 " clip-rule="nonzero"/></clipPath><clipPath id="a9bdbe846a"><rect x="0" width="43" y="0" height="43"/></clipPath><clipPath id="ed130b3113"><path d="M 295.453125 166.476562 L 337.5 166.476562 L 337.5 208.523438 L 295.453125 208.523438 Z M 295.453125 166.476562 " clip-rule="nonzero"/></clipPath><clipPath id="fc729aa90c"><path d="M 316.476562 166.476562 C 304.867188 166.476562 295.453125 175.890625 295.453125 187.5 C 295.453125 199.109375 304.867188 208.523438 316.476562 208.523438 C 328.085938 208.523438 337.5 199.109375 337.5 187.5 C 337.5 175.890625 328.085938 166.476562 316.476562 166.476562 Z M 316.476562 166.476562 " clip-rule="nonzero"/></clipPath><clipPath id="c9afd21b07"><path d="M 0.453125 0.476562 L 42.5 0.476562 L 42.5 42.523438 L 0.453125 42.523438 Z M 0.453125 0.476562 " clip-rule="nonzero"/></clipPath><clipPath id="86acbe2f89"><path d="M 21.476562 0.476562 C 9.867188 0.476562 0.453125 9.890625 0.453125 21.5 C 0.453125 33.109375 9.867188 42.523438 21.476562 42.523438 C 33.085938 42.523438 42.5 33.109375 42.5 21.5 C 42.5 9.890625 33.085938 0.476562 21.476562 0.476562 Z M 21.476562 0.476562 " clip-rule="nonzero"/></clipPath><clipPath id="b0c3888d9d"><rect x="0" width="43" y="0" height="43"/></clipPath><clipPath id="17718cbe8a"><path d="M 231.023438 166.476562 L 273.070312 166.476562 L 273.070312 208.523438 L 231.023438 208.523438 Z M 231.023438 166.476562 " clip-rule="nonzero"/></clipPath><clipPath id="3fe3f4f85a"><path d="M 252.046875 166.476562 C 240.433594 166.476562 231.023438 175.890625 231.023438 187.5 C 231.023438 199.109375 240.433594 208.523438 252.046875 208.523438 C 263.65625 208.523438 273.070312 199.109375 273.070312 187.5 C 273.070312 175.890625 263.65625 166.476562 252.046875 166.476562 Z M 252.046875 166.476562 " clip-rule="nonzero"/></clipPath><clipPath id="282835c7ea"><path d="M 0.0234375 0.476562 L 42.070312 0.476562 L 42.070312 42.523438 L 0.0234375 42.523438 Z M 0.0234375 0.476562 " clip-rule="nonzero"/></clipPath><clipPath id="35c1dc24fc"><path d="M 21.046875 0.476562 C 9.433594 0.476562 0.0234375 9.890625 0.0234375 21.5 C 0.0234375 33.109375 9.433594 42.523438 21.046875 42.523438 C 32.65625 42.523438 42.070312 33.109375 42.070312 21.5 C 42.070312 9.890625 32.65625 0.476562 21.046875 0.476562 Z M 21.046875 0.476562 " clip-rule="nonzero"/></clipPath><clipPath id="ce85f12787"><rect x="0" width="43" y="0" height="43"/></clipPath><clipPath id="bb91dc53a0"><path d="M 166.476562 166.476562 L 208.523438 166.476562 L 208.523438 208.523438 L 166.476562 208.523438 Z M 166.476562 166.476562 " clip-rule="nonzero"/></clipPath><clipPath id="8c1a39bec8"><path d="M 187.5 166.476562 C 175.890625 166.476562 166.476562 175.890625 166.476562 187.5 C 166.476562 199.109375 175.890625 208.523438 187.5 208.523438 C 199.109375 208.523438 208.523438 199.109375 208.523438 187.5 C 208.523438 175.890625 199.109375 166.476562 187.5 166.476562 Z M 187.5 166.476562 " clip-rule="nonzero"/></clipPath><clipPath id="16acdbdebe"><path d="M 0.476562 0.476562 L 42.523438 0.476562 L 42.523438 42.523438 L 0.476562 42.523438 Z M 0.476562 0.476562 " clip-rule="nonzero"/></clipPath><clipPath id="cdb59a3519"><path d="M 21.5 0.476562 C 9.890625 0.476562 0.476562 9.890625 0.476562 21.5 C 0.476562 33.109375 9.890625 42.523438 21.5 42.523438 C 33.109375 42.523438 42.523438 33.109375 42.523438 21.5 C 42.523438 9.890625 33.109375 0.476562 21.5 0.476562 Z M 21.5 0.476562 " clip-rule="nonzero"/></clipPath><clipPath id="d94f3456fe"><rect x="0" width="43" y="0" height="43"/></clipPath><clipPath id="62e1c45787"><path d="M 101.988281 166.476562 L 144.035156 166.476562 L 144.035156 208.523438 L 101.988281 208.523438 Z M 101.988281 166.476562 " clip-rule="nonzero"/></clipPath><clipPath id="28e0dc0c64"><path d="M 123.011719 166.476562 C 111.402344 166.476562 101.988281 175.890625 101.988281 187.5 C 101.988281 199.109375 111.402344 208.523438 123.011719 208.523438 C 134.621094 208.523438 144.035156 199.109375 144.035156 187.5 C 144.035156 175.890625 134.621094 166.476562 123.011719 166.476562 Z M 123.011719 166.476562 " clip-rule="nonzero"/></clipPath><clipPath id="861106dae6"><path d="M 0.988281 0.476562 L 43.035156 0.476562 L 43.035156 42.523438 L 0.988281 42.523438 Z M 0.988281 0.476562 " clip-rule="nonzero"/></clipPath><clipPath id="05ba3ec433"><path d="M 22.011719 0.476562 C 10.402344 0.476562 0.988281 9.890625 0.988281 21.5 C 0.988281 33.109375 10.402344 42.523438 22.011719 42.523438 C 33.621094 42.523438 43.035156 33.109375 43.035156 21.5 C 43.035156 9.890625 33.621094 0.476562 22.011719 0.476562 Z M 22.011719 0.476562 " clip-rule="nonzero"/></clipPath><clipPath id="1b19f70855"><rect x="0" width="44" y="0" height="43"/></clipPath><clipPath id="920f7a8324"><path d="M 37.5 101.988281 L 79.546875 101.988281 L 79.546875 144.035156 L 37.5 144.035156 Z M 37.5 101.988281 " clip-rule="nonzero"/></clipPath><clipPath id="786c7727d2"><path d="M 58.523438 101.988281 C 46.914062 101.988281 37.5 111.402344 37.5 123.011719 C 37.5 134.621094 46.914062 144.035156 58.523438 144.035156 C 70.132812 144.035156 79.546875 134.621094 79.546875 123.011719 C 79.546875 111.402344 70.132812 101.988281 58.523438 101.988281 Z M 58.523438 101.988281 " clip-rule="nonzero"/></clipPath><clipPath id="c5efbc263f"><path d="M 0.5 0.988281 L 42.546875 0.988281 L 42.546875 43.035156 L 0.5 43.035156 Z M 0.5 0.988281 " clip-rule="nonzero"/></clipPath><clipPath id="1e2f0967d1"><path d="M 21.523438 0.988281 C 9.914062 0.988281 0.5 10.402344 0.5 22.011719 C 0.5 33.621094 9.914062 43.035156 21.523438 43.035156 C 33.132812 43.035156 42.546875 33.621094 42.546875 22.011719 C 42.546875 10.402344 33.132812 0.988281 21.523438 0.988281 Z M 21.523438 0.988281 " clip-rule="nonzero"/></clipPath><clipPath id="217584a10e"><rect x="0" width="43" y="0" height="44"/></clipPath><clipPath id="a766856362"><path d="M 295.453125 101.988281 L 337.5 101.988281 L 337.5 144.035156 L 295.453125 144.035156 Z M 295.453125 101.988281 " clip-rule="nonzero"/></clipPath><clipPath id="af0d11f8b5"><path d="M 316.476562 101.988281 C 304.867188 101.988281 295.453125 111.402344 295.453125 123.011719 C 295.453125 134.621094 304.867188 144.035156 316.476562 144.035156 C 328.085938 144.035156 337.5 134.621094 337.5 123.011719 C 337.5 111.402344 328.085938 101.988281 316.476562 101.988281 Z M 316.476562 101.988281 " clip-rule="nonzero"/></clipPath><clipPath id="425ae25042"><path d="M 0.453125 0.988281 L 42.5 0.988281 L 42.5 43.035156 L 0.453125 43.035156 Z M 0.453125 0.988281 " clip-rule="nonzero"/></clipPath><clipPath id="ae54439d29"><path d="M 21.476562 0.988281 C 9.867188 0.988281 0.453125 10.402344 0.453125 22.011719 C 0.453125 33.621094 9.867188 43.035156 21.476562 43.035156 C 33.085938 43.035156 42.5 33.621094 42.5 22.011719 C 42.5 10.402344 33.085938 0.988281 21.476562 0.988281 Z M 21.476562 0.988281 " clip-rule="nonzero"/></clipPath><clipPath id="9f81afcf6f"><rect x="0" width="43" y="0" height="44"/></clipPath><clipPath id="99924c4c9a"><path d="M 231.023438 101.988281 L 273.070312 101.988281 L 273.070312 144.035156 L 231.023438 144.035156 Z M 231.023438 101.988281 " clip-rule="nonzero"/></clipPath><clipPath id="f431458fb6"><path d="M 252.046875 101.988281 C 240.433594 101.988281 231.023438 111.402344 231.023438 123.011719 C 231.023438 134.621094 240.433594 144.035156 252.046875 144.035156 C 263.65625 144.035156 273.070312 134.621094 273.070312 123.011719 C 273.070312 111.402344 263.65625 101.988281 252.046875 101.988281 Z M 252.046875 101.988281 " clip-rule="nonzero"/></clipPath><clipPath id="aea0e93dbf"><path d="M 0.0234375 0.988281 L 42.070312 0.988281 L 42.070312 43.035156 L 0.0234375 43.035156 Z M 0.0234375 0.988281 " clip-rule="nonzero"/></clipPath><clipPath id="f6e10a1c55"><path d="M 21.046875 0.988281 C 9.433594 0.988281 0.0234375 10.402344 0.0234375 22.011719 C 0.0234375 33.621094 9.433594 43.035156 21.046875 43.035156 C 32.65625 43.035156 42.070312 33.621094 42.070312 22.011719 C 42.070312 10.402344 32.65625 0.988281 21.046875 0.988281 Z M 21.046875 0.988281 " clip-rule="nonzero"/></clipPath><clipPath id="0ac4751e46"><rect x="0" width="43" y="0" height="44"/></clipPath><clipPath id="ca392b8668"><path d="M 166.476562 101.988281 L 208.523438 101.988281 L 208.523438 144.035156 L 166.476562 144.035156 Z M 166.476562 101.988281 " clip-rule="nonzero"/></clipPath><clipPath id="2028599223"><path d="M 187.5 101.988281 C 175.890625 101.988281 166.476562 111.402344 166.476562 123.011719 C 166.476562 134.621094 175.890625 144.035156 187.5 144.035156 C 199.109375 144.035156 208.523438 134.621094 208.523438 123.011719 C 208.523438 111.402344 199.109375 101.988281 187.5 101.988281 Z M 187.5 101.988281 " clip-rule="nonzero"/></clipPath><clipPath id="0425c78d5c"><path d="M 0.476562 0.988281 L 42.523438 0.988281 L 42.523438 43.035156 L 0.476562 43.035156 Z M 0.476562 0.988281 " clip-rule="nonzero"/></clipPath><clipPath id="591f1b62fd"><path d="M 21.5 0.988281 C 9.890625 0.988281 0.476562 10.402344 0.476562 22.011719 C 0.476562 33.621094 9.890625 43.035156 21.5 43.035156 C 33.109375 43.035156 42.523438 33.621094 42.523438 22.011719 C 42.523438 10.402344 33.109375 0.988281 21.5 0.988281 Z M 21.5 0.988281 " clip-rule="nonzero"/></clipPath><clipPath id="4540e66a57"><rect x="0" width="43" y="0" height="44"/></clipPath><clipPath id="99d4a3b45c"><path d="M 101.988281 101.988281 L 144.035156 101.988281 L 144.035156 144.035156 L 101.988281 144.035156 Z M 101.988281 101.988281 " clip-rule="nonzero"/></clipPath><clipPath id="0af63d29e1"><path d="M 123.011719 101.988281 C 111.402344 101.988281 101.988281 111.402344 101.988281 123.011719 C 101.988281 134.621094 111.402344 144.035156 123.011719 144.035156 C 134.621094 144.035156 144.035156 134.621094 144.035156 123.011719 C 144.035156 111.402344 134.621094 101.988281 123.011719 101.988281 Z M 123.011719 101.988281 " clip-rule="nonzero"/></clipPath><clipPath id="bec8c00f46"><path d="M 0.988281 0.988281 L 43.035156 0.988281 L 43.035156 43.035156 L 0.988281 43.035156 Z M 0.988281 0.988281 " clip-rule="nonzero"/></clipPath><clipPath id="d2025117fd"><path d="M 22.011719 0.988281 C 10.402344 0.988281 0.988281 10.402344 0.988281 22.011719 C 0.988281 33.621094 10.402344 43.035156 22.011719 43.035156 C 33.621094 43.035156 43.035156 33.621094 43.035156 22.011719 C 43.035156 10.402344 33.621094 0.988281 22.011719 0.988281 Z M 22.011719 0.988281 " clip-rule="nonzero"/></clipPath><clipPath id="6616864c10"><rect x="0" width="44" y="0" height="44"/></clipPath><clipPath id="b7439aacda"><path d="M 37.5 231.023438 L 79.546875 231.023438 L 79.546875 273.070312 L 37.5 273.070312 Z M 37.5 231.023438 " clip-rule="nonzero"/></clipPath><clipPath id="8c3e930ac1"><path d="M 58.523438 231.023438 C 46.914062 231.023438 37.5 240.433594 37.5 252.046875 C 37.5 263.65625 46.914062 273.070312 58.523438 273.070312 C 70.132812 273.070312 79.546875 263.65625 79.546875 252.046875 C 79.546875 240.433594 70.132812 231.023438 58.523438 231.023438 Z M 58.523438 231.023438 " clip-rule="nonzero"/></clipPath><clipPath id="eadadc2664"><path d="M 0.5 0.0234375 L 42.546875 0.0234375 L 42.546875 42.070312 L 0.5 42.070312 Z M 0.5 0.0234375 " clip-rule="nonzero"/></clipPath><clipPath id="52e59d7b28"><path d="M 21.523438 0.0234375 C 9.914062 0.0234375 0.5 9.433594 0.5 21.046875 C 0.5 32.65625 9.914062 42.070312 21.523438 42.070312 C 33.132812 42.070312 42.546875 32.65625 42.546875 21.046875 C 42.546875 9.433594 33.132812 0.0234375 21.523438 0.0234375 Z M 21.523438 0.0234375 " clip-rule="nonzero"/></clipPath><clipPath id="6ec68a4db7"><rect x="0" width="43" y="0" height="43"/></clipPath><clipPath id="b58a785ae3"><path d="M 295.453125 231.023438 L 337.5 231.023438 L 337.5 273.070312 L 295.453125 273.070312 Z M 295.453125 231.023438 " clip-rule="nonzero"/></clipPath><clipPath id="dad5e470ea"><path d="M 316.476562 231.023438 C 304.867188 231.023438 295.453125 240.433594 295.453125 252.046875 C 295.453125 263.65625 304.867188 273.070312 316.476562 273.070312 C 328.085938 273.070312 337.5 263.65625 337.5 252.046875 C 337.5 240.433594 328.085938 231.023438 316.476562 231.023438 Z M 316.476562 231.023438 " clip-rule="nonzero"/></clipPath><clipPath id="e5bd05f6da"><path d="M 0.453125 0.0234375 L 42.5 0.0234375 L 42.5 42.070312 L 0.453125 42.070312 Z M 0.453125 0.0234375 " clip-rule="nonzero"/></clipPath><clipPath id="cdf448879d"><path d="M 21.476562 0.0234375 C 9.867188 0.0234375 0.453125 9.433594 0.453125 21.046875 C 0.453125 32.65625 9.867188 42.070312 21.476562 42.070312 C 33.085938 42.070312 42.5 32.65625 42.5 21.046875 C 42.5 9.433594 33.085938 0.0234375 21.476562 0.0234375 Z M 21.476562 0.0234375 " clip-rule="nonzero"/></clipPath><clipPath id="c751556c95"><rect x="0" width="43" y="0" height="43"/></clipPath><clipPath id="fc9e367c92"><path d="M 231.023438 231.023438 L 273.070312 231.023438 L 273.070312 273.070312 L 231.023438 273.070312 Z M 231.023438 231.023438 " clip-rule="nonzero"/></clipPath><clipPath id="19f6c35150"><path d="M 252.046875 231.023438 C 240.433594 231.023438 231.023438 240.433594 231.023438 252.046875 C 231.023438 263.65625 240.433594 273.070312 252.046875 273.070312 C 263.65625 273.070312 273.070312 263.65625 273.070312 252.046875 C 273.070312 240.433594 263.65625 231.023438 252.046875 231.023438 Z M 252.046875 231.023438 " clip-rule="nonzero"/></clipPath><clipPath id="907856d19f"><path d="M 0.0234375 0.0234375 L 42.070312 0.0234375 L 42.070312 42.070312 L 0.0234375 42.070312 Z M 0.0234375 0.0234375 " clip-rule="nonzero"/></clipPath><clipPath id="e0d2de53e9"><path d="M 21.046875 0.0234375 C 9.433594 0.0234375 0.0234375 9.433594 0.0234375 21.046875 C 0.0234375 32.65625 9.433594 42.070312 21.046875 42.070312 C 32.65625 42.070312 42.070312 32.65625 42.070312 21.046875 C 42.070312 9.433594 32.65625 0.0234375 21.046875 0.0234375 Z M 21.046875 0.0234375 " clip-rule="nonzero"/></clipPath><clipPath id="58e02cc049"><rect x="0" width="43" y="0" height="43"/></clipPath><clipPath id="566bcd40c5"><path d="M 166.476562 231.023438 L 208.523438 231.023438 L 208.523438 273.070312 L 166.476562 273.070312 Z M 166.476562 231.023438 " clip-rule="nonzero"/></clipPath><clipPath id="342c2dfb04"><path d="M 187.5 231.023438 C 175.890625 231.023438 166.476562 240.433594 166.476562 252.046875 C 166.476562 263.65625 175.890625 273.070312 187.5 273.070312 C 199.109375 273.070312 208.523438 263.65625 208.523438 252.046875 C 208.523438 240.433594 199.109375 231.023438 187.5 231.023438 Z M 187.5 231.023438 " clip-rule="nonzero"/></clipPath><clipPath id="e90ef63e52"><path d="M 0.476562 0.0234375 L 42.523438 0.0234375 L 42.523438 42.070312 L 0.476562 42.070312 Z M 0.476562 0.0234375 " clip-rule="nonzero"/></clipPath><clipPath id="8d5410606d"><path d="M 21.5 0.0234375 C 9.890625 0.0234375 0.476562 9.433594 0.476562 21.046875 C 0.476562 32.65625 9.890625 42.070312 21.5 42.070312 C 33.109375 42.070312 42.523438 32.65625 42.523438 21.046875 C 42.523438 9.433594 33.109375 0.0234375 21.5 0.0234375 Z M 21.5 0.0234375 " clip-rule="nonzero"/></clipPath><clipPath id="3cde40f8bc"><rect x="0" width="43" y="0" height="43"/></clipPath><clipPath id="952c859f7f"><path d="M 101.988281 231.023438 L 144.035156 231.023438 L 144.035156 273.070312 L 101.988281 273.070312 Z M 101.988281 231.023438 " clip-rule="nonzero"/></clipPath><clipPath id="28ad6ebd0e"><path d="M 123.011719 231.023438 C 111.402344 231.023438 101.988281 240.433594 101.988281 252.046875 C 101.988281 263.65625 111.402344 273.070312 123.011719 273.070312 C 134.621094 273.070312 144.035156 263.65625 144.035156 252.046875 C 144.035156 240.433594 134.621094 231.023438 123.011719 231.023438 Z M 123.011719 231.023438 " clip-rule="nonzero"/></clipPath><clipPath id="5fa14949b9"><path d="M 0.988281 0.0234375 L 43.035156 0.0234375 L 43.035156 42.070312 L 0.988281 42.070312 Z M 0.988281 0.0234375 " clip-rule="nonzero"/></clipPath><clipPath id="deab559bb1"><path d="M 22.011719 0.0234375 C 10.402344 0.0234375 0.988281 9.433594 0.988281 21.046875 C 0.988281 32.65625 10.402344 42.070312 22.011719 42.070312 C 33.621094 42.070312 43.035156 32.65625 43.035156 21.046875 C 43.035156 9.433594 33.621094 0.0234375 22.011719 0.0234375 Z M 22.011719 0.0234375 " clip-rule="nonzero"/></clipPath><clipPath id="6cdc247286"><rect x="0" width="44" y="0" height="43"/></clipPath></defs><g clip-path="url(#d267d43e5e)"><g clip-path="url(#b82821b4b8)"><g transform="matrix(1, 0, 0, 1, 37, 37)"><g clip-path="url(#2bacbe59d0)"><g clip-path="url(#8735d9a2a9)"><g clip-path="url(#5fdfa59481)"><path fill="#ffffff" d="M 0.5 0.5 L 42.546875 0.5 L 42.546875 42.546875 L 0.5 42.546875 Z M 0.5 0.5 " fill-opacity="1" fill-rule="nonzero"/></g></g></g></g></g></g><g clip-path="url(#4830f5b9b3)"><g clip-path="url(#7fba63919c)"><g transform="matrix(1, 0, 0, 1, 295, 37)"><g clip-path="url(#615277d2a0)"><g clip-path="url(#c5cfc0b20b)"><g clip-path="url(#11484a1caa)"><path fill="#ffffff" d="M 0.453125 0.5 L 42.5 0.5 L 42.5 42.546875 L 0.453125 42.546875 Z M 0.453125 0.5 " fill-opacity="1" fill-rule="nonzero"/></g></g></g></g></g></g><g clip-path="url(#fd7dfea0f2)"><g clip-path="url(#ecc5548925)"><g transform="matrix(1, 0, 0, 1, 231, 37)"><g clip-path="url(#cc432fc3a3)"><g clip-path="url(#f5e189bdc9)"><g clip-path="url(#6c0fcd8bad)"><path fill="#8a05ff" d="M 0.0234375 0.5 L 42.070312 0.5 L 42.070312 42.546875 L 0.0234375 42.546875 Z M 0.0234375 0.5 " fill-opacity="1" fill-rule="nonzero"/></g></g></g></g></g></g><g clip-path="url(#a7fbfab939)"><g clip-path="url(#1adffa4a16)"><g transform="matrix(1, 0, 0, 1, 166, 37)"><g clip-path="url(#061baaef4b)"><g clip-path="url(#304d2978ad)"><g clip-path="url(#df98c76bbf)"><path fill="#ffffff" d="M 0.476562 0.5 L 42.523438 0.5 L 42.523438 42.546875 L 0.476562 42.546875 Z M 0.476562 0.5 " fill-opacity="1" fill-rule="nonzero"/></g></g></g></g></g></g><g clip-path="url(#1cbe56d640)"><g clip-path="url(#6aa9c610e4)"><g transform="matrix(1, 0, 0, 1, 101, 37)"><g clip-path="url(#a0f5f0ebf9)"><g clip-path="url(#7829163f52)"><g clip-path="url(#f6b847b939)"><path fill="#ffffff" d="M 0.988281 0.5 L 43.035156 0.5 L 43.035156 42.546875 L 0.988281 42.546875 Z M 0.988281 0.5 " fill-opacity="1" fill-rule="nonzero"/></g></g></g></g></g></g><g clip-path="url(#63264ebebc)"><g clip-path="url(#6df2dd1406)"><g transform="matrix(1, 0, 0, 1, 37, 295)"><g clip-path="url(#1dde74f260)"><g clip-path="url(#bb48ec2529)"><g clip-path="url(#d68219b995)"><path fill="#ffffff" d="M 0.5 0.453125 L 42.546875 0.453125 L 42.546875 42.5 L 0.5 42.5 Z M 0.5 0.453125 " fill-opacity="1" fill-rule="nonzero"/></g></g></g></g></g></g><g clip-path="url(#368729ac97)"><g clip-path="url(#bfdbfa352b)"><g transform="matrix(1, 0, 0, 1, 295, 295)"><g clip-path="url(#e062499472)"><g clip-path="url(#81ad65ff31)"><g clip-path="url(#e1778a4bab)"><path fill="#ffffff" d="M 0.453125 0.453125 L 42.5 0.453125 L 42.5 42.5 L 0.453125 42.5 Z M 0.453125 0.453125 " fill-opacity="1" fill-rule="nonzero"/></g></g></g></g></g></g><g clip-path="url(#f28692b692)"><g clip-path="url(#34cb9129be)"><g transform="matrix(1, 0, 0, 1, 231, 295)"><g clip-path="url(#1f5dba33b9)"><g clip-path="url(#5c3baf535b)"><g clip-path="url(#f8b36974c9)"><path fill="#ffffff" d="M 0.0234375 0.570312 L 42.070312 0.570312 L 42.070312 42.613281 L 0.0234375 42.613281 Z M 0.0234375 0.570312 " fill-opacity="1" fill-rule="nonzero"/></g></g></g></g></g></g><g clip-path="url(#f4ebff432e)"><g clip-path="url(#1e941779ad)"><g transform="matrix(1, 0, 0, 1, 166, 295)"><g clip-path="url(#91b398a938)"><g clip-path="url(#deee5388d8)"><g clip-path="url(#b1b61a0976)"><path fill="#8a05ff" d="M 0.476562 0.453125 L 42.523438 0.453125 L 42.523438 42.5 L 0.476562 42.5 Z M 0.476562 0.453125 " fill-opacity="1" fill-rule="nonzero"/></g></g></g></g></g></g><g clip-path="url(#213e62418f)"><g clip-path="url(#3572f70a9c)"><g transform="matrix(1, 0, 0, 1, 101, 295)"><g clip-path="url(#2b8aa94811)"><g clip-path="url(#81f2ee81f4)"><g clip-path="url(#c3c6c8bfcd)"><path fill="#ffffff" d="M 0.988281 0.453125 L 43.035156 0.453125 L 43.035156 42.5 L 0.988281 42.5 Z M 0.988281 0.453125 " fill-opacity="1" fill-rule="nonzero"/></g></g></g></g></g></g><g clip-path="url(#d5f3571629)"><g clip-path="url(#870823b65d)"><g transform="matrix(1, 0, 0, 1, 37, 166)"><g clip-path="url(#a9bdbe846a)"><g clip-path="url(#b6a7cf3d44)"><g clip-path="url(#02f228fad1)"><path fill="#ffffff" d="M 0.5 0.476562 L 42.546875 0.476562 L 42.546875 42.523438 L 0.5 42.523438 Z M 0.5 0.476562 " fill-opacity="1" fill-rule="nonzero"/></g></g></g></g></g></g><g clip-path="url(#ed130b3113)"><g clip-path="url(#fc729aa90c)"><g transform="matrix(1, 0, 0, 1, 295, 166)"><g clip-path="url(#b0c3888d9d)"><g clip-path="url(#c9afd21b07)"><g clip-path="url(#86acbe2f89)"><path fill="#ffffff" d="M 0.453125 0.476562 L 42.5 0.476562 L 42.5 42.523438 L 0.453125 42.523438 Z M 0.453125 0.476562 " fill-opacity="1" fill-rule="nonzero"/></g></g></g></g></g></g><g clip-path="url(#17718cbe8a)"><g clip-path="url(#3fe3f4f85a)"><g transform="matrix(1, 0, 0, 1, 231, 166)"><g clip-path="url(#ce85f12787)"><g clip-path="url(#282835c7ea)"><g clip-path="url(#35c1dc24fc)"><path fill="#ffffff" d="M 0.0234375 0.476562 L 42.070312 0.476562 L 42.070312 42.523438 L 0.0234375 42.523438 Z M 0.0234375 0.476562 " fill-opacity="1" fill-rule="nonzero"/></g></g></g></g></g></g><g clip-path="url(#bb91dc53a0)"><g clip-path="url(#8c1a39bec8)"><g transform="matrix(1, 0, 0, 1, 166, 166)"><g clip-path="url(#d94f3456fe)"><g clip-path="url(#16acdbdebe)"><g clip-path="url(#cdb59a3519)"><path fill="#ffffff" d="M 0.476562 0.476562 L 42.523438 0.476562 L 42.523438 42.523438 L 0.476562 42.523438 Z M 0.476562 0.476562 " fill-opacity="1" fill-rule="nonzero"/></g></g></g></g></g></g><g clip-path="url(#62e1c45787)"><g clip-path="url(#28e0dc0c64)"><g transform="matrix(1, 0, 0, 1, 101, 166)"><g clip-path="url(#1b19f70855)"><g clip-path="url(#861106dae6)"><g clip-path="url(#05ba3ec433)"><path fill="#ffffff" d="M 0.988281 0.476562 L 43.035156 0.476562 L 43.035156 42.523438 L 0.988281 42.523438 Z M 0.988281 0.476562 " fill-opacity="1" fill-rule="nonzero"/></g></g></g></g></g></g><g clip-path="url(#920f7a8324)"><g clip-path="url(#786c7727d2)"><g transform="matrix(1, 0, 0, 1, 37, 101)"><g clip-path="url(#217584a10e)"><g clip-path="url(#c5efbc263f)"><g clip-path="url(#1e2f0967d1)"><path fill="#8a05ff" d="M 0.5 0.988281 L 42.546875 0.988281 L 42.546875 43.035156 L 0.5 43.035156 Z M 0.5 0.988281 " fill-opacity="1" fill-rule="nonzero"/></g></g></g></g></g></g><g clip-path="url(#a766856362)"><g clip-path="url(#af0d11f8b5)"><g transform="matrix(1, 0, 0, 1, 295, 101)"><g clip-path="url(#9f81afcf6f)"><g clip-path="url(#425ae25042)"><g clip-path="url(#ae54439d29)"><path fill="#8a05ff" d="M 0.453125 0.988281 L 42.5 0.988281 L 42.5 43.035156 L 0.453125 43.035156 Z M 0.453125 0.988281 " fill-opacity="1" fill-rule="nonzero"/></g></g></g></g></g></g><g clip-path="url(#99924c4c9a)"><g clip-path="url(#f431458fb6)"><g transform="matrix(1, 0, 0, 1, 231, 101)"><g clip-path="url(#0ac4751e46)"><g clip-path="url(#aea0e93dbf)"><g clip-path="url(#f6e10a1c55)"><path fill="#8a05ff" d="M 0.0234375 0.988281 L 42.070312 0.988281 L 42.070312 43.035156 L 0.0234375 43.035156 Z M 0.0234375 0.988281 " fill-opacity="1" fill-rule="nonzero"/></g></g></g></g></g></g><g clip-path="url(#ca392b8668)"><g clip-path="url(#2028599223)"><g transform="matrix(1, 0, 0, 1, 166, 101)"><g clip-path="url(#4540e66a57)"><g clip-path="url(#0425c78d5c)"><g clip-path="url(#591f1b62fd)"><path fill="#8a05ff" d="M 0.476562 0.988281 L 42.523438 0.988281 L 42.523438 43.035156 L 0.476562 43.035156 Z M 0.476562 0.988281 " fill-opacity="1" fill-rule="nonzero"/></g></g></g></g></g></g><g clip-path="url(#99d4a3b45c)"><g clip-path="url(#0af63d29e1)"><g transform="matrix(1, 0, 0, 1, 101, 101)"><g clip-path="url(#6616864c10)"><g clip-path="url(#bec8c00f46)"><g clip-path="url(#d2025117fd)"><path fill="#8a05ff" d="M 0.988281 0.988281 L 43.035156 0.988281 L 43.035156 43.035156 L 0.988281 43.035156 Z M 0.988281 0.988281 " fill-opacity="1" fill-rule="nonzero"/></g></g></g></g></g></g><g clip-path="url(#b7439aacda)"><g clip-path="url(#8c3e930ac1)"><g transform="matrix(1, 0, 0, 1, 37, 231)"><g clip-path="url(#6ec68a4db7)"><g clip-path="url(#eadadc2664)"><g clip-path="url(#52e59d7b28)"><path fill="#8a05ff" d="M 0.5 0.0234375 L 42.546875 0.0234375 L 42.546875 42.070312 L 0.5 42.070312 Z M 0.5 0.0234375 " fill-opacity="1" fill-rule="nonzero"/></g></g></g></g></g></g><g clip-path="url(#b58a785ae3)"><g clip-path="url(#dad5e470ea)"><g transform="matrix(1, 0, 0, 1, 295, 231)"><g clip-path="url(#c751556c95)"><g clip-path="url(#e5bd05f6da)"><g clip-path="url(#cdf448879d)"><path fill="#8a05ff" d="M 0.453125 0.0234375 L 42.5 0.0234375 L 42.5 42.070312 L 0.453125 42.070312 Z M 0.453125 0.0234375 " fill-opacity="1" fill-rule="nonzero"/></g></g></g></g></g></g><g clip-path="url(#fc9e367c92)"><g clip-path="url(#19f6c35150)"><g transform="matrix(1, 0, 0, 1, 231, 231)"><g clip-path="url(#58e02cc049)"><g clip-path="url(#907856d19f)"><g clip-path="url(#e0d2de53e9)"><path fill="#8a05ff" d="M 0.0234375 0.0234375 L 42.070312 0.0234375 L 42.070312 42.070312 L 0.0234375 42.070312 Z M 0.0234375 0.0234375 " fill-opacity="1" fill-rule="nonzero"/></g></g></g></g></g></g><g clip-path="url(#566bcd40c5)"><g clip-path="url(#342c2dfb04)"><g transform="matrix(1, 0, 0, 1, 166, 231)"><g clip-path="url(#3cde40f8bc)"><g clip-path="url(#e90ef63e52)"><g clip-path="url(#8d5410606d)"><path fill="#8a05ff" d="M 0.476562 0.0234375 L 42.523438 0.0234375 L 42.523438 42.070312 L 0.476562 42.070312 Z M 0.476562 0.0234375 " fill-opacity="1" fill-rule="nonzero"/></g></g></g></g></g></g><g clip-path="url(#952c859f7f)"><g clip-path="url(#28ad6ebd0e)"><g transform="matrix(1, 0, 0, 1, 101, 231)"><g clip-path="url(#6cdc247286)"><g clip-path="url(#5fa14949b9)"><g clip-path="url(#deab559bb1)"><path fill="#8a05ff" d="M 0.988281 0.0234375 L 43.035156 0.0234375 L 43.035156 42.070312 L 0.988281 42.070312 Z M 0.988281 0.0234375 " fill-opacity="1" fill-rule="nonzero"/></g></g></g></g></g></g></svg>