<svg xmlns="http://www.w3.org/2000/svg" xmlns:xlink="http://www.w3.org/1999/xlink" width="500" zoomAndPan="magnify" viewBox="0 0 375 374.999991" height="500" preserveAspectRatio="xMidYMid meet" version="1.0"><defs><clipPath id="598497a6e9"><path d="M 37.5 37.5 L 79.546875 37.5 L 79.546875 79.546875 L 37.5 79.546875 Z M 37.5 37.5 " clip-rule="nonzero"/></clipPath><clipPath id="6509f4c664"><path d="M 58.523438 37.5 C 46.914062 37.5 37.5 46.914062 37.5 58.523438 C 37.5 70.132812 46.914062 79.546875 58.523438 79.546875 C 70.132812 79.546875 79.546875 70.132812 79.546875 58.523438 C 79.546875 46.914062 70.132812 37.5 58.523438 37.5 Z M 58.523438 37.5 " clip-rule="nonzero"/></clipPath><clipPath id="f09b27145d"><path d="M 0.5 0.5 L 42.546875 0.5 L 42.546875 42.546875 L 0.5 42.546875 Z M 0.5 0.5 " clip-rule="nonzero"/></clipPath><clipPath id="bab2672fd3"><path d="M 21.523438 0.5 C 9.914062 0.5 0.5 9.914062 0.5 21.523438 C 0.5 33.132812 9.914062 42.546875 21.523438 42.546875 C 33.132812 42.546875 42.546875 33.132812 42.546875 21.523438 C 42.546875 9.914062 33.132812 0.5 21.523438 0.5 Z M 21.523438 0.5 " clip-rule="nonzero"/></clipPath><clipPath id="fb4407c88b"><rect x="0" width="43" y="0" height="43"/></clipPath><clipPath id="1abf1b5c7b"><path d="M 295.453125 37.5 L 337.5 37.5 L 337.5 79.546875 L 295.453125 79.546875 Z M 295.453125 37.5 " clip-rule="nonzero"/></clipPath><clipPath id="3bed143758"><path d="M 316.476562 37.5 C 304.867188 37.5 295.453125 46.914062 295.453125 58.523438 C 295.453125 70.132812 304.867188 79.546875 316.476562 79.546875 C 328.085938 79.546875 337.5 70.132812 337.5 58.523438 C 337.5 46.914062 328.085938 37.5 316.476562 37.5 Z M 316.476562 37.5 " clip-rule="nonzero"/></clipPath><clipPath id="645be234d0"><path d="M 0.453125 0.5 L 42.5 0.5 L 42.5 42.546875 L 0.453125 42.546875 Z M 0.453125 0.5 " clip-rule="nonzero"/></clipPath><clipPath id="12e11ff3af"><path d="M 21.476562 0.5 C 9.867188 0.5 0.453125 9.914062 0.453125 21.523438 C 0.453125 33.132812 9.867188 42.546875 21.476562 42.546875 C 33.085938 42.546875 42.5 33.132812 42.5 21.523438 C 42.5 9.914062 33.085938 0.5 21.476562 0.5 Z M 21.476562 0.5 " clip-rule="nonzero"/></clipPath><clipPath id="304263091e"><rect x="0" width="43" y="0" height="43"/></clipPath><clipPath id="c38ead6023"><path d="M 231.023438 37.5 L 273.070312 37.5 L 273.070312 79.546875 L 231.023438 79.546875 Z M 231.023438 37.5 " clip-rule="nonzero"/></clipPath><clipPath id="dd2c4bd372"><path d="M 252.046875 37.5 C 240.433594 37.5 231.023438 46.914062 231.023438 58.523438 C 231.023438 70.132812 240.433594 79.546875 252.046875 79.546875 C 263.65625 79.546875 273.070312 70.132812 273.070312 58.523438 C 273.070312 46.914062 263.65625 37.5 252.046875 37.5 Z M 252.046875 37.5 " clip-rule="nonzero"/></clipPath><clipPath id="6b3d56df1e"><path d="M 0.0234375 0.5 L 42.070312 0.5 L 42.070312 42.546875 L 0.0234375 42.546875 Z M 0.0234375 0.5 " clip-rule="nonzero"/></clipPath><clipPath id="cc9dc35b30"><path d="M 21.046875 0.5 C 9.433594 0.5 0.0234375 9.914062 0.0234375 21.523438 C 0.0234375 33.132812 9.433594 42.546875 21.046875 42.546875 C 32.65625 42.546875 42.070312 33.132812 42.070312 21.523438 C 42.070312 9.914062 32.65625 0.5 21.046875 0.5 Z M 21.046875 0.5 " clip-rule="nonzero"/></clipPath><clipPath id="299bcf0a91"><rect x="0" width="43" y="0" height="43"/></clipPath><clipPath id="4d78aee91e"><path d="M 166.476562 37.5 L 208.523438 37.5 L 208.523438 79.546875 L 166.476562 79.546875 Z M 166.476562 37.5 " clip-rule="nonzero"/></clipPath><clipPath id="cfdb09aed7"><path d="M 187.5 37.5 C 175.890625 37.5 166.476562 46.914062 166.476562 58.523438 C 166.476562 70.132812 175.890625 79.546875 187.5 79.546875 C 199.109375 79.546875 208.523438 70.132812 208.523438 58.523438 C 208.523438 46.914062 199.109375 37.5 187.5 37.5 Z M 187.5 37.5 " clip-rule="nonzero"/></clipPath><clipPath id="70986f9ae2"><path d="M 0.476562 0.5 L 42.523438 0.5 L 42.523438 42.546875 L 0.476562 42.546875 Z M 0.476562 0.5 " clip-rule="nonzero"/></clipPath><clipPath id="499564c635"><path d="M 21.5 0.5 C 9.890625 0.5 0.476562 9.914062 0.476562 21.523438 C 0.476562 33.132812 9.890625 42.546875 21.5 42.546875 C 33.109375 42.546875 42.523438 33.132812 42.523438 21.523438 C 42.523438 9.914062 33.109375 0.5 21.5 0.5 Z M 21.5 0.5 " clip-rule="nonzero"/></clipPath><clipPath id="3b46ec2b7b"><rect x="0" width="43" y="0" height="43"/></clipPath><clipPath id="272ca57348"><path d="M 101.988281 37.5 L 144.035156 37.5 L 144.035156 79.546875 L 101.988281 79.546875 Z M 101.988281 37.5 " clip-rule="nonzero"/></clipPath><clipPath id="76ab4d4610"><path d="M 123.011719 37.5 C 111.402344 37.5 101.988281 46.914062 101.988281 58.523438 C 101.988281 70.132812 111.402344 79.546875 123.011719 79.546875 C 134.621094 79.546875 144.035156 70.132812 144.035156 58.523438 C 144.035156 46.914062 134.621094 37.5 123.011719 37.5 Z M 123.011719 37.5 " clip-rule="nonzero"/></clipPath><clipPath id="0609f7d179"><path d="M 0.988281 0.5 L 43.035156 0.5 L 43.035156 42.546875 L 0.988281 42.546875 Z M 0.988281 0.5 " clip-rule="nonzero"/></clipPath><clipPath id="d4761ba68c"><path d="M 22.011719 0.5 C 10.402344 0.5 0.988281 9.914062 0.988281 21.523438 C 0.988281 33.132812 10.402344 42.546875 22.011719 42.546875 C 33.621094 42.546875 43.035156 33.132812 43.035156 21.523438 C 43.035156 9.914062 33.621094 0.5 22.011719 0.5 Z M 22.011719 0.5 " clip-rule="nonzero"/></clipPath><clipPath id="d0e103658b"><rect x="0" width="44" y="0" height="43"/></clipPath><clipPath id="4ff1e59513"><path d="M 37.5 295.453125 L 79.546875 295.453125 L 79.546875 337.5 L 37.5 337.5 Z M 37.5 295.453125 " clip-rule="nonzero"/></clipPath><clipPath id="e586d98b08"><path d="M 58.523438 295.453125 C 46.914062 295.453125 37.5 304.867188 37.5 316.476562 C 37.5 328.085938 46.914062 337.5 58.523438 337.5 C 70.132812 337.5 79.546875 328.085938 79.546875 316.476562 C 79.546875 304.867188 70.132812 295.453125 58.523438 295.453125 Z M 58.523438 295.453125 " clip-rule="nonzero"/></clipPath><clipPath id="7e8a302fd3"><path d="M 0.5 0.453125 L 42.546875 0.453125 L 42.546875 42.5 L 0.5 42.5 Z M 0.5 0.453125 " clip-rule="nonzero"/></clipPath><clipPath id="0c524e943b"><path d="M 21.523438 0.453125 C 9.914062 0.453125 0.5 9.867188 0.5 21.476562 C 0.5 33.085938 9.914062 42.5 21.523438 42.5 C 33.132812 42.5 42.546875 33.085938 42.546875 21.476562 C 42.546875 9.867188 33.132812 0.453125 21.523438 0.453125 Z M 21.523438 0.453125 " clip-rule="nonzero"/></clipPath><clipPath id="c6ea381c53"><rect x="0" width="43" y="0" height="43"/></clipPath><clipPath id="f1c8951006"><path d="M 295.453125 295.453125 L 337.5 295.453125 L 337.5 337.5 L 295.453125 337.5 Z M 295.453125 295.453125 " clip-rule="nonzero"/></clipPath><clipPath id="d5edccb982"><path d="M 316.476562 295.453125 C 304.867188 295.453125 295.453125 304.867188 295.453125 316.476562 C 295.453125 328.085938 304.867188 337.5 316.476562 337.5 C 328.085938 337.5 337.5 328.085938 337.5 316.476562 C 337.5 304.867188 328.085938 295.453125 316.476562 295.453125 Z M 316.476562 295.453125 " clip-rule="nonzero"/></clipPath><clipPath id="ce0139489c"><path d="M 0.453125 0.453125 L 42.5 0.453125 L 42.5 42.5 L 0.453125 42.5 Z M 0.453125 0.453125 " clip-rule="nonzero"/></clipPath><clipPath id="4289e7a9f6"><path d="M 21.476562 0.453125 C 9.867188 0.453125 0.453125 9.867188 0.453125 21.476562 C 0.453125 33.085938 9.867188 42.5 21.476562 42.5 C 33.085938 42.5 42.5 33.085938 42.5 21.476562 C 42.5 9.867188 33.085938 0.453125 21.476562 0.453125 Z M 21.476562 0.453125 " clip-rule="nonzero"/></clipPath><clipPath id="7fa9112156"><rect x="0" width="43" y="0" height="43"/></clipPath><clipPath id="ee6aee1a24"><path d="M 231.023438 295.570312 L 273.070312 295.570312 L 273.070312 337.613281 L 231.023438 337.613281 Z M 231.023438 295.570312 " clip-rule="nonzero"/></clipPath><clipPath id="b9c6dc7243"><path d="M 252.046875 295.570312 C 240.433594 295.570312 231.023438 304.980469 231.023438 316.59375 C 231.023438 328.203125 240.433594 337.613281 252.046875 337.613281 C 263.65625 337.613281 273.070312 328.203125 273.070312 316.59375 C 273.070312 304.980469 263.65625 295.570312 252.046875 295.570312 Z M 252.046875 295.570312 " clip-rule="nonzero"/></clipPath><clipPath id="318b70abd9"><path d="M 0.0234375 0.570312 L 42.070312 0.570312 L 42.070312 42.613281 L 0.0234375 42.613281 Z M 0.0234375 0.570312 " clip-rule="nonzero"/></clipPath><clipPath id="000bdb7f0b"><path d="M 21.046875 0.570312 C 9.433594 0.570312 0.0234375 9.980469 0.0234375 21.59375 C 0.0234375 33.203125 9.433594 42.613281 21.046875 42.613281 C 32.65625 42.613281 42.070312 33.203125 42.070312 21.59375 C 42.070312 9.980469 32.65625 0.570312 21.046875 0.570312 Z M 21.046875 0.570312 " clip-rule="nonzero"/></clipPath><clipPath id="2a97a100f3"><rect x="0" width="43" y="0" height="43"/></clipPath><clipPath id="4ce6e59959"><path d="M 166.476562 295.453125 L 208.523438 295.453125 L 208.523438 337.5 L 166.476562 337.5 Z M 166.476562 295.453125 " clip-rule="nonzero"/></clipPath><clipPath id="4a7d6d5c9c"><path d="M 187.5 295.453125 C 175.890625 295.453125 166.476562 304.867188 166.476562 316.476562 C 166.476562 328.085938 175.890625 337.5 187.5 337.5 C 199.109375 337.5 208.523438 328.085938 208.523438 316.476562 C 208.523438 304.867188 199.109375 295.453125 187.5 295.453125 Z M 187.5 295.453125 " clip-rule="nonzero"/></clipPath><clipPath id="b6874bd959"><path d="M 0.476562 0.453125 L 42.523438 0.453125 L 42.523438 42.5 L 0.476562 42.5 Z M 0.476562 0.453125 " clip-rule="nonzero"/></clipPath><clipPath id="0d33626e09"><path d="M 21.5 0.453125 C 9.890625 0.453125 0.476562 9.867188 0.476562 21.476562 C 0.476562 33.085938 9.890625 42.5 21.5 42.5 C 33.109375 42.5 42.523438 33.085938 42.523438 21.476562 C 42.523438 9.867188 33.109375 0.453125 21.5 0.453125 Z M 21.5 0.453125 " clip-rule="nonzero"/></clipPath><clipPath id="148b4bbe53"><rect x="0" width="43" y="0" height="43"/></clipPath><clipPath id="00bc336adf"><path d="M 101.988281 295.453125 L 144.035156 295.453125 L 144.035156 337.5 L 101.988281 337.5 Z M 101.988281 295.453125 " clip-rule="nonzero"/></clipPath><clipPath id="2fca25b3a7"><path d="M 123.011719 295.453125 C 111.402344 295.453125 101.988281 304.867188 101.988281 316.476562 C 101.988281 328.085938 111.402344 337.5 123.011719 337.5 C 134.621094 337.5 144.035156 328.085938 144.035156 316.476562 C 144.035156 304.867188 134.621094 295.453125 123.011719 295.453125 Z M 123.011719 295.453125 " clip-rule="nonzero"/></clipPath><clipPath id="b818ed9ded"><path d="M 0.988281 0.453125 L 43.035156 0.453125 L 43.035156 42.5 L 0.988281 42.5 Z M 0.988281 0.453125 " clip-rule="nonzero"/></clipPath><clipPath id="b90524f36d"><path d="M 22.011719 0.453125 C 10.402344 0.453125 0.988281 9.867188 0.988281 21.476562 C 0.988281 33.085938 10.402344 42.5 22.011719 42.5 C 33.621094 42.5 43.035156 33.085938 43.035156 21.476562 C 43.035156 9.867188 33.621094 0.453125 22.011719 0.453125 Z M 22.011719 0.453125 " clip-rule="nonzero"/></clipPath><clipPath id="e3bce6b8b2"><rect x="0" width="44" y="0" height="43"/></clipPath><clipPath id="db76cb32cb"><path d="M 37.5 166.476562 L 79.546875 166.476562 L 79.546875 208.523438 L 37.5 208.523438 Z M 37.5 166.476562 " clip-rule="nonzero"/></clipPath><clipPath id="5c3587daf4"><path d="M 58.523438 166.476562 C 46.914062 166.476562 37.5 175.890625 37.5 187.5 C 37.5 199.109375 46.914062 208.523438 58.523438 208.523438 C 70.132812 208.523438 79.546875 199.109375 79.546875 187.5 C 79.546875 175.890625 70.132812 166.476562 58.523438 166.476562 Z M 58.523438 166.476562 " clip-rule="nonzero"/></clipPath><clipPath id="fd697992de"><path d="M 0.5 0.476562 L 42.546875 0.476562 L 42.546875 42.523438 L 0.5 42.523438 Z M 0.5 0.476562 " clip-rule="nonzero"/></clipPath><clipPath id="3f6298f07d"><path d="M 21.523438 0.476562 C 9.914062 0.476562 0.5 9.890625 0.5 21.5 C 0.5 33.109375 9.914062 42.523438 21.523438 42.523438 C 33.132812 42.523438 42.546875 33.109375 42.546875 21.5 C 42.546875 9.890625 33.132812 0.476562 21.523438 0.476562 Z M 21.523438 0.476562 " clip-rule="nonzero"/></clipPath><clipPath id="f85fa90453"><rect x="0" width="43" y="0" height="43"/></clipPath><clipPath id="93a6114127"><path d="M 295.453125 166.476562 L 337.5 166.476562 L 337.5 208.523438 L 295.453125 208.523438 Z M 295.453125 166.476562 " clip-rule="nonzero"/></clipPath><clipPath id="3b373a7529"><path d="M 316.476562 166.476562 C 304.867188 166.476562 295.453125 175.890625 295.453125 187.5 C 295.453125 199.109375 304.867188 208.523438 316.476562 208.523438 C 328.085938 208.523438 337.5 199.109375 337.5 187.5 C 337.5 175.890625 328.085938 166.476562 316.476562 166.476562 Z M 316.476562 166.476562 " clip-rule="nonzero"/></clipPath><clipPath id="38788c37d1"><path d="M 0.453125 0.476562 L 42.5 0.476562 L 42.5 42.523438 L 0.453125 42.523438 Z M 0.453125 0.476562 " clip-rule="nonzero"/></clipPath><clipPath id="fc216bc458"><path d="M 21.476562 0.476562 C 9.867188 0.476562 0.453125 9.890625 0.453125 21.5 C 0.453125 33.109375 9.867188 42.523438 21.476562 42.523438 C 33.085938 42.523438 42.5 33.109375 42.5 21.5 C 42.5 9.890625 33.085938 0.476562 21.476562 0.476562 Z M 21.476562 0.476562 " clip-rule="nonzero"/></clipPath><clipPath id="14db9b4588"><rect x="0" width="43" y="0" height="43"/></clipPath><clipPath id="f0f924de98"><path d="M 231.023438 166.476562 L 273.070312 166.476562 L 273.070312 208.523438 L 231.023438 208.523438 Z M 231.023438 166.476562 " clip-rule="nonzero"/></clipPath><clipPath id="790933c4a4"><path d="M 252.046875 166.476562 C 240.433594 166.476562 231.023438 175.890625 231.023438 187.5 C 231.023438 199.109375 240.433594 208.523438 252.046875 208.523438 C 263.65625 208.523438 273.070312 199.109375 273.070312 187.5 C 273.070312 175.890625 263.65625 166.476562 252.046875 166.476562 Z M 252.046875 166.476562 " clip-rule="nonzero"/></clipPath><clipPath id="dc780a1fa0"><path d="M 0.0234375 0.476562 L 42.070312 0.476562 L 42.070312 42.523438 L 0.0234375 42.523438 Z M 0.0234375 0.476562 " clip-rule="nonzero"/></clipPath><clipPath id="55d4871f8d"><path d="M 21.046875 0.476562 C 9.433594 0.476562 0.0234375 9.890625 0.0234375 21.5 C 0.0234375 33.109375 9.433594 42.523438 21.046875 42.523438 C 32.65625 42.523438 42.070312 33.109375 42.070312 21.5 C 42.070312 9.890625 32.65625 0.476562 21.046875 0.476562 Z M 21.046875 0.476562 " clip-rule="nonzero"/></clipPath><clipPath id="460098109f"><rect x="0" width="43" y="0" height="43"/></clipPath><clipPath id="d7adc184c9"><path d="M 166.476562 166.476562 L 208.523438 166.476562 L 208.523438 208.523438 L 166.476562 208.523438 Z M 166.476562 166.476562 " clip-rule="nonzero"/></clipPath><clipPath id="aaf389813f"><path d="M 187.5 166.476562 C 175.890625 166.476562 166.476562 175.890625 166.476562 187.5 C 166.476562 199.109375 175.890625 208.523438 187.5 208.523438 C 199.109375 208.523438 208.523438 199.109375 208.523438 187.5 C 208.523438 175.890625 199.109375 166.476562 187.5 166.476562 Z M 187.5 166.476562 " clip-rule="nonzero"/></clipPath><clipPath id="4d08ea2648"><path d="M 0.476562 0.476562 L 42.523438 0.476562 L 42.523438 42.523438 L 0.476562 42.523438 Z M 0.476562 0.476562 " clip-rule="nonzero"/></clipPath><clipPath id="b117971ca9"><path d="M 21.5 0.476562 C 9.890625 0.476562 0.476562 9.890625 0.476562 21.5 C 0.476562 33.109375 9.890625 42.523438 21.5 42.523438 C 33.109375 42.523438 42.523438 33.109375 42.523438 21.5 C 42.523438 9.890625 33.109375 0.476562 21.5 0.476562 Z M 21.5 0.476562 " clip-rule="nonzero"/></clipPath><clipPath id="713f5ec0ea"><rect x="0" width="43" y="0" height="43"/></clipPath><clipPath id="836de8ed16"><path d="M 101.988281 166.476562 L 144.035156 166.476562 L 144.035156 208.523438 L 101.988281 208.523438 Z M 101.988281 166.476562 " clip-rule="nonzero"/></clipPath><clipPath id="31c4178d13"><path d="M 123.011719 166.476562 C 111.402344 166.476562 101.988281 175.890625 101.988281 187.5 C 101.988281 199.109375 111.402344 208.523438 123.011719 208.523438 C 134.621094 208.523438 144.035156 199.109375 144.035156 187.5 C 144.035156 175.890625 134.621094 166.476562 123.011719 166.476562 Z M 123.011719 166.476562 " clip-rule="nonzero"/></clipPath><clipPath id="5dba60f60d"><path d="M 0.988281 0.476562 L 43.035156 0.476562 L 43.035156 42.523438 L 0.988281 42.523438 Z M 0.988281 0.476562 " clip-rule="nonzero"/></clipPath><clipPath id="417edf8c66"><path d="M 22.011719 0.476562 C 10.402344 0.476562 0.988281 9.890625 0.988281 21.5 C 0.988281 33.109375 10.402344 42.523438 22.011719 42.523438 C 33.621094 42.523438 43.035156 33.109375 43.035156 21.5 C 43.035156 9.890625 33.621094 0.476562 22.011719 0.476562 Z M 22.011719 0.476562 " clip-rule="nonzero"/></clipPath><clipPath id="36dd182217"><rect x="0" width="44" y="0" height="43"/></clipPath><clipPath id="523e1ba460"><path d="M 37.5 101.988281 L 79.546875 101.988281 L 79.546875 144.035156 L 37.5 144.035156 Z M 37.5 101.988281 " clip-rule="nonzero"/></clipPath><clipPath id="3e1dd3d309"><path d="M 58.523438 101.988281 C 46.914062 101.988281 37.5 111.402344 37.5 123.011719 C 37.5 134.621094 46.914062 144.035156 58.523438 144.035156 C 70.132812 144.035156 79.546875 134.621094 79.546875 123.011719 C 79.546875 111.402344 70.132812 101.988281 58.523438 101.988281 Z M 58.523438 101.988281 " clip-rule="nonzero"/></clipPath><clipPath id="752131a8df"><path d="M 0.5 0.988281 L 42.546875 0.988281 L 42.546875 43.035156 L 0.5 43.035156 Z M 0.5 0.988281 " clip-rule="nonzero"/></clipPath><clipPath id="5a5e877601"><path d="M 21.523438 0.988281 C 9.914062 0.988281 0.5 10.402344 0.5 22.011719 C 0.5 33.621094 9.914062 43.035156 21.523438 43.035156 C 33.132812 43.035156 42.546875 33.621094 42.546875 22.011719 C 42.546875 10.402344 33.132812 0.988281 21.523438 0.988281 Z M 21.523438 0.988281 " clip-rule="nonzero"/></clipPath><clipPath id="62217e94ad"><rect x="0" width="43" y="0" height="44"/></clipPath><clipPath id="cc8232e448"><path d="M 295.453125 101.988281 L 337.5 101.988281 L 337.5 144.035156 L 295.453125 144.035156 Z M 295.453125 101.988281 " clip-rule="nonzero"/></clipPath><clipPath id="6b0562876e"><path d="M 316.476562 101.988281 C 304.867188 101.988281 295.453125 111.402344 295.453125 123.011719 C 295.453125 134.621094 304.867188 144.035156 316.476562 144.035156 C 328.085938 144.035156 337.5 134.621094 337.5 123.011719 C 337.5 111.402344 328.085938 101.988281 316.476562 101.988281 Z M 316.476562 101.988281 " clip-rule="nonzero"/></clipPath><clipPath id="3ec548803f"><path d="M 0.453125 0.988281 L 42.5 0.988281 L 42.5 43.035156 L 0.453125 43.035156 Z M 0.453125 0.988281 " clip-rule="nonzero"/></clipPath><clipPath id="c81d12de06"><path d="M 21.476562 0.988281 C 9.867188 0.988281 0.453125 10.402344 0.453125 22.011719 C 0.453125 33.621094 9.867188 43.035156 21.476562 43.035156 C 33.085938 43.035156 42.5 33.621094 42.5 22.011719 C 42.5 10.402344 33.085938 0.988281 21.476562 0.988281 Z M 21.476562 0.988281 " clip-rule="nonzero"/></clipPath><clipPath id="8418aad085"><rect x="0" width="43" y="0" height="44"/></clipPath><clipPath id="f3a9dd0441"><path d="M 231.023438 101.988281 L 273.070312 101.988281 L 273.070312 144.035156 L 231.023438 144.035156 Z M 231.023438 101.988281 " clip-rule="nonzero"/></clipPath><clipPath id="326144042f"><path d="M 252.046875 101.988281 C 240.433594 101.988281 231.023438 111.402344 231.023438 123.011719 C 231.023438 134.621094 240.433594 144.035156 252.046875 144.035156 C 263.65625 144.035156 273.070312 134.621094 273.070312 123.011719 C 273.070312 111.402344 263.65625 101.988281 252.046875 101.988281 Z M 252.046875 101.988281 " clip-rule="nonzero"/></clipPath><clipPath id="ca26b29a45"><path d="M 0.0234375 0.988281 L 42.070312 0.988281 L 42.070312 43.035156 L 0.0234375 43.035156 Z M 0.0234375 0.988281 " clip-rule="nonzero"/></clipPath><clipPath id="9441248717"><path d="M 21.046875 0.988281 C 9.433594 0.988281 0.0234375 10.402344 0.0234375 22.011719 C 0.0234375 33.621094 9.433594 43.035156 21.046875 43.035156 C 32.65625 43.035156 42.070312 33.621094 42.070312 22.011719 C 42.070312 10.402344 32.65625 0.988281 21.046875 0.988281 Z M 21.046875 0.988281 " clip-rule="nonzero"/></clipPath><clipPath id="19aa49046d"><rect x="0" width="43" y="0" height="44"/></clipPath><clipPath id="0d13364824"><path d="M 166.476562 101.988281 L 208.523438 101.988281 L 208.523438 144.035156 L 166.476562 144.035156 Z M 166.476562 101.988281 " clip-rule="nonzero"/></clipPath><clipPath id="02fa8cb92f"><path d="M 187.5 101.988281 C 175.890625 101.988281 166.476562 111.402344 166.476562 123.011719 C 166.476562 134.621094 175.890625 144.035156 187.5 144.035156 C 199.109375 144.035156 208.523438 134.621094 208.523438 123.011719 C 208.523438 111.402344 199.109375 101.988281 187.5 101.988281 Z M 187.5 101.988281 " clip-rule="nonzero"/></clipPath><clipPath id="66a6814852"><path d="M 0.476562 0.988281 L 42.523438 0.988281 L 42.523438 43.035156 L 0.476562 43.035156 Z M 0.476562 0.988281 " clip-rule="nonzero"/></clipPath><clipPath id="f1f15b2f65"><path d="M 21.5 0.988281 C 9.890625 0.988281 0.476562 10.402344 0.476562 22.011719 C 0.476562 33.621094 9.890625 43.035156 21.5 43.035156 C 33.109375 43.035156 42.523438 33.621094 42.523438 22.011719 C 42.523438 10.402344 33.109375 0.988281 21.5 0.988281 Z M 21.5 0.988281 " clip-rule="nonzero"/></clipPath><clipPath id="da774e5965"><rect x="0" width="43" y="0" height="44"/></clipPath><clipPath id="3f5f737293"><path d="M 101.988281 101.988281 L 144.035156 101.988281 L 144.035156 144.035156 L 101.988281 144.035156 Z M 101.988281 101.988281 " clip-rule="nonzero"/></clipPath><clipPath id="8f90185c0f"><path d="M 123.011719 101.988281 C 111.402344 101.988281 101.988281 111.402344 101.988281 123.011719 C 101.988281 134.621094 111.402344 144.035156 123.011719 144.035156 C 134.621094 144.035156 144.035156 134.621094 144.035156 123.011719 C 144.035156 111.402344 134.621094 101.988281 123.011719 101.988281 Z M 123.011719 101.988281 " clip-rule="nonzero"/></clipPath><clipPath id="3e35e423f9"><path d="M 0.988281 0.988281 L 43.035156 0.988281 L 43.035156 43.035156 L 0.988281 43.035156 Z M 0.988281 0.988281 " clip-rule="nonzero"/></clipPath><clipPath id="bc840019e0"><path d="M 22.011719 0.988281 C 10.402344 0.988281 0.988281 10.402344 0.988281 22.011719 C 0.988281 33.621094 10.402344 43.035156 22.011719 43.035156 C 33.621094 43.035156 43.035156 33.621094 43.035156 22.011719 C 43.035156 10.402344 33.621094 0.988281 22.011719 0.988281 Z M 22.011719 0.988281 " clip-rule="nonzero"/></clipPath><clipPath id="7090b40daf"><rect x="0" width="44" y="0" height="44"/></clipPath><clipPath id="80ef715387"><path d="M 37.5 231.023438 L 79.546875 231.023438 L 79.546875 273.070312 L 37.5 273.070312 Z M 37.5 231.023438 " clip-rule="nonzero"/></clipPath><clipPath id="30b9dcc4e3"><path d="M 58.523438 231.023438 C 46.914062 231.023438 37.5 240.433594 37.5 252.046875 C 37.5 263.65625 46.914062 273.070312 58.523438 273.070312 C 70.132812 273.070312 79.546875 263.65625 79.546875 252.046875 C 79.546875 240.433594 70.132812 231.023438 58.523438 231.023438 Z M 58.523438 231.023438 " clip-rule="nonzero"/></clipPath><clipPath id="00840b68cf"><path d="M 0.5 0.0234375 L 42.546875 0.0234375 L 42.546875 42.070312 L 0.5 42.070312 Z M 0.5 0.0234375 " clip-rule="nonzero"/></clipPath><clipPath id="3b3773a978"><path d="M 21.523438 0.0234375 C 9.914062 0.0234375 0.5 9.433594 0.5 21.046875 C 0.5 32.65625 9.914062 42.070312 21.523438 42.070312 C 33.132812 42.070312 42.546875 32.65625 42.546875 21.046875 C 42.546875 9.433594 33.132812 0.0234375 21.523438 0.0234375 Z M 21.523438 0.0234375 " clip-rule="nonzero"/></clipPath><clipPath id="c5439b6356"><rect x="0" width="43" y="0" height="43"/></clipPath><clipPath id="054e6f6e08"><path d="M 295.453125 231.023438 L 337.5 231.023438 L 337.5 273.070312 L 295.453125 273.070312 Z M 295.453125 231.023438 " clip-rule="nonzero"/></clipPath><clipPath id="6643b2c9a3"><path d="M 316.476562 231.023438 C 304.867188 231.023438 295.453125 240.433594 295.453125 252.046875 C 295.453125 263.65625 304.867188 273.070312 316.476562 273.070312 C 328.085938 273.070312 337.5 263.65625 337.5 252.046875 C 337.5 240.433594 328.085938 231.023438 316.476562 231.023438 Z M 316.476562 231.023438 " clip-rule="nonzero"/></clipPath><clipPath id="dcafdd1590"><path d="M 0.453125 0.0234375 L 42.5 0.0234375 L 42.5 42.070312 L 0.453125 42.070312 Z M 0.453125 0.0234375 " clip-rule="nonzero"/></clipPath><clipPath id="475427954a"><path d="M 21.476562 0.0234375 C 9.867188 0.0234375 0.453125 9.433594 0.453125 21.046875 C 0.453125 32.65625 9.867188 42.070312 21.476562 42.070312 C 33.085938 42.070312 42.5 32.65625 42.5 21.046875 C 42.5 9.433594 33.085938 0.0234375 21.476562 0.0234375 Z M 21.476562 0.0234375 " clip-rule="nonzero"/></clipPath><clipPath id="c72b49e5ca"><rect x="0" width="43" y="0" height="43"/></clipPath><clipPath id="dd5e4d51c0"><path d="M 231.023438 231.023438 L 273.070312 231.023438 L 273.070312 273.070312 L 231.023438 273.070312 Z M 231.023438 231.023438 " clip-rule="nonzero"/></clipPath><clipPath id="503e0b877b"><path d="M 252.046875 231.023438 C 240.433594 231.023438 231.023438 240.433594 231.023438 252.046875 C 231.023438 263.65625 240.433594 273.070312 252.046875 273.070312 C 263.65625 273.070312 273.070312 263.65625 273.070312 252.046875 C 273.070312 240.433594 263.65625 231.023438 252.046875 231.023438 Z M 252.046875 231.023438 " clip-rule="nonzero"/></clipPath><clipPath id="3346538853"><path d="M 0.0234375 0.0234375 L 42.070312 0.0234375 L 42.070312 42.070312 L 0.0234375 42.070312 Z M 0.0234375 0.0234375 " clip-rule="nonzero"/></clipPath><clipPath id="0a499c4cbc"><path d="M 21.046875 0.0234375 C 9.433594 0.0234375 0.0234375 9.433594 0.0234375 21.046875 C 0.0234375 32.65625 9.433594 42.070312 21.046875 42.070312 C 32.65625 42.070312 42.070312 32.65625 42.070312 21.046875 C 42.070312 9.433594 32.65625 0.0234375 21.046875 0.0234375 Z M 21.046875 0.0234375 " clip-rule="nonzero"/></clipPath><clipPath id="6f7db55a4f"><rect x="0" width="43" y="0" height="43"/></clipPath><clipPath id="577bdff4dc"><path d="M 166.476562 231.023438 L 208.523438 231.023438 L 208.523438 273.070312 L 166.476562 273.070312 Z M 166.476562 231.023438 " clip-rule="nonzero"/></clipPath><clipPath id="b283a8a1ae"><path d="M 187.5 231.023438 C 175.890625 231.023438 166.476562 240.433594 166.476562 252.046875 C 166.476562 263.65625 175.890625 273.070312 187.5 273.070312 C 199.109375 273.070312 208.523438 263.65625 208.523438 252.046875 C 208.523438 240.433594 199.109375 231.023438 187.5 231.023438 Z M 187.5 231.023438 " clip-rule="nonzero"/></clipPath><clipPath id="052f86fdb5"><path d="M 0.476562 0.0234375 L 42.523438 0.0234375 L 42.523438 42.070312 L 0.476562 42.070312 Z M 0.476562 0.0234375 " clip-rule="nonzero"/></clipPath><clipPath id="49c5f7f020"><path d="M 21.5 0.0234375 C 9.890625 0.0234375 0.476562 9.433594 0.476562 21.046875 C 0.476562 32.65625 9.890625 42.070312 21.5 42.070312 C 33.109375 42.070312 42.523438 32.65625 42.523438 21.046875 C 42.523438 9.433594 33.109375 0.0234375 21.5 0.0234375 Z M 21.5 0.0234375 " clip-rule="nonzero"/></clipPath><clipPath id="1e2267d735"><rect x="0" width="43" y="0" height="43"/></clipPath><clipPath id="ff47c2afb6"><path d="M 101.988281 231.023438 L 144.035156 231.023438 L 144.035156 273.070312 L 101.988281 273.070312 Z M 101.988281 231.023438 " clip-rule="nonzero"/></clipPath><clipPath id="319b80fb98"><path d="M 123.011719 231.023438 C 111.402344 231.023438 101.988281 240.433594 101.988281 252.046875 C 101.988281 263.65625 111.402344 273.070312 123.011719 273.070312 C 134.621094 273.070312 144.035156 263.65625 144.035156 252.046875 C 144.035156 240.433594 134.621094 231.023438 123.011719 231.023438 Z M 123.011719 231.023438 " clip-rule="nonzero"/></clipPath><clipPath id="4e4f2f8281"><path d="M 0.988281 0.0234375 L 43.035156 0.0234375 L 43.035156 42.070312 L 0.988281 42.070312 Z M 0.988281 0.0234375 " clip-rule="nonzero"/></clipPath><clipPath id="3c0de007a6"><path d="M 22.011719 0.0234375 C 10.402344 0.0234375 0.988281 9.433594 0.988281 21.046875 C 0.988281 32.65625 10.402344 42.070312 22.011719 42.070312 C 33.621094 42.070312 43.035156 32.65625 43.035156 21.046875 C 43.035156 9.433594 33.621094 0.0234375 22.011719 0.0234375 Z M 22.011719 0.0234375 " clip-rule="nonzero"/></clipPath><clipPath id="576a11803d"><rect x="0" width="44" y="0" height="43"/></clipPath></defs><g clip-path="url(#598497a6e9)"><g clip-path="url(#6509f4c664)"><g transform="matrix(1, 0, 0, 1, 37, 37)"><g clip-path="url(#fb4407c88b)"><g clip-path="url(#f09b27145d)"><g clip-path="url(#bab2672fd3)"><path fill="#000000" d="M 0.5 0.5 L 42.546875 0.5 L 42.546875 42.546875 L 0.5 42.546875 Z M 0.5 0.5 " fill-opacity="1" fill-rule="nonzero"/></g></g></g></g></g></g><g clip-path="url(#1abf1b5c7b)"><g clip-path="url(#3bed143758)"><g transform="matrix(1, 0, 0, 1, 295, 37)"><g clip-path="url(#304263091e)"><g clip-path="url(#645be234d0)"><g clip-path="url(#12e11ff3af)"><path fill="#000000" d="M 0.453125 0.5 L 42.5 0.5 L 42.5 42.546875 L 0.453125 42.546875 Z M 0.453125 0.5 " fill-opacity="1" fill-rule="nonzero"/></g></g></g></g></g></g><g clip-path="url(#c38ead6023)"><g clip-path="url(#dd2c4bd372)"><g transform="matrix(1, 0, 0, 1, 231, 37)"><g clip-path="url(#299bcf0a91)"><g clip-path="url(#6b3d56df1e)"><g clip-path="url(#cc9dc35b30)"><path fill="#8a05ff" d="M 0.0234375 0.5 L 42.070312 0.5 L 42.070312 42.546875 L 0.0234375 42.546875 Z M 0.0234375 0.5 " fill-opacity="1" fill-rule="nonzero"/></g></g></g></g></g></g><g clip-path="url(#4d78aee91e)"><g clip-path="url(#cfdb09aed7)"><g transform="matrix(1, 0, 0, 1, 166, 37)"><g clip-path="url(#3b46ec2b7b)"><g clip-path="url(#70986f9ae2)"><g clip-path="url(#499564c635)"><path fill="#000000" d="M 0.476562 0.5 L 42.523438 0.5 L 42.523438 42.546875 L 0.476562 42.546875 Z M 0.476562 0.5 " fill-opacity="1" fill-rule="nonzero"/></g></g></g></g></g></g><g clip-path="url(#272ca57348)"><g clip-path="url(#76ab4d4610)"><g transform="matrix(1, 0, 0, 1, 101, 37)"><g clip-path="url(#d0e103658b)"><g clip-path="url(#0609f7d179)"><g clip-path="url(#d4761ba68c)"><path fill="#000000" d="M 0.988281 0.5 L 43.035156 0.5 L 43.035156 42.546875 L 0.988281 42.546875 Z M 0.988281 0.5 " fill-opacity="1" fill-rule="nonzero"/></g></g></g></g></g></g><g clip-path="url(#4ff1e59513)"><g clip-path="url(#e586d98b08)"><g transform="matrix(1, 0, 0, 1, 37, 295)"><g clip-path="url(#c6ea381c53)"><g clip-path="url(#7e8a302fd3)"><g clip-path="url(#0c524e943b)"><path fill="#000000" d="M 0.5 0.453125 L 42.546875 0.453125 L 42.546875 42.5 L 0.5 42.5 Z M 0.5 0.453125 " fill-opacity="1" fill-rule="nonzero"/></g></g></g></g></g></g><g clip-path="url(#f1c8951006)"><g clip-path="url(#d5edccb982)"><g transform="matrix(1, 0, 0, 1, 295, 295)"><g clip-path="url(#7fa9112156)"><g clip-path="url(#ce0139489c)"><g clip-path="url(#4289e7a9f6)"><path fill="#000000" d="M 0.453125 0.453125 L 42.5 0.453125 L 42.5 42.5 L 0.453125 42.5 Z M 0.453125 0.453125 " fill-opacity="1" fill-rule="nonzero"/></g></g></g></g></g></g><g clip-path="url(#ee6aee1a24)"><g clip-path="url(#b9c6dc7243)"><g transform="matrix(1, 0, 0, 1, 231, 295)"><g clip-path="url(#2a97a100f3)"><g clip-path="url(#318b70abd9)"><g clip-path="url(#000bdb7f0b)"><path fill="#000000" d="M 0.0234375 0.570312 L 42.070312 0.570312 L 42.070312 42.613281 L 0.0234375 42.613281 Z M 0.0234375 0.570312 " fill-opacity="1" fill-rule="nonzero"/></g></g></g></g></g></g><g clip-path="url(#4ce6e59959)"><g clip-path="url(#4a7d6d5c9c)"><g transform="matrix(1, 0, 0, 1, 166, 295)"><g clip-path="url(#148b4bbe53)"><g clip-path="url(#b6874bd959)"><g clip-path="url(#0d33626e09)"><path fill="#8a05ff" d="M 0.476562 0.453125 L 42.523438 0.453125 L 42.523438 42.5 L 0.476562 42.5 Z M 0.476562 0.453125 " fill-opacity="1" fill-rule="nonzero"/></g></g></g></g></g></g><g clip-path="url(#00bc336adf)"><g clip-path="url(#2fca25b3a7)"><g transform="matrix(1, 0, 0, 1, 101, 295)"><g clip-path="url(#e3bce6b8b2)"><g clip-path="url(#b818ed9ded)"><g clip-path="url(#b90524f36d)"><path fill="#000000" d="M 0.988281 0.453125 L 43.035156 0.453125 L 43.035156 42.5 L 0.988281 42.5 Z M 0.988281 0.453125 " fill-opacity="1" fill-rule="nonzero"/></g></g></g></g></g></g><g clip-path="url(#db76cb32cb)"><g clip-path="url(#5c3587daf4)"><g transform="matrix(1, 0, 0, 1, 37, 166)"><g clip-path="url(#f85fa90453)"><g clip-path="url(#fd697992de)"><g clip-path="url(#3f6298f07d)"><path fill="#000000" d="M 0.5 0.476562 L 42.546875 0.476562 L 42.546875 42.523438 L 0.5 42.523438 Z M 0.5 0.476562 " fill-opacity="1" fill-rule="nonzero"/></g></g></g></g></g></g><g clip-path="url(#93a6114127)"><g clip-path="url(#3b373a7529)"><g transform="matrix(1, 0, 0, 1, 295, 166)"><g clip-path="url(#14db9b4588)"><g clip-path="url(#38788c37d1)"><g clip-path="url(#fc216bc458)"><path fill="#000000" d="M 0.453125 0.476562 L 42.5 0.476562 L 42.5 42.523438 L 0.453125 42.523438 Z M 0.453125 0.476562 " fill-opacity="1" fill-rule="nonzero"/></g></g></g></g></g></g><g clip-path="url(#f0f924de98)"><g clip-path="url(#790933c4a4)"><g transform="matrix(1, 0, 0, 1, 231, 166)"><g clip-path="url(#460098109f)"><g clip-path="url(#dc780a1fa0)"><g clip-path="url(#55d4871f8d)"><path fill="#000000" d="M 0.0234375 0.476562 L 42.070312 0.476562 L 42.070312 42.523438 L 0.0234375 42.523438 Z M 0.0234375 0.476562 " fill-opacity="1" fill-rule="nonzero"/></g></g></g></g></g></g><g clip-path="url(#d7adc184c9)"><g clip-path="url(#aaf389813f)"><g transform="matrix(1, 0, 0, 1, 166, 166)"><g clip-path="url(#713f5ec0ea)"><g clip-path="url(#4d08ea2648)"><g clip-path="url(#b117971ca9)"><path fill="#000000" d="M 0.476562 0.476562 L 42.523438 0.476562 L 42.523438 42.523438 L 0.476562 42.523438 Z M 0.476562 0.476562 " fill-opacity="1" fill-rule="nonzero"/></g></g></g></g></g></g><g clip-path="url(#836de8ed16)"><g clip-path="url(#31c4178d13)"><g transform="matrix(1, 0, 0, 1, 101, 166)"><g clip-path="url(#36dd182217)"><g clip-path="url(#5dba60f60d)"><g clip-path="url(#417edf8c66)"><path fill="#000000" d="M 0.988281 0.476562 L 43.035156 0.476562 L 43.035156 42.523438 L 0.988281 42.523438 Z M 0.988281 0.476562 " fill-opacity="1" fill-rule="nonzero"/></g></g></g></g></g></g><g clip-path="url(#523e1ba460)"><g clip-path="url(#3e1dd3d309)"><g transform="matrix(1, 0, 0, 1, 37, 101)"><g clip-path="url(#62217e94ad)"><g clip-path="url(#752131a8df)"><g clip-path="url(#5a5e877601)"><path fill="#8a05ff" d="M 0.5 0.988281 L 42.546875 0.988281 L 42.546875 43.035156 L 0.5 43.035156 Z M 0.5 0.988281 " fill-opacity="1" fill-rule="nonzero"/></g></g></g></g></g></g><g clip-path="url(#cc8232e448)"><g clip-path="url(#6b0562876e)"><g transform="matrix(1, 0, 0, 1, 295, 101)"><g clip-path="url(#8418aad085)"><g clip-path="url(#3ec548803f)"><g clip-path="url(#c81d12de06)"><path fill="#8a05ff" d="M 0.453125 0.988281 L 42.5 0.988281 L 42.5 43.035156 L 0.453125 43.035156 Z M 0.453125 0.988281 " fill-opacity="1" fill-rule="nonzero"/></g></g></g></g></g></g><g clip-path="url(#f3a9dd0441)"><g clip-path="url(#326144042f)"><g transform="matrix(1, 0, 0, 1, 231, 101)"><g clip-path="url(#19aa49046d)"><g clip-path="url(#ca26b29a45)"><g clip-path="url(#9441248717)"><path fill="#8a05ff" d="M 0.0234375 0.988281 L 42.070312 0.988281 L 42.070312 43.035156 L 0.0234375 43.035156 Z M 0.0234375 0.988281 " fill-opacity="1" fill-rule="nonzero"/></g></g></g></g></g></g><g clip-path="url(#0d13364824)"><g clip-path="url(#02fa8cb92f)"><g transform="matrix(1, 0, 0, 1, 166, 101)"><g clip-path="url(#da774e5965)"><g clip-path="url(#66a6814852)"><g clip-path="url(#f1f15b2f65)"><path fill="#8a05ff" d="M 0.476562 0.988281 L 42.523438 0.988281 L 42.523438 43.035156 L 0.476562 43.035156 Z M 0.476562 0.988281 " fill-opacity="1" fill-rule="nonzero"/></g></g></g></g></g></g><g clip-path="url(#3f5f737293)"><g clip-path="url(#8f90185c0f)"><g transform="matrix(1, 0, 0, 1, 101, 101)"><g clip-path="url(#7090b40daf)"><g clip-path="url(#3e35e423f9)"><g clip-path="url(#bc840019e0)"><path fill="#8a05ff" d="M 0.988281 0.988281 L 43.035156 0.988281 L 43.035156 43.035156 L 0.988281 43.035156 Z M 0.988281 0.988281 " fill-opacity="1" fill-rule="nonzero"/></g></g></g></g></g></g><g clip-path="url(#80ef715387)"><g clip-path="url(#30b9dcc4e3)"><g transform="matrix(1, 0, 0, 1, 37, 231)"><g clip-path="url(#c5439b6356)"><g clip-path="url(#00840b68cf)"><g clip-path="url(#3b3773a978)"><path fill="#8a05ff" d="M 0.5 0.0234375 L 42.546875 0.0234375 L 42.546875 42.070312 L 0.5 42.070312 Z M 0.5 0.0234375 " fill-opacity="1" fill-rule="nonzero"/></g></g></g></g></g></g><g clip-path="url(#054e6f6e08)"><g clip-path="url(#6643b2c9a3)"><g transform="matrix(1, 0, 0, 1, 295, 231)"><g clip-path="url(#c72b49e5ca)"><g clip-path="url(#dcafdd1590)"><g clip-path="url(#475427954a)"><path fill="#8a05ff" d="M 0.453125 0.0234375 L 42.5 0.0234375 L 42.5 42.070312 L 0.453125 42.070312 Z M 0.453125 0.0234375 " fill-opacity="1" fill-rule="nonzero"/></g></g></g></g></g></g><g clip-path="url(#dd5e4d51c0)"><g clip-path="url(#503e0b877b)"><g transform="matrix(1, 0, 0, 1, 231, 231)"><g clip-path="url(#6f7db55a4f)"><g clip-path="url(#3346538853)"><g clip-path="url(#0a499c4cbc)"><path fill="#8a05ff" d="M 0.0234375 0.0234375 L 42.070312 0.0234375 L 42.070312 42.070312 L 0.0234375 42.070312 Z M 0.0234375 0.0234375 " fill-opacity="1" fill-rule="nonzero"/></g></g></g></g></g></g><g clip-path="url(#577bdff4dc)"><g clip-path="url(#b283a8a1ae)"><g transform="matrix(1, 0, 0, 1, 166, 231)"><g clip-path="url(#1e2267d735)"><g clip-path="url(#052f86fdb5)"><g clip-path="url(#49c5f7f020)"><path fill="#8a05ff" d="M 0.476562 0.0234375 L 42.523438 0.0234375 L 42.523438 42.070312 L 0.476562 42.070312 Z M 0.476562 0.0234375 " fill-opacity="1" fill-rule="nonzero"/></g></g></g></g></g></g><g clip-path="url(#ff47c2afb6)"><g clip-path="url(#319b80fb98)"><g transform="matrix(1, 0, 0, 1, 101, 231)"><g clip-path="url(#576a11803d)"><g clip-path="url(#4e4f2f8281)"><g clip-path="url(#3c0de007a6)"><path fill="#8a05ff" d="M 0.988281 0.0234375 L 43.035156 0.0234375 L 43.035156 42.070312 L 0.988281 42.070312 Z M 0.988281 0.0234375 " fill-opacity="1" fill-rule="nonzero"/></g></g></g></g></g></g></svg>